#N canvas 1397 39 879 894 10;
#X obj 25 305 *~;
#X obj 40 39 r \$0-snd-hsld-volume;
#X obj 40 237 pack 0 50;
#X obj 40 259 line~;
#X msg 79 189 label \$1;
#X obj 79 211 s \$0-rcv-hsld-volume;
#X obj 251 41 cnv 8 110 49 \$0-snd-cnv-label \$0-rcv-cnv-label ch1:kick
2 7 0 9 #606060 #14e814 0;
#X obj 256 56 hsl 100 15 -100 0 0 0 \$0-snd-hsld-volume \$0-rcv-hsld-volume
-0.2db 64 -8 0 9 #9f9f9f #ffffff #ffffff 0 1;
#X obj 248 105 loadbang;
#X obj 347 189 symbol \$2;
#X obj 248 273 s \$0-rcv-cnv-label;
#X obj 248 130 t b b, f 17;
#X obj 248 155 f \$1;
#X obj 248 189 makefilename %d;
#X obj 248 224 pack s s, f 17;
#X obj 181 188 loadbang;
#X msg 248 251 label ch\$1:\$2;
#X obj 25 14 catch~ ch\$1;
#X obj 286 75 hsl 70 11 0 1 0 0 \$0-snd-hsld-pan \$0-rcv-hsld-pan L\\\ \\\ \\\ \\\ \\\ \\\ \\\ \\\ \\\ \\\ \\\ \\\ \\\ \\\ \\\ R
1 6 0 7 #7c7c7c #ffffff #ffffff 0 1;
#X obj 254 74 tgl 12 0 \$0-snd-tgl-mute \$0-rcv-tgl-mute M 3 6 0 10
#000000 #000000 #fcfcfc 0 1;
#X obj 25 415 throw~ ch-master-L;
#X obj 58 392 throw~ ch-master-R;
#X obj 39 335 s~ ch\$1;
#N canvas 64 64 593 356 tgl-mute 0;
#X obj 22 12 r \$0-snd-tgl-mute;
#X obj 22 119 s \$0-rcv-tgl-mute;
#X msg 66 63 color 22 22 0;
#X msg 22 88 color 13 13 29;
#X obj 184 22 loadbang;
#X msg 184 44 1;
#X obj 22 34 sel 0 1, f 15;
#X connect 0 0 6 0;
#X connect 2 0 1 0;
#X connect 3 0 1 0;
#X connect 4 0 5 0;
#X connect 5 0 1 0;
#X connect 6 0 3 0;
#X connect 6 1 2 0;
#X restore 245 310 pd tgl-mute;
#N canvas 96 96 450 300 mute 0;
#X obj 37 37 inlet~;
#X obj 37 98 *~;
#X obj 90 37 r \$0-snd-tgl-mute;
#X obj 90 59 pack 0 25;
#X obj 90 81 line~;
#X obj 37 120 outlet~;
#X connect 0 0 1 0;
#X connect 1 0 5 0;
#X connect 2 0 3 0;
#X connect 3 0 4 0;
#X connect 4 0 1 1;
#X restore 40 281 pd mute;
#N canvas 128 128 645 448 pan 0;
#X obj 14 145 inlet~;
#X obj 72 162 *~;
#X obj 156 161 *~;
#X obj 171 34 / 4;
#X msg 87 75 \$1 10;
#X obj 87 100 line~;
#X obj 87 125 cos~;
#X msg 171 88 \$1 10;
#X obj 171 113 line~;
#X obj 171 138 cos~;
#X obj 171 63 + 0.75;
#X obj 171 11 r \$0-snd-hsld-pan;
#X obj 72 184 outlet~;
#X obj 156 183 outlet~;
#X obj 122 125 inlet~;
#X connect 0 0 1 0;
#X connect 0 0 2 0;
#X connect 1 0 12 0;
#X connect 2 0 13 0;
#X connect 3 0 4 0;
#X connect 3 0 10 0;
#X connect 4 0 5 0;
#X connect 5 0 6 0;
#X connect 6 0 1 1;
#X connect 7 0 8 0;
#X connect 8 0 9 0;
#X connect 9 0 2 1;
#X connect 10 0 7 0;
#X connect 11 0 3 0;
#X connect 14 0 2 0;
#X restore 25 367 pd pan;
#X obj 40 139 dbtorms;
#N canvas 67 571 450 300 expr 0;
#X obj 37 37 inlet;
#X obj 37 111 outlet;
#X obj 37 89 expr if($f1 <= 80 \, $f1 \, 80);
#X obj 114 112 outlet;
#X obj 37 62 expr pow($f1 \, 2)/100;
#X connect 0 0 4 0;
#X connect 2 0 1 0;
#X connect 4 0 2 0;
#X connect 4 0 3 0;
#X restore 40 63 pd expr;
#X obj 271 76 bng 9 250 50 0 \$0-s-bng-reset \$0-r-bng-reset empty
17 7 0 10 #ffc7c6 #000000 #000000;
#N canvas 316 285 987 451 loadbang 0;
#X obj 10 199 s \$0-rcv-cnv-label;
#X msg 10 176 color 21 0 \$1;
#X obj 10 5 loadbang;
#X obj 10 27 random 9;
#X obj 10 49 sel 0 1 2 3 4 5 6 7 8;
#X msg 10 71 0;
#X msg 20 81 5;
#X msg 30 91 8;
#X msg 40 101 13;
#X msg 50 111 14;
#X msg 60 121 15;
#X msg 70 131 16;
#X msg 80 141 17;
#X msg 90 151 20;
#N canvas 256 256 785 596 rgbToHex 0;
#X obj 217 83 makefilename %02x;
#X obj 217 13 inlet;
#X obj 217 58 random 256;
#X obj 217 215 pack s s s;
#X msg 217 237 symbol #\$1\$2\$3;
#X obj 217 259 outlet;
#X obj 236 132 makefilename %02x;
#X obj 236 107 random 256;
#X obj 217 35 t b b b;
#X obj 256 183 makefilename %02x;
#X obj 256 158 random 256;
#X msg 32 14 255 \$1;
#X obj 32 36 -;
#X obj 32 59 makefilename %02x;
#X msg 60 80 255 \$1;
#X obj 60 102 -;
#X obj 60 125 makefilename %02x;
#X msg 89 158 255 \$1;
#X obj 89 180 -;
#X obj 89 203 makefilename %02x;
#X obj 32 227 pack s s s;
#X msg 32 249 symbol #\$1\$2\$3;
#X obj 32 271 outlet;
#X connect 0 0 3 0;
#X connect 1 0 8 0;
#X connect 2 0 0 0;
#X connect 2 0 11 0;
#X connect 3 0 4 0;
#X connect 4 0 5 0;
#X connect 6 0 3 1;
#X connect 7 0 6 0;
#X connect 7 0 14 0;
#X connect 8 0 2 0;
#X connect 8 1 7 0;
#X connect 8 2 10 0;
#X connect 9 0 3 2;
#X connect 10 0 9 0;
#X connect 10 0 17 0;
#X connect 11 0 12 0;
#X connect 12 0 13 0;
#X connect 13 0 20 0;
#X connect 14 0 15 0;
#X connect 15 0 16 0;
#X connect 16 0 20 1;
#X connect 17 0 18 0;
#X connect 18 0 19 0;
#X connect 19 0 20 2;
#X connect 20 0 21 0;
#X connect 21 0 22 0;
#X restore 164 86 pd rgbToHex;
#X obj 174 65 bng 15 250 50 0 empty empty empty 17 7 0 10 #fcfcfc #000000
#000000;
#X msg 164 137 color \$1 0 \$2;
#X obj 164 108 pack s s;
#X text 182 40 ideia for theme;
#X obj 329 18 loadbang;
#X msg 329 40 0.5;
#X obj 329 62 s \$0-rcv-hsld-pan;
#X obj 361 40 r \$0-s-bng-reset;
#X obj 104 178 s \$0-theme-color;
#X connect 1 0 0 0;
#X connect 2 0 3 0;
#X connect 3 0 4 0;
#X connect 4 0 5 0;
#X connect 4 1 6 0;
#X connect 4 2 7 0;
#X connect 4 3 8 0;
#X connect 4 4 9 0;
#X connect 4 5 10 0;
#X connect 4 6 11 0;
#X connect 4 7 12 0;
#X connect 4 8 13 0;
#X connect 5 0 1 0;
#X connect 5 0 23 0;
#X connect 6 0 1 0;
#X connect 6 0 23 0;
#X connect 7 0 1 0;
#X connect 7 0 23 0;
#X connect 8 0 1 0;
#X connect 8 0 23 0;
#X connect 9 0 1 0;
#X connect 9 0 23 0;
#X connect 10 0 1 0;
#X connect 10 0 23 0;
#X connect 11 0 1 0;
#X connect 11 0 23 0;
#X connect 12 0 1 0;
#X connect 12 0 23 0;
#X connect 13 0 1 0;
#X connect 13 0 23 0;
#X connect 14 0 17 0;
#X connect 14 1 17 1;
#X connect 15 0 14 0;
#X connect 16 0 0 0;
#X connect 17 0 16 0;
#X connect 19 0 20 0;
#X connect 20 0 21 0;
#X connect 22 0 20 0;
#X restore 245 332 pd loadbang;
#X obj 108 288 catch~ ch\$1-l;
#X obj 112 312 catch~ ch\$1-r;
#X obj 112 338 *~;
#X msg 40 88 100 \$1;
#X obj 79 167 makefilename -%.1fdb;
#X obj 254 57 cnv 1 96 12 \$0-s-cnv_slider \$0-r-cnv_slider empty 20
12 0 14 #14e814 #14e814 0;
#N canvas 995 189 450 434 canvas-slider 0;
#X obj 18 167 s \$0-r-cnv_slider;
#X obj 18 12 r \$0-snd-hsld-volume;
#X msg 18 88 vis_size \$1 12;
#X obj 33 121 r \$0-theme-color;
#X msg 33 143 color \$1 \$1 \$1;
#X msg 18 44 100 \$1;
#X obj 18 66 +;
#X connect 1 0 5 0;
#X connect 2 0 0 0;
#X connect 3 0 4 0;
#X connect 4 0 0 0;
#X connect 5 0 6 0;
#X connect 6 0 2 0;
#X restore 245 354 pd canvas-slider;
#N canvas 87 150 535 386 preset 0;
#X obj 47 43 route vol pan;
#X obj 85 67 s \$0-rcv-hsld-pan;
#X obj 47 92 s \$0-rcv-hsld-volume;
#X obj 47 15 inlet;
#X connect 0 0 2 0;
#X connect 0 1 1 0;
#X connect 3 0 0 0;
#X restore 244 408 pd preset;
#X obj 40 110 -;
#X msg 143 188 -24.5;
#X obj 244 386 r channel\$1;
#X connect 0 0 22 0;
#X connect 0 0 25 0;
#X connect 1 0 27 0;
#X connect 2 0 3 0;
#X connect 3 0 24 0;
#X connect 4 0 5 0;
#X connect 8 0 11 0;
#X connect 9 0 14 1;
#X connect 11 0 12 0;
#X connect 11 1 9 0;
#X connect 12 0 13 0;
#X connect 13 0 14 0;
#X connect 14 0 16 0;
#X connect 15 0 39 0;
#X connect 16 0 10 0;
#X connect 17 0 0 0;
#X connect 24 0 0 1;
#X connect 24 0 32 1;
#X connect 25 0 20 0;
#X connect 25 1 21 0;
#X connect 26 0 2 0;
#X connect 27 0 33 0;
#X connect 27 1 34 0;
#X connect 30 0 0 0;
#X connect 31 0 32 0;
#X connect 32 0 25 1;
#X connect 33 0 38 0;
#X connect 34 0 4 0;
#X connect 38 0 26 0;
#X connect 39 0 5 0;
#X connect 40 0 37 0;
#X coords 0 -1 1 1 112 51 2 250 40;
