#N canvas -9 -9 1920 1026 12;
#X obj 58 167 bng 15 250 50 0 empty empty empty 17 7 0 10 -262144 -1
-1;
#N canvas 586 74 1051 852 clap_engine 0;
#X obj 38 109 noise~;
#X obj 38 152 hip~;
#X obj 38 191 lop~;
#X floatatom 109 106 5 0 0 0 - - -;
#X obj 109 166 + 500;
#X floatatom 160 105 5 0 0 0 - - -;
#X obj 160 127 t b f;
#X obj 38 288 *~;
#N canvas 65 566 1745 908 mult_env 0;
#X obj 45 51 inlet;
#X obj 45 374 *~ 1;
#X obj 45 397 outlet~;
#N canvas 1033 129 835 760 vol_env 0;
#X obj 36 65 inlet;
#X obj 36 88 f 250;
#X msg 36 111 1 0.2 \, 0 \$1 0.2;
#X obj 36 134 vline~;
#X obj 36 157 *~;
#X obj 36 180 *~;
#X obj 36 203 outlet~;
#X obj 101 46 inlet;
#X connect 0 0 1 0;
#X connect 1 0 2 0;
#X connect 2 0 3 0;
#X connect 3 0 4 0;
#X connect 3 0 4 1;
#X connect 4 0 5 0;
#X connect 4 0 5 1;
#X connect 5 0 6 0;
#X connect 7 0 1 1;
#X restore 45 179 pd vol_env;
#N canvas 1033 129 835 760 vol_env 0;
#X obj 36 65 inlet;
#X obj 36 88 f 250;
#X msg 36 111 1 0.2 \, 0 \$1 0.2;
#X obj 36 134 vline~;
#X obj 36 157 *~;
#X obj 36 180 *~;
#X obj 36 203 outlet~;
#X obj 101 46 inlet;
#X connect 0 0 1 0;
#X connect 1 0 2 0;
#X connect 2 0 3 0;
#X connect 3 0 4 0;
#X connect 3 0 4 1;
#X connect 4 0 5 0;
#X connect 4 0 5 1;
#X connect 5 0 6 0;
#X connect 7 0 1 1;
#X restore 129 179 pd vol_env;
#N canvas 1033 129 835 760 vol_env 0;
#X obj 36 65 inlet;
#X obj 36 88 f 250;
#X msg 36 111 1 0.2 \, 0 \$1 0.2;
#X obj 36 134 vline~;
#X obj 36 157 *~;
#X obj 36 180 *~;
#X obj 36 203 outlet~;
#X obj 101 46 inlet;
#X connect 0 0 1 0;
#X connect 1 0 2 0;
#X connect 2 0 3 0;
#X connect 3 0 4 0;
#X connect 3 0 4 1;
#X connect 4 0 5 0;
#X connect 4 0 5 1;
#X connect 5 0 6 0;
#X connect 7 0 1 1;
#X restore 210 179 pd vol_env;
#N canvas 1033 129 835 760 vol_env 0;
#X obj 36 65 inlet;
#X obj 36 88 f 250;
#X msg 36 111 1 0.2 \, 0 \$1 0.2;
#X obj 36 134 vline~;
#X obj 36 157 *~;
#X obj 36 180 *~;
#X obj 36 203 outlet~;
#X obj 101 46 inlet;
#X connect 0 0 1 0;
#X connect 1 0 2 0;
#X connect 2 0 3 0;
#X connect 3 0 4 0;
#X connect 3 0 4 1;
#X connect 4 0 5 0;
#X connect 4 0 5 1;
#X connect 5 0 6 0;
#X connect 7 0 1 1;
#X restore 292 179 pd vol_env;
#X obj 129 93 del 20;
#X obj 210 124 del 20;
#X obj 292 152 del 20;
#X obj 250 52 inlet;
#X floatatom 371 87 5 0 0 0 - - -;
#X obj 371 130 * 5;
#X obj 442 51 inlet;
#X obj 442 74 t b f;
#X connect 0 0 3 0;
#X connect 0 0 7 0;
#X connect 1 0 2 0;
#X connect 3 0 1 0;
#X connect 4 0 1 0;
#X connect 5 0 1 0;
#X connect 6 0 1 0;
#X connect 7 0 4 0;
#X connect 7 0 8 0;
#X connect 8 0 5 0;
#X connect 8 0 9 0;
#X connect 9 0 6 0;
#X connect 10 0 7 1;
#X connect 10 0 8 1;
#X connect 10 0 9 1;
#X connect 10 0 11 0;
#X connect 11 0 3 1;
#X connect 11 0 4 1;
#X connect 11 0 5 1;
#X connect 11 0 12 0;
#X connect 12 0 6 1;
#X connect 13 0 14 0;
#X connect 14 0 12 0;
#X connect 14 1 12 1;
#X restore 212 230 pd mult_env;
#X f 19;
#X floatatom 277 196 5 0 0 0 - - -;
#X floatatom 342 196 5 0 0 0 - - -;
#X text 275 176 delay;
#X text 339 177 decay;
#X obj 38 323 outlet~;
#X obj 72 214 inlet;
#X obj 277 149 inlet;
#X obj 342 147 inlet;
#X obj 109 54 inlet;
#X obj 160 53 inlet;
#X connect 0 0 1 0;
#X connect 1 0 2 0;
#X connect 2 0 7 0;
#X connect 3 0 4 0;
#X connect 3 0 1 1;
#X connect 4 0 2 1;
#X connect 5 0 6 0;
#X connect 6 0 4 0;
#X connect 6 1 4 1;
#X connect 7 0 13 0;
#X connect 8 0 7 1;
#X connect 9 0 8 1;
#X connect 10 0 8 2;
#X connect 14 0 8 0;
#X connect 15 0 9 0;
#X connect 16 0 10 0;
#X connect 17 0 3 0;
#X connect 18 0 5 0;
#X restore 58 226 pd clap_engine;
#X f 55;
#X floatatom 344 192 5 0 0 0 - - -;
#X floatatom 440 192 5 0 0 0 - - -;
#X text 435 4 decay;
#X text 340 3 delay;
#X floatatom 153 195 5 0 0 0 - - -;
#X floatatom 249 192 5 0 0 0 - - -;
#X text 147 6 cutoff;
#X text 247 6 width;
#X obj 153 29 vsl 15 128 200 2000 0 0 empty clap_cutoff empty 0 -9
0 10 -262144 -1 -1 11288 1;
#X obj 249 30 vsl 15 128 100 2000 0 0 empty clap_width empty 0 -9 0
10 -262144 -1 -1 12032 1;
#X obj 344 29 vsl 15 128 5 50 0 0 empty clap_delay empty 0 -9 0 10
-262144 -1 -1 6208 1;
#X obj 440 30 vsl 15 128 5 50 0 0 empty clap_decay empty 0 -9 0 10
-262144 -1 -1 2822 1;
#X msg 664 199 \; clap_cutoff 1000 \; clap_width 1000 \; clap_delay
16 \; clap_decay 10 \;;
#X msg 804 199 \; clap_cutoff 800 \; clap_width 1500 \; clap_delay
26 \; clap_decay 35 \;;
#X msg 525 293 \; clap_cutoff 800 \; clap_width 1500 \; clap_delay
9 \; clap_decay 35 \;;
#X msg 526 199 \; clap_cutoff 2000 \; clap_width 500 \; clap_delay
16 \; clap_decay 25 \;;
#X msg 808 291 \; clap_cutoff 350 \; clap_width 500 \; clap_delay 35
\; clap_decay 15 \;;
#X msg 665 292 \; clap_cutoff 500 \; clap_width 800 \; clap_delay 7
\; clap_decay 45 \;;
#X obj 58 122 inlet;
#X obj 58 409 *~ 1;
#X obj 99 453 outlet~;
#X obj 206 333 bng 25 250 50 0 empty empty C 7 13 0 18 -262144 -1 -99865
;
#X floatatom 247 326 5 200 2000 0 C clap_cutoff -;
#X floatatom 247 347 5 100 2000 0 W clap_width -;
#X floatatom 297 326 5 5 50 0 E clap_delay -;
#X floatatom 297 347 5 5 60 0 D clap_decay -;
#X obj 591 94 random 6;
#X obj 591 51 loadbang;
#X obj 591 118 sel 0 1 2 3 4 5;
#X obj 247 371 hsl 85 15 0 2 0 0 volume_clap empty VOL 0 8 0 10 -262130
-1 -1 4200 0;
#X floatatom 87 371 5 0 0 0 - volume_clap -;
#X obj 205 371 nbx 3 15 0.02 2 0 1 empty volume_clap empty 0 -8 0 10
-262130 -1 -1 0.5 256;
#X obj 135 320 loadbang;
#X msg 135 344 0.5;
#X obj 123 255 inlet;
#X obj 223 256 inlet;
#X obj 314 253 inlet;
#X obj 409 252 inlet;
#X obj 467 251 inlet;
#X obj 123 279 s clap_cutoff;
#X obj 224 280 s clap_width;
#X obj 317 281 s clap_delay;
#X obj 410 280 s clap_decay;
#X connect 0 0 1 0;
#X connect 0 0 23 0;
#X connect 1 0 21 0;
#X connect 2 0 1 3;
#X connect 3 0 1 4;
#X connect 6 0 1 1;
#X connect 7 0 1 2;
#X connect 10 0 6 0;
#X connect 11 0 7 0;
#X connect 12 0 2 0;
#X connect 13 0 3 0;
#X connect 20 0 0 0;
#X connect 21 0 22 0;
#X connect 24 0 6 0;
#X connect 25 0 7 0;
#X connect 26 0 2 0;
#X connect 27 0 3 0;
#X connect 28 0 30 0;
#X connect 29 0 28 0;
#X connect 30 0 17 0;
#X connect 30 1 16 0;
#X connect 30 2 14 0;
#X connect 30 3 19 0;
#X connect 30 4 15 0;
#X connect 30 5 18 0;
#X connect 32 0 21 1;
#X connect 34 0 35 0;
#X connect 35 0 31 0;
#X connect 36 0 41 0;
#X connect 37 0 42 0;
#X connect 38 0 43 0;
#X connect 39 0 44 0;
#X connect 40 0 31 0;
#X coords 0 -1 1 1 138 72 2 200 320;
