#N canvas 623 38 771 609 8;
#X obj 161 134 vline~;
#X obj 161 154 pow~ 4;
#X obj 161 194 *~;
#X obj 224 114 mtof~;
#X obj 237 156 noise~;
#N canvas 218 33 1492 504 8saw~ 0;
#X obj 38 59 inlet~;
#X obj 38 84 *~ 1;
#X obj 38 104 phasor~;
#X obj 38 124 expr~ $v1*2-1;
#X obj 116 102 phasor~;
#X obj 116 143 expr~ $v1*2-1;
#X obj 196 103 phasor~;
#X obj 196 144 expr~ $v1*2-1;
#X obj 276 103 phasor~;
#X obj 276 144 expr~ $v1*2-1;
#X obj 353 103 phasor~;
#X obj 353 144 expr~ $v1*2-1;
#X obj 433 103 phasor~;
#X obj 433 144 expr~ $v1*2-1;
#X obj 116 74 *~ 1.143;
#X obj 196 74 *~ 1.267;
#X obj 276 74 *~ 1.311;
#X obj 353 74 *~ 1.687;
#X obj 433 74 *~ 1.836;
#X obj 514 102 phasor~;
#X obj 514 143 expr~ $v1*2-1;
#X obj 594 102 phasor~;
#X obj 594 143 expr~ $v1*2-1;
#X obj 514 73 *~ 1.945;
#X obj 594 73 *~ 2.047;
#X obj 38 159 outlet~;
#X connect 0 0 1 0;
#X connect 0 0 24 0;
#X connect 0 0 23 0;
#X connect 0 0 18 0;
#X connect 0 0 17 0;
#X connect 0 0 16 0;
#X connect 0 0 15 0;
#X connect 0 0 14 0;
#X connect 1 0 2 0;
#X connect 2 0 3 0;
#X connect 3 0 25 0;
#X connect 4 0 5 0;
#X connect 5 0 25 0;
#X connect 6 0 7 0;
#X connect 7 0 25 0;
#X connect 8 0 9 0;
#X connect 9 0 25 0;
#X connect 10 0 11 0;
#X connect 11 0 25 0;
#X connect 12 0 13 0;
#X connect 13 0 25 0;
#X connect 14 0 4 0;
#X connect 15 0 6 0;
#X connect 16 0 8 0;
#X connect 17 0 10 0;
#X connect 18 0 12 0;
#X connect 19 0 20 0;
#X connect 20 0 25 0;
#X connect 21 0 22 0;
#X connect 22 0 25 0;
#X connect 23 0 19 0;
#X connect 24 0 21 0;
#X restore 224 135 pd 8saw~;
#N canvas 342 400 1089 351 filter~ 0;
#X obj 23 23 inlet~;
#X obj 23 47 biquad~ 0.638282 -0.176456 0.134544 0.269087 0.134544
;
#X obj 23 68 biquad~ 0.88843 -0.568945 0.614344 -1.22869 0.614344;
#X obj 23 89 biquad~ 0.88843 -0.568945 0.614344 -1.22869 0.614344;
#X obj 23 109 biquad~ 1.86507 -0.892661 0.939432 -1.87886 0.939432
;
#X obj 23 138 outlet~;
#X text 316 47 lowpass resonant filter - Hz=7000 Q=0.6;
#X text 311 68 highpass resonant filter - Hz=6800 Q=1.5;
#X text 311 90 highpass resonant filter - Hz=6800 Q=1.5;
#X text 311 110 highpass resonant filter - Hz=1200 Q=1.5;
#X connect 0 0 1 0;
#X connect 1 0 2 0;
#X connect 2 0 3 0;
#X connect 3 0 4 0;
#X connect 4 0 5 0;
#X restore 224 179 pd filter~;
#X obj 161 230 expr~ tanh($v1/2);
#X obj 161 250 s~ classic.hat;
#X obj 161 18 r classic.hat~;
#X msg 161 114 \$1 \, 0 \$2;
#N canvas 691 134 557 473 vel/rel 0;
#X obj 37 9 inlet;
#X obj 37 29 t b b, f 16;
#X obj 37 128 f 1;
#X obj 37 167 pack f f;
#X obj 37 187 outlet;
#X obj 114 130 f 200;
#X obj 136 105 r \$0-s-vsld-rel;
#X obj 49 57 r \$0-vel;
#X obj 49 105 / 127;
#X obj 61 81 r \$0-s-n2-vel;
#X connect 0 0 1 0;
#X connect 1 0 2 0;
#X connect 1 1 5 0;
#X connect 2 0 3 0;
#X connect 3 0 4 0;
#X connect 5 0 3 1;
#X connect 6 0 5 1;
#X connect 7 0 8 0;
#X connect 8 0 2 1;
#X connect 9 0 8 0;
#X restore 161 81 pd vel/rel;
#X obj 20 20 cnv 15 105 95 empty empty ☰hats☰ 2 8 0 10 #000000
#9f9f9f 0;
#X obj 101 27 vsl 20 80 25 1500 0 0 \$0-s-vsld-rel \$0-r-vsld-rel empty
0 -9 0 10 #606060 #faff00 #ffffff 0 1;
#X obj 56 157 nbx 4 12 1 50 0 0 \$0-s-n2-dist \$0-r-n2-dist Dist. -32
6 0 8 #000000 #faff00 #ffffff 0 256;
#X obj 25 77 nbx 4 12 0 127 0 0 \$0-s-n2-vel \$0-r-n2-vel Vel 40 6
0 8 #000000 #faff00 #ffffff 0 256;
#X obj 25 137 nbx 4 12 0 100 0 0 \$0-s-n2-vol \$0-r-n2-vol Vol 40 6
0 8 #404040 #faff00 #ffffff 0 256;
#X obj 56 56 nbx 4 12 70 105 0 0 \$0-s-n2-pitch \$0-r-n2-pitch Pitch
-32 6 0 8 #000000 #faff00 #ffffff 0 256;
#X obj 87 26 cnv 4 6 6 empty \$0-r-cnv-trg empty 20 12 0 14 #606060
#fcfcfc 0;
#X obj 68 24 bng 10 100 50 0 \$0-s-bng-test \$0-r-bng-test empty 17
7 0 10 #00ff04 #202020 #000000;
#X obj 224 73 r \$0-s-n2-pitch;
#X obj 224 94 sig~;
#N canvas 928 122 694 609 receive 0;
#X obj 29 8 inlet;
#X obj 261 73 outlet;
#N canvas 1406 440 450 300 trg 0;
#X obj 30 12 inlet;
#X obj 30 32 t b;
#X obj 30 102 s \$0-r-cnv-trg;
#X obj 96 47 del 50;
#X msg 30 52 color 0 0 0;
#X msg 96 67 color 21 0 0;
#X connect 0 0 1 0;
#X connect 1 0 3 0;
#X connect 1 0 4 0;
#X connect 3 0 5 0;
#X connect 4 0 2 0;
#X connect 5 0 2 0;
#X restore 278 48 pd trg;
#X obj 39 30 r \$0-s-bng-test;
#X obj 106 202 s \$0-r-vsld-rel;
#X obj 184 153 s \$0-r-n2-vel;
#X obj 184 125 clip 0 127;
#X obj 29 49 route pitch rel vel, f 47;
#X obj 29 249 s \$0-r-n2-pitch;
#X obj 29 230 clip 70 105;
#X obj 106 183 clip 25 1500;
#X connect 0 0 7 0;
#X connect 3 0 7 0;
#X connect 6 0 5 0;
#X connect 7 0 9 0;
#X connect 7 1 10 0;
#X connect 7 2 6 0;
#X connect 7 3 1 0;
#X connect 7 3 2 0;
#X connect 9 0 8 0;
#X connect 10 0 4 0;
#X restore 161 49 pd receive;
#N canvas 928 295 604 460 loadbang 0;
#X obj 33 16 loadbang;
#X msg 129 56 2;
#X obj 129 80 s \$0-r-n2-dist;
#X obj 160 56 s \$0-r-vsld-rel;
#X obj 98 103 s \$0-r-n2-vol;
#X msg 98 80 50;
#X obj 33 156 s \$0-r-n2-pitch;
#X msg 33 129 84;
#X obj 65 127 s \$0-r-n2-vel;
#X msg 65 104 127;
#X msg 160 31 250;
#X connect 0 0 7 0;
#X connect 0 0 9 0;
#X connect 0 0 5 0;
#X connect 0 0 1 0;
#X connect 0 0 10 0;
#X connect 1 0 2 0;
#X connect 5 0 4 0;
#X connect 7 0 6 0;
#X connect 9 0 8 0;
#X connect 10 0 3 0;
#X restore 267 14 pd loadbang;
#X connect 0 0 1 0;
#X connect 1 0 2 0;
#X connect 2 0 7 0;
#X connect 3 0 5 0;
#X connect 4 0 6 0;
#X connect 5 0 6 0;
#X connect 6 0 2 1;
#X connect 7 0 8 0;
#X connect 9 0 22 0;
#X connect 10 0 0 0;
#X connect 11 0 10 0;
#X connect 20 0 21 0;
#X connect 21 0 3 0;
#X connect 22 0 11 0;
#X coords 0 -1 1 1 105 95 2 20 20;
