#N canvas 409 155 676 610 10;
#X obj 42 157 + 1;
#X obj 27 188 s count;
#X obj 14 38 t f b, f 11;
#X msg 77 129 0;
#X floatatom 242 206 5 1 500 1 bpm \$0-r-bpm \$0-s-bpm 0;
#X obj 72 245 bng 10 50 10 0 \$0-s-clock_bng \$0-r-clock_bng empty
17 7 0 10 #70707d #fcfcfc #fcfcfc;
#X obj 14 219 mod 4;
#X obj 14 241 sel 0;
#X obj 14 14 r \$0-play;
#X obj 14 157 i 0;
#X obj 222 22 tgl 16 0 \$0-play \$0-play-label empty 17 7 0 10 #70707d
#fcfcfc #fcfcfc 0 1;
#N canvas 535 231 393 234 loadbang 0;
#X obj 22 14 loadbang;
#X msg 22 36 120;
#X obj 22 61 s \$0-r-bpm;
#X connect 0 0 1 0;
#X connect 1 0 2 0;
#X restore 220 81 pd loadbang;
#X obj 89 37 r \$0-s-bpm;
#X msg 89 59 tempo \$1 permin;
#X obj 14 262 s \$0-r-clock_bng;
#X obj 14 88 metro 0.25 120 permin;
#X obj 77 157 s clock-reset;
#X obj 304 24 cnv 5 6 10 \$0-s-clock_cnv \$0-r-clock_cnv empty 20 12
0 14 #606060 #fcfcfc 0;
#X msg 126 184 color 0 0 0;
#X obj 126 257 s \$0-r-clock_cnv;
#X msg 136 228 color 21 0 0;
#X obj 136 208 del 50;
#X obj 220 111 r clock2;
#X obj 220 133 route bpm;
#X obj 220 155 s \$0-r-bpm;
#X obj 241 22 nbx 5 15 1 500 0 0 \$0-s-bpm \$0-r-bpm bpm 42 8 0 7 #70707d
#ffffff #faff00 0 256;
#N canvas 1183 487 673 465 values 0;
#X msg 20 61 60000;
#X obj 20 36 t b f;
#X obj 20 85 /, f 5;
#X obj 20 110 int;
#X obj 20 135 * 0.25;
#X obj 20 188 s \$0-r-cnv-ms;
#X obj 20 12 r \$0-s-bpm;
#X msg 20 162 label \$1ms;
#X obj 107 152 v clock;
#X obj 89 114 cnv 3 1 1 \$0-s-cnv-ms \$0-r-cnv-ms 136.25ms 2 8 0 8
#43434a #ffffff 0;
#X obj 171 27 r \$0-play;
#X obj 171 119 s clock2;
#X obj 171 63 list prepend state;
#X obj 171 91 list trim;
#X connect 0 0 2 0;
#X connect 1 0 0 0;
#X connect 1 1 2 1;
#X connect 2 0 3 0;
#X connect 3 0 4 0;
#X connect 4 0 7 0;
#X connect 4 0 8 0;
#X connect 6 0 1 0;
#X connect 7 0 5 0;
#X connect 10 0 12 0;
#X connect 12 0 13 0;
#X connect 13 0 11 0;
#X restore 220 58 pd values;
#X connect 0 0 9 1;
#X connect 2 0 15 0;
#X connect 2 1 3 0;
#X connect 3 0 9 1;
#X connect 3 0 16 0;
#X connect 6 0 7 0;
#X connect 7 0 14 0;
#X connect 7 0 18 0;
#X connect 7 0 21 0;
#X connect 8 0 2 0;
#X connect 9 0 0 0;
#X connect 9 0 1 0;
#X connect 9 0 6 0;
#X connect 12 0 13 0;
#X connect 13 0 15 0;
#X connect 15 0 9 0;
#X connect 18 0 19 0;
#X connect 20 0 19 0;
#X connect 21 0 20 0;
#X connect 22 0 23 0;
#X connect 23 0 24 0;
#X coords 0 -1 1 1 94 20 2 220 20;
