#N canvas 336 159 912 704 10;
#X obj 72 91 delwrite~ comb1 1000;
#X obj 172 242 delread4~ comb1;
#X floatatom 172 220 5 0 0 0 - - -;
#X obj 172 177 mtof;
#X obj 172 199 / 1000;
#X obj 72 67 *~ 0.7;
#X obj 15 63 inlet~;
#X obj 15 324 outlet~;
#X obj 15 289 *~;
#X obj 83 259 *~;
#X obj 30 151 - 1;
#X obj 30 173 abs;
#X obj 98 188 pack 0 50;
#X obj 98 210 line~;
#X obj 30 225 pack 0 50;
#X obj 30 247 line~;
#X obj 172 267 s~ \$0-comb1;
#X obj 72 45 r~ \$0-comb1;
#X obj 172 112 inlet;
#X obj 172 156 f \$1;
#X obj 183 133 loadbang;
#X obj 234 6 inlet;
#X obj 245 27 loadbang;
#X obj 234 50 f \$2;
#X obj 307 78 inlet;
#X obj 318 99 loadbang;
#X obj 307 122 f \$3;
#X obj 307 144 s \$0-dry-wet;
#X obj 56 120 r \$0-dry-wet;
#X floatatom 234 74 5 0 0 0 - - -;
#X floatatom 268 139 5 0 0 0 - - -;
#X floatatom 207 173 5 0 0 0 - - -;
#X text 298 228 ARGUMENTS:;
#X text 298 268 0 - 1 (Feedback);
#X text 298 288 0 - 1 (Dry/Wet);
#X text 298 248 12 - 127 (Frequencie);
#X text 351 5 by MisterConscio;
#X connect 1 0 9 0;
#X connect 1 0 16 0;
#X connect 2 0 1 0;
#X connect 3 0 4 0;
#X connect 4 0 2 0;
#X connect 5 0 0 0;
#X connect 6 0 0 0;
#X connect 6 0 8 0;
#X connect 8 0 7 0;
#X connect 9 0 7 0;
#X connect 10 0 11 0;
#X connect 11 0 14 0;
#X connect 12 0 13 0;
#X connect 13 0 9 1;
#X connect 14 0 15 0;
#X connect 15 0 8 1;
#X connect 17 0 5 0;
#X connect 18 0 19 0;
#X connect 19 0 3 0;
#X connect 19 0 31 0;
#X connect 20 0 19 0;
#X connect 21 0 23 0;
#X connect 22 0 23 0;
#X connect 23 0 5 1;
#X connect 23 0 29 0;
#X connect 24 0 26 0;
#X connect 25 0 26 0;
#X connect 26 0 27 0;
#X connect 26 0 30 0;
#X connect 28 0 10 0;
#X connect 28 0 12 0;
#X coords 0 352 1 351 117 102 0;
