#N canvas 767 15 967 908 10;
#X msg 15 191 \$1 \, 0 \$2;
#X obj 15 213 vline~;
#X obj 15 305 *~;
#X msg 142 138 \$1 \, 0 \$2;
#X obj 142 160 vline~;
#X obj 142 244 +~;
#X obj 15 369 /~ 2;
#X obj 15 41 t b b b, f 43;
#N canvas 149 99 538 677 fm 0;
#X obj 20 301 outlet~;
#X obj 20 166 mtof~;
#X obj 68 170 inlet;
#X obj 38 259 *~, f 10;
#X obj 20 144 sig~ 36;
#X obj 95 210 *~;
#X obj 110 165 pack 0 50;
#X obj 110 187 line~;
#X obj 38 193 *~ 2;
#X obj 38 215 phasor~;
#X obj 38 237 cos~;
#X obj 110 139 * 10;
#X obj 110 114 expr pow($f1/127 \, 2);
#X obj 20 10 r \$0-snd-tune;
#X obj 110 91 r \$0-snd-fm;
#X obj 59 58 r \$0-snd-ratio;
#X connect 1 0 0 0;
#X connect 1 0 8 0;
#X connect 2 0 9 1;
#X connect 3 0 0 0;
#X connect 4 0 1 0;
#X connect 5 0 3 1;
#X connect 6 0 7 0;
#X connect 7 0 5 1;
#X connect 8 0 5 0;
#X connect 8 0 9 0;
#X connect 9 0 10 0;
#X connect 10 0 3 0;
#X connect 11 0 6 0;
#X connect 12 0 11 0;
#X connect 13 0 4 0;
#X connect 14 0 12 0;
#X connect 15 0 8 1;
#X restore 157 215 pd fm;
#X obj 15 169 pack 1 750;
#X obj 142 182 pow~ 1.15;
#X obj 142 116 pack 100 35;
#X obj 142 266 phasor~;
#X obj 142 288 cos~;
#X msg 270 198 0.25;
#X obj 15 260 lop~ 300;
#X obj 15 237 pow~ 4;
#X obj 15 391 outlet~;
#X obj 15 15 inlet;
#X obj 15 130 f 1;
#X obj 356 41 nbx 3 14 0 127 0 1 \$0-snd-tune \$0-rcv-tune tune 39
7 0 10 -204786 -1 -262144 36 256;
#X obj 356 75 nbx 3 14 0 127 0 1 \$0-snd-fm \$0-rcv-fm fm 39 7 0 10
-204786 -1 -262144 17 256;
#X obj 356 58 nbx 3 14 0 8 0 1 \$0-snd-ratio \$0-rcv-ratio ratio 39
7 0 10 -204786 -1 -262144 2 256;
#X obj 142 92 f 100;
#X obj 356 98 nbx 3 14 0 127 0 1 \$0-snd-click \$0-rcv-click click
39 7 0 10 -203904 -1 -262144 56 256;
#X obj 356 115 nbx 3 14 0 127 0 1 \$0-snd-click-decay \$0-rcv-click-decay
decay 39 7 0 10 -203904 -1 -262144 48 256;
#X obj 356 132 nbx 3 14 0 127 0 1 \$0-snd-click-bend \$0-rcv-click-bend
bend 39 7 0 10 -203904 -1 -262144 39 256;
#X obj 211 160 pack 0 50;
#X obj 211 182 line~;
#N canvas 1330 59 908 361 msg 0;
#X obj 19 23 r \$0-snd-click;
#X obj 154 24 r \$0-snd-click-decay;
#X obj 317 26 r \$0-snd-click-bend;
#X obj 19 91 + 1;
#X obj 19 113 outlet;
#X obj 154 110 + 1;
#X obj 154 136 outlet;
#X obj 317 48 / 127;
#X obj 317 70 * 0.5;
#X obj 317 92 + 1;
#X obj 317 114 outlet;
#X obj 19 69 * 499;
#X obj 19 46 expr pow($f1/127 \, 2);
#X obj 154 45 expr pow($f1/127 \, 2);
#X obj 154 88 * 499;
#X connect 0 0 12 0;
#X connect 1 0 13 0;
#X connect 2 0 7 0;
#X connect 3 0 4 0;
#X connect 5 0 6 0;
#X connect 7 0 8 0;
#X connect 8 0 9 0;
#X connect 9 0 10 0;
#X connect 11 0 3 0;
#X connect 12 0 11 0;
#X connect 13 0 14 0;
#X connect 14 0 5 0;
#X restore 199 65 pd msg;
#X obj 356 159 nbx 3 14 0 127 0 1 \$0-snd-vel \$0-rcv-vel vel 39 7
0 10 -162280 -1 -262144 127 256;
#X obj 356 176 nbx 3 14 0 127 0 1 \$0-snd-rel \$0-rcv-rel release 39
7 0 10 -162280 -1 -262144 56 256;
#X obj 356 193 nbx 3 14 0 127 0 1 \$0-snd-dist \$0-rcv-dist dist 39
7 0 10 -162280 -1 -262144 8 256;
#X obj 30 69 r \$0-snd-vel;
#X obj 30 93 / 127;
#X obj 49 121 r \$0-snd-rel;
#N canvas 1367 523 450 300 expr 0;
#X obj 37 37 inlet;
#X obj 37 59 / 127;
#X obj 37 81 * 1500;
#X obj 37 103 + 50;
#X obj 37 125 outlet;
#X connect 0 0 1 0;
#X connect 1 0 2 0;
#X connect 2 0 3 0;
#X connect 3 0 4 0;
#X restore 49 143 pd expr;
#X obj 15 342 expr~ tanh($v1*$v2);
#X obj 139 320 r \$0-snd-dist;
#N canvas 0 50 391 402 expr 0;
#X obj 37 37 inlet;
#X obj 37 59 / 127;
#X obj 37 81 * 16;
#X obj 37 103 + 1;
#X obj 37 125 pack 0 50;
#X obj 37 147 line~;
#X obj 37 169 outlet~;
#X connect 0 0 1 0;
#X connect 1 0 2 0;
#X connect 2 0 3 0;
#X connect 3 0 4 0;
#X connect 4 0 5 0;
#X connect 5 0 6 0;
#X restore 139 342 pd expr;
#X connect 0 0 1 0;
#X connect 1 0 16 0;
#X connect 2 0 37 0;
#X connect 3 0 4 0;
#X connect 4 0 10 0;
#X connect 5 0 12 0;
#X connect 6 0 17 0;
#X connect 7 0 19 0;
#X connect 7 1 23 0;
#X connect 7 2 14 0;
#X connect 8 0 5 1;
#X connect 9 0 0 0;
#X connect 10 0 5 0;
#X connect 11 0 3 0;
#X connect 12 0 13 0;
#X connect 13 0 2 1;
#X connect 14 0 8 0;
#X connect 14 0 12 1;
#X connect 15 0 2 0;
#X connect 16 0 15 0;
#X connect 18 0 7 0;
#X connect 19 0 9 0;
#X connect 23 0 11 0;
#X connect 27 0 28 0;
#X connect 28 0 10 1;
#X connect 29 0 23 1;
#X connect 29 1 11 1;
#X connect 29 2 27 0;
#X connect 33 0 34 0;
#X connect 34 0 19 1;
#X connect 35 0 36 0;
#X connect 36 0 9 1;
#X connect 37 0 6 0;
#X connect 38 0 39 0;
#X connect 39 0 37 1;
#X coords 0 -1 1 1 95 180 2 350 35;
