#N canvas 1396 80 902 829 10;
#X listbox 308 58 20 0 0 0 - \$0-rcv-lb_env \$0-snd-lb_env 0;
#X obj 308 36 nbx 4 15 0 50 0 0 \$0-snd-nb_ratio \$0-rcv-nb_ratio Ratio
0 -7 0 9 #7c7c7c #00ff04 #ffffff 0 256;
#X obj 358 36 hsl 70 15 0 127 0 0 \$0-snd-hsld_lvl \$0-rcv-hsld_lvl
Level:100 24 -7 0 9 #7c7c7c #00ff04 #ffffff 0 1;
#X obj 282 24 cnv 8 22 52 \$0-cnv-bg \$0-rcv-bg empty 0 12 0 14 #000000
#404040 0;
#X obj 282 27 cnv 10 1 1 \$0-cnv-letter0 \$0-rcv-letter0 O 2 6 0 15
#000000 #d8fcfc 0;
#X obj 287 46 cnv 10 1 1 \$0-cnv-letter1 \$0-rcv-letter1 P 2 6 0 15
#000000 #d8fcfc 0;
#X obj 292 63 cnv 10 1 1 \$0-cnv-letter2 \$0-rcv-letter2 1 2 6 0 15
#000000 #d8fcfc 0;
#N canvas 64 64 763 751 loadbang 0;
#X obj 4 8 loadbang;
#X obj 4 115 s \$0-rcv-bg;
#X obj 4 30 random 30;
#X msg 4 78 color \$1 \$1;
#X obj 87 217 s \$0-rcv-letter0;
#X obj 87 240 s \$0-rcv-letter1;
#X obj 87 262 s \$0-rcv-letter2;
#X obj 144 97 -;
#X obj 87 58 t f f;
#X obj 87 137 pack f f f;
#X msg 87 176 color \$1 \$2 \$3;
#X msg 144 75 29 \$1;
#X obj 228 16 loadbang;
#X msg 228 84 5 250 50 1000;
#X msg 236 38 1;
#X obj 226 155 / 127;
#X obj 226 177 * 100;
#X obj 226 199 int;
#X msg 226 221 label Level:\$1;
#X obj 237 247 loadbang;
#X msg 237 269 127;
#X obj 236 60 s \$0-rcv-nb_ratio;
#X obj 228 106 s \$0-rcv-lb_env;
#X obj 226 293 s \$0-rcv-hsld_lvl;
#X obj 226 133 r \$0-snd-hsld_lvl;
#X connect 0 0 2 0;
#X connect 2 0 3 0;
#X connect 2 0 8 0;
#X connect 3 0 1 0;
#X connect 7 0 9 2;
#X connect 8 0 9 0;
#X connect 8 1 11 0;
#X connect 9 0 10 0;
#X connect 10 0 4 0;
#X connect 10 0 5 0;
#X connect 10 0 6 0;
#X connect 11 0 7 0;
#X connect 12 0 13 0;
#X connect 12 0 14 0;
#X connect 13 0 22 0;
#X connect 14 0 21 0;
#X connect 15 0 16 0;
#X connect 16 0 17 0;
#X connect 17 0 18 0;
#X connect 18 0 23 0;
#X connect 19 0 20 0;
#X connect 20 0 23 0;
#X connect 24 0 15 0;
#X restore 366 124 pd loadbang;
#X obj 33 174 inlet~;
#X obj 18 198 +~;
#X obj 18 220 cos~;
#X obj 18 242 *~;
#X obj 18 359 *~;
#X obj 18 381 outlet~;
#X obj 18 150 phasor~;
#X obj 18 125 * 1;
#X obj 87 110 t f f;
#X obj 87 132 > 0;
#X obj 114 132 / 127;
#X obj 87 225 pow~ 2;
#X obj 18 42 unpack, f 12;
#X obj 163 12 inlet;
#X obj 18 64 mtof;
#X obj 163 35 s \$0-midi;
#X obj 18 19 r \$0-midi;
#X obj 141 179 unpack f f f f;
#X obj 33 312 pack 0 50;
#X obj 33 334 line~;
#X obj 87 203 adsr 1 5 250 50 1000, f 23;
#X obj 33 290 / 127;
#X obj 33 85 r \$0-snd-nb_ratio;
#X obj 33 268 r \$0-snd-hsld_lvl;
#X obj 141 157 r \$0-snd-lb_env;
#X connect 8 0 9 1;
#X connect 9 0 10 0;
#X connect 10 0 11 0;
#X connect 11 0 12 0;
#X connect 12 0 13 0;
#X connect 14 0 9 0;
#X connect 15 0 14 0;
#X connect 16 0 17 0;
#X connect 16 1 18 0;
#X connect 17 0 28 0;
#X connect 18 0 28 1;
#X connect 19 0 11 1;
#X connect 20 0 22 0;
#X connect 20 1 16 0;
#X connect 21 0 23 0;
#X connect 22 0 15 0;
#X connect 24 0 20 0;
#X connect 25 0 28 2;
#X connect 25 1 28 3;
#X connect 25 2 28 4;
#X connect 25 3 28 5;
#X connect 26 0 27 0;
#X connect 27 0 12 1;
#X connect 28 0 19 0;
#X connect 29 0 26 0;
#X connect 30 0 15 1;
#X connect 31 0 29 0;
#X connect 32 0 25 0;
#X coords 0 -1 1 1 155 60 2 280 20;
