#N canvas 976 98 623 829 10;
#N canvas 64 64 454 453 loadbang 0;
#X obj 25 16 loadbang;
#X msg 33 108 1;
#X obj 25 176 s \$0-env;
#X msg 25 154 5 100 75 1000;
#X obj 33 130 s \$0-ratio;
#X msg 49 56 127;
#X obj 49 78 s \$0-level;
#X connect 0 0 3 0;
#X connect 0 0 1 0;
#X connect 0 0 5 0;
#X connect 1 0 4 0;
#X connect 3 0 2 0;
#X connect 5 0 6 0;
#X restore 135 19 pd loadbang;
#X obj 18 198 +~;
#X obj 18 220 cos~;
#X obj 18 242 *~;
#X obj 18 359 *~;
#X obj 18 381 outlet~;
#X obj 18 150 phasor~;
#X obj 18 125 * 1;
#X obj 87 110 t f f;
#X obj 87 132 > 0;
#X obj 114 132 / 127;
#X obj 87 225 pow~ 2;
#X obj 18 42 unpack, f 12;
#X obj 18 64 mtof;
#X obj 141 179 unpack f f f f;
#X obj 33 312 pack 0 50;
#X obj 33 334 line~;
#X obj 87 203 adsr 1 5 250 50 1000, f 23;
#X obj 33 290 / 127;
#X obj 18 19 r fmop;
#X obj 33 174 inlet~ fm;
#X obj 160 236 inlet ratio;
#X obj 169 260 inlet level;
#X obj 33 85 r \$0-ratio;
#X obj 33 268 r \$0-level;
#X obj 178 283 inlet att;
#X obj 187 308 inlet dec;
#X obj 196 332 inlet sus;
#X obj 205 354 inlet rel;
#X obj 141 157 r \$0-env;
#N canvas 273 205 1053 444 args 0;
#X obj 15 26 inlet;
#X obj 98 28 inlet;
#X obj 201 31 inlet;
#X obj 272 31 inlet;
#X obj 201 159 pack f f f f, f 26;
#X obj 201 185 s \$0-env;
#X obj 272 115 t b f;
#X obj 349 30 inlet;
#X obj 349 114 t b f;
#X obj 425 31 inlet;
#X obj 425 115 t b f;
#X obj 35 61 loadbang;
#X obj 15 93 f \$1;
#X obj 15 115 s \$0-ratio;
#X obj 118 61 loadbang;
#X obj 98 93 f \$2;
#X obj 98 115 s \$0-level;
#X obj 211 64 loadbang;
#X obj 281 60 loadbang;
#X obj 363 58 loadbang;
#X obj 441 57 loadbang;
#X obj 201 90 f \$3;
#X obj 272 85 f \$4;
#X obj 349 82 f \$5;
#X obj 425 83 f \$6;
#X connect 0 0 12 0;
#X connect 1 0 15 0;
#X connect 2 0 21 0;
#X connect 3 0 22 0;
#X connect 4 0 5 0;
#X connect 6 0 4 0;
#X connect 6 1 4 1;
#X connect 7 0 23 0;
#X connect 8 0 4 0;
#X connect 8 1 4 2;
#X connect 9 0 24 0;
#X connect 10 0 4 0;
#X connect 10 1 4 3;
#X connect 11 0 12 0;
#X connect 12 0 13 0;
#X connect 14 0 15 0;
#X connect 15 0 16 0;
#X connect 17 0 21 0;
#X connect 18 0 22 0;
#X connect 19 0 23 0;
#X connect 20 0 24 0;
#X connect 21 0 4 0;
#X connect 22 0 6 0;
#X connect 23 0 8 0;
#X connect 24 0 10 0;
#X restore 160 380 pd args;
#X f 8;
#X connect 1 0 2 0;
#X connect 2 0 3 0;
#X connect 3 0 4 0;
#X connect 4 0 5 0;
#X connect 6 0 1 0;
#X connect 7 0 6 0;
#X connect 8 0 9 0;
#X connect 8 1 10 0;
#X connect 9 0 17 0;
#X connect 10 0 17 1;
#X connect 11 0 3 1;
#X connect 12 0 13 0;
#X connect 12 1 8 0;
#X connect 13 0 7 0;
#X connect 14 0 17 2;
#X connect 14 1 17 3;
#X connect 14 2 17 4;
#X connect 14 3 17 5;
#X connect 15 0 16 0;
#X connect 16 0 4 1;
#X connect 17 0 11 0;
#X connect 18 0 15 0;
#X connect 19 0 12 0;
#X connect 20 0 1 1;
#X connect 21 0 30 0;
#X connect 22 0 30 1;
#X connect 23 0 7 1;
#X connect 24 0 18 0;
#X connect 25 0 30 2;
#X connect 26 0 30 3;
#X connect 27 0 30 4;
#X connect 28 0 30 5;
#X connect 29 0 14 0;
#X coords 0 414.5 1 413.5 155 60 0;
