#N canvas 186 124 817 763 10;
#X obj 34 52 tgl 15 0 \$0-tgl-out1 \$0-tgl-in1 empty 17 7 0 10 -66578
-44926 -4032 0 1;
#N canvas 2 31 1924 985 tgl-color 0;
#X obj 35 97 sel 1 0;
#X msg 35 133 color 17 17;
#X obj 35 75 r \$0-tgl-out1;
#X obj 35 199 s \$0-tgl-in1;
#X msg 54 159 color #404047 17;
#X obj 131 47 sel 0;
#X obj 132 116 spigot;
#X obj 165 92 == 0;
#X obj 192 116 spigot;
#X obj 225 92 == 1;
#X obj 31 393 sel 1 0;
#X msg 31 429 color 17 17;
#X msg 50 455 color #404047 17;
#X obj 128 412 spigot;
#X obj 161 388 == 0;
#X obj 188 412 spigot;
#X obj 221 388 == 1;
#X obj 31 371 r \$0-tgl-out5;
#X obj 31 495 s \$0-tgl-in5;
#X obj 127 343 sel 4;
#X obj 40 681 sel 1 0;
#X msg 40 717 color 17 17;
#X msg 59 743 color #404047 17;
#X obj 137 700 spigot;
#X obj 170 676 == 0;
#X obj 197 700 spigot;
#X obj 230 676 == 1;
#X obj 36 1007 sel 1 0;
#X msg 36 1043 color 17 17;
#X msg 55 1069 color #404047 17;
#X obj 133 1026 spigot;
#X obj 166 1002 == 0;
#X obj 193 1026 spigot;
#X obj 226 1002 == 1;
#X obj 40 659 r \$0-tgl-out9;
#X obj 40 783 s \$0-tgl-in9;
#X obj 136 631 sel 8;
#X obj 132 957 sel 12;
#X obj 36 985 r \$0-tgl-out13;
#X obj 36 1109 s \$0-tgl-in13;
#X obj 288 95 sel 1 0;
#X msg 288 131 color 17 17;
#X obj 385 114 spigot;
#X obj 418 90 == 0;
#X obj 445 114 spigot;
#X obj 478 90 == 1;
#X obj 288 73 r \$0-tgl-out2;
#X obj 288 197 s \$0-tgl-in2;
#X obj 384 45 sel 1;
#X msg 307 157 color #70707D 17;
#X obj 552 96 sel 1 0;
#X msg 552 132 color 17 17;
#X obj 649 115 spigot;
#X obj 682 91 == 0;
#X obj 709 115 spigot;
#X obj 742 91 == 1;
#X msg 571 158 color #70707D 17;
#X obj 814 94 sel 1 0;
#X msg 814 130 color 17 17;
#X obj 911 113 spigot;
#X obj 944 89 == 0;
#X obj 971 113 spigot;
#X obj 1004 89 == 1;
#X msg 833 156 color #70707D 17;
#X obj 552 74 r \$0-tgl-out3;
#X obj 552 198 s \$0-tgl-in3;
#X obj 648 46 sel 2;
#X obj 910 44 sel 3;
#X obj 294 388 sel 1 0;
#X msg 294 424 color 17 17;
#X obj 391 407 spigot;
#X obj 424 383 == 0;
#X obj 451 407 spigot;
#X obj 484 383 == 1;
#X msg 313 450 color #70707D 17;
#X obj 558 389 sel 1 0;
#X msg 558 425 color 17 17;
#X obj 655 408 spigot;
#X obj 688 384 == 0;
#X obj 715 408 spigot;
#X obj 748 384 == 1;
#X msg 577 451 color #70707D 17;
#X obj 820 387 sel 1 0;
#X msg 820 423 color 17 17;
#X obj 917 406 spigot;
#X obj 950 382 == 0;
#X obj 977 406 spigot;
#X obj 1010 382 == 1;
#X msg 839 449 color #70707D 17;
#X obj 390 338 sel 5;
#X obj 654 339 sel 6;
#X obj 916 337 sel 7;
#X obj 294 366 r \$0-tgl-out6;
#X obj 294 490 s \$0-tgl-in6;
#X obj 558 367 r \$0-tgl-out7;
#X obj 558 491 s \$0-tgl-in7;
#X obj 821 365 r \$0-tgl-out8;
#X obj 820 489 s \$0-tgl-in8;
#X obj 289 679 sel 1 0;
#X msg 289 715 color 17 17;
#X obj 386 698 spigot;
#X obj 419 674 == 0;
#X obj 446 698 spigot;
#X obj 479 674 == 1;
#X msg 308 741 color #70707D 17;
#X obj 553 680 sel 1 0;
#X msg 553 716 color 17 17;
#X obj 650 699 spigot;
#X obj 683 675 == 0;
#X obj 710 699 spigot;
#X obj 743 675 == 1;
#X msg 572 742 color #70707D 17;
#X obj 815 678 sel 1 0;
#X msg 815 714 color 17 17;
#X obj 912 697 spigot;
#X obj 945 673 == 0;
#X obj 972 697 spigot;
#X obj 1005 673 == 1;
#X msg 834 740 color #70707D 17;
#X obj 295 1002 sel 1 0;
#X msg 295 1038 color 17 17;
#X obj 392 1021 spigot;
#X obj 425 997 == 0;
#X obj 452 1021 spigot;
#X obj 485 997 == 1;
#X msg 314 1064 color #70707D 17;
#X obj 559 1003 sel 1 0;
#X msg 559 1039 color 17 17;
#X obj 656 1022 spigot;
#X obj 689 998 == 0;
#X obj 716 1022 spigot;
#X obj 749 998 == 1;
#X msg 578 1065 color #70707D 17;
#X obj 821 1001 sel 1 0;
#X msg 821 1037 color 17 17;
#X obj 918 1020 spigot;
#X obj 951 996 == 0;
#X obj 978 1020 spigot;
#X obj 1011 996 == 1;
#X msg 840 1063 color #70707D 17;
#X obj 385 629 sel 9;
#X obj 649 630 sel 10;
#X obj 911 628 sel 11;
#X obj 289 657 r \$0-tgl-out10;
#X obj 289 781 s \$0-tgl-in10;
#X obj 553 658 r \$0-tgl-out11;
#X obj 553 782 s \$0-tgl-in11;
#X obj 816 656 r \$0-tgl-out12;
#X obj 815 780 s \$0-tgl-in12;
#X obj 391 952 sel 13;
#X obj 655 953 sel 14;
#X obj 917 951 sel 15;
#X obj 295 980 r \$0-tgl-out14;
#X obj 295 1104 s \$0-tgl-in14;
#X obj 559 981 r \$0-tgl-out15;
#X obj 559 1105 s \$0-tgl-in15;
#X obj 822 979 r \$0-tgl-out16;
#X obj 821 1103 s \$0-tgl-in16;
#X obj 815 72 r \$0-tgl-out4;
#X obj 814 196 s \$0-tgl-in4;
#X obj 192 64 del 80;
#X obj 445 62 del 80;
#X obj 709 63 del 80;
#X obj 971 61 del 80;
#X obj 188 360 del 80;
#X obj 451 355 del 80;
#X obj 715 356 del 80;
#X obj 977 354 del 80;
#X obj 197 648 del 80;
#X obj 446 646 del 80;
#X obj 710 647 del 80;
#X obj 972 645 del 80;
#X obj 193 974 del 80;
#X obj 452 969 del 80;
#X obj 716 970 del 80;
#X obj 978 968 del 80;
#X msg 36 246 0;
#X msg 287 245 0;
#X msg 554 247 0;
#X msg 811 243 0;
#X msg 39 538 0;
#X msg 290 537 0;
#X msg 557 539 0;
#X msg 814 535 0;
#X msg 37 830 0;
#X msg 288 829 0;
#X msg 555 831 0;
#X msg 812 827 0;
#X msg 36 1159 0;
#X msg 287 1158 0;
#X msg 554 1160 0;
#X msg 811 1156 0;
#X msg 131 182 color #8fb094 #8fb094;
#X msg 385 180 color #8fb094 #8fb094;
#X msg 648 181 color #8fb094 #8fb094;
#X msg 910 179 color #8fb094 #8fb094;
#X msg 127 478 color #8fb094 #8fb094;
#X msg 390 473 color #8fb094 #8fb094;
#X msg 654 474 color #8fb094 #8fb094;
#X msg 916 472 color #8fb094 #8fb094;
#X msg 136 766 color #8fb094 #8fb094;
#X msg 385 764 color #8fb094 #8fb094;
#X msg 649 765 color #8fb094 #8fb094;
#X msg 911 763 color #8fb094 #8fb094;
#X msg 132 1092 color #8fb094 #8fb094;
#X msg 391 1087 color #8fb094 #8fb094;
#X msg 655 1088 color #8fb094 #8fb094;
#X msg 917 1086 color #8fb094 #8fb094;
#X obj 131 25 r \$0-steps;
#X obj 384 23 r \$0-steps;
#X obj 648 24 r \$0-steps;
#X obj 910 22 r \$0-steps;
#X obj 127 321 r \$0-steps;
#X obj 390 316 r \$0-steps;
#X obj 654 317 r \$0-steps;
#X obj 916 315 r \$0-steps;
#X obj 136 609 r \$0-steps;
#X obj 385 607 r \$0-steps;
#X obj 649 608 r \$0-steps;
#X obj 911 606 r \$0-steps;
#X obj 132 935 r \$0-steps;
#X obj 391 930 r \$0-steps;
#X obj 655 931 r \$0-steps;
#X obj 917 929 r \$0-steps;
#X obj 36 224 r \$0-tgl-clear;
#X obj 287 223 r \$0-tgl-clear;
#X obj 554 225 r \$0-tgl-clear;
#X obj 811 221 r \$0-tgl-clear;
#X obj 39 516 r \$0-tgl-clear;
#X obj 290 515 r \$0-tgl-clear;
#X obj 557 517 r \$0-tgl-clear;
#X obj 814 513 r \$0-tgl-clear;
#X obj 37 808 r \$0-tgl-clear;
#X obj 288 807 r \$0-tgl-clear;
#X obj 555 809 r \$0-tgl-clear;
#X obj 812 805 r \$0-tgl-clear;
#X obj 36 1137 r \$0-tgl-clear;
#X obj 287 1136 r \$0-tgl-clear;
#X obj 554 1138 r \$0-tgl-clear;
#X obj 811 1134 r \$0-tgl-clear;
#X text 199 24 GRID CURSOR;
#X text 8 1 TGL COLOR CHANGE;
#X obj 130 209 r \$0-tgl-tab-page0;
#X obj 391 213 r \$0-tgl-tab-page1;
#X obj 653 209 r \$0-tgl-tab-page2;
#X obj 907 204 r \$0-tgl-tab-page3;
#X obj 139 504 r \$0-tgl-tab-page4;
#X obj 386 501 r \$0-tgl-tab-page5;
#X obj 654 503 r \$0-tgl-tab-page6;
#X obj 913 500 r \$0-tgl-tab-page7;
#X obj 136 795 r \$0-tgl-tab-page8;
#X obj 392 792 r \$0-tgl-tab-page9;
#X obj 654 792 r \$0-tgl-tab-page10;
#X obj 913 790 r \$0-tgl-tab-page11;
#X obj 137 1123 r \$0-tgl-tab-page12;
#X obj 388 1123 r \$0-tgl-tab-page13;
#X obj 654 1118 r \$0-tgl-tab-page14;
#X obj 918 1122 r \$0-tgl-tab-page15;
#X text 175 164 GRID CURSOR COLOR;
#X text 10 116 STEP ON COLOR;
#X text 110 142 STEP OFF COLOR;
#X connect 0 0 1 0;
#X connect 0 1 4 0;
#X connect 1 0 3 0;
#X connect 2 0 0 0;
#X connect 2 0 7 0;
#X connect 2 0 9 0;
#X connect 4 0 3 0;
#X connect 5 0 192 0;
#X connect 5 0 160 0;
#X connect 6 0 4 0;
#X connect 7 0 6 1;
#X connect 8 0 1 0;
#X connect 9 0 8 1;
#X connect 10 0 11 0;
#X connect 10 1 12 0;
#X connect 11 0 18 0;
#X connect 12 0 18 0;
#X connect 13 0 12 0;
#X connect 14 0 13 1;
#X connect 15 0 11 0;
#X connect 16 0 15 1;
#X connect 17 0 10 0;
#X connect 17 0 14 0;
#X connect 17 0 16 0;
#X connect 19 0 196 0;
#X connect 19 0 164 0;
#X connect 20 0 21 0;
#X connect 20 1 22 0;
#X connect 21 0 35 0;
#X connect 22 0 35 0;
#X connect 23 0 22 0;
#X connect 24 0 23 1;
#X connect 25 0 21 0;
#X connect 26 0 25 1;
#X connect 27 0 28 0;
#X connect 27 1 29 0;
#X connect 28 0 39 0;
#X connect 29 0 39 0;
#X connect 30 0 29 0;
#X connect 31 0 30 1;
#X connect 32 0 28 0;
#X connect 33 0 32 1;
#X connect 34 0 20 0;
#X connect 34 0 24 0;
#X connect 34 0 26 0;
#X connect 36 0 200 0;
#X connect 36 0 168 0;
#X connect 37 0 204 0;
#X connect 37 0 172 0;
#X connect 38 0 27 0;
#X connect 38 0 31 0;
#X connect 38 0 33 0;
#X connect 40 0 41 0;
#X connect 40 1 49 0;
#X connect 41 0 47 0;
#X connect 42 0 49 0;
#X connect 43 0 42 1;
#X connect 44 0 41 0;
#X connect 45 0 44 1;
#X connect 46 0 40 0;
#X connect 46 0 43 0;
#X connect 46 0 45 0;
#X connect 48 0 193 0;
#X connect 48 0 161 0;
#X connect 49 0 47 0;
#X connect 50 0 51 0;
#X connect 50 1 56 0;
#X connect 51 0 65 0;
#X connect 52 0 56 0;
#X connect 53 0 52 1;
#X connect 54 0 51 0;
#X connect 55 0 54 1;
#X connect 56 0 65 0;
#X connect 57 0 58 0;
#X connect 57 1 63 0;
#X connect 58 0 159 0;
#X connect 59 0 63 0;
#X connect 60 0 59 1;
#X connect 61 0 58 0;
#X connect 62 0 61 1;
#X connect 63 0 159 0;
#X connect 64 0 50 0;
#X connect 64 0 53 0;
#X connect 64 0 55 0;
#X connect 66 0 194 0;
#X connect 66 0 162 0;
#X connect 67 0 195 0;
#X connect 67 0 163 0;
#X connect 68 0 69 0;
#X connect 68 1 74 0;
#X connect 69 0 93 0;
#X connect 70 0 74 0;
#X connect 71 0 70 1;
#X connect 72 0 69 0;
#X connect 73 0 72 1;
#X connect 74 0 93 0;
#X connect 75 0 76 0;
#X connect 75 1 81 0;
#X connect 76 0 95 0;
#X connect 77 0 81 0;
#X connect 78 0 77 1;
#X connect 79 0 76 0;
#X connect 80 0 79 1;
#X connect 81 0 95 0;
#X connect 82 0 83 0;
#X connect 82 1 88 0;
#X connect 83 0 97 0;
#X connect 84 0 88 0;
#X connect 85 0 84 1;
#X connect 86 0 83 0;
#X connect 87 0 86 1;
#X connect 88 0 97 0;
#X connect 89 0 197 0;
#X connect 89 0 165 0;
#X connect 90 0 198 0;
#X connect 90 0 166 0;
#X connect 91 0 199 0;
#X connect 91 0 167 0;
#X connect 92 0 68 0;
#X connect 92 0 71 0;
#X connect 92 0 73 0;
#X connect 94 0 75 0;
#X connect 94 0 78 0;
#X connect 94 0 80 0;
#X connect 96 0 82 0;
#X connect 96 0 85 0;
#X connect 96 0 87 0;
#X connect 98 0 99 0;
#X connect 98 1 104 0;
#X connect 99 0 144 0;
#X connect 100 0 104 0;
#X connect 101 0 100 1;
#X connect 102 0 99 0;
#X connect 103 0 102 1;
#X connect 104 0 144 0;
#X connect 105 0 106 0;
#X connect 105 1 111 0;
#X connect 106 0 146 0;
#X connect 107 0 111 0;
#X connect 108 0 107 1;
#X connect 109 0 106 0;
#X connect 110 0 109 1;
#X connect 111 0 146 0;
#X connect 112 0 113 0;
#X connect 112 1 118 0;
#X connect 113 0 148 0;
#X connect 114 0 118 0;
#X connect 115 0 114 1;
#X connect 116 0 113 0;
#X connect 117 0 116 1;
#X connect 118 0 148 0;
#X connect 119 0 120 0;
#X connect 119 1 125 0;
#X connect 120 0 153 0;
#X connect 121 0 125 0;
#X connect 122 0 121 1;
#X connect 123 0 120 0;
#X connect 124 0 123 1;
#X connect 125 0 153 0;
#X connect 126 0 127 0;
#X connect 126 1 132 0;
#X connect 127 0 155 0;
#X connect 128 0 132 0;
#X connect 129 0 128 1;
#X connect 130 0 127 0;
#X connect 131 0 130 1;
#X connect 132 0 155 0;
#X connect 133 0 134 0;
#X connect 133 1 139 0;
#X connect 134 0 157 0;
#X connect 135 0 139 0;
#X connect 136 0 135 1;
#X connect 137 0 134 0;
#X connect 138 0 137 1;
#X connect 139 0 157 0;
#X connect 140 0 201 0;
#X connect 140 0 169 0;
#X connect 141 0 202 0;
#X connect 141 0 170 0;
#X connect 142 0 203 0;
#X connect 142 0 171 0;
#X connect 143 0 98 0;
#X connect 143 0 101 0;
#X connect 143 0 103 0;
#X connect 145 0 105 0;
#X connect 145 0 108 0;
#X connect 145 0 110 0;
#X connect 147 0 112 0;
#X connect 147 0 115 0;
#X connect 147 0 117 0;
#X connect 149 0 205 0;
#X connect 149 0 173 0;
#X connect 150 0 206 0;
#X connect 150 0 174 0;
#X connect 151 0 207 0;
#X connect 151 0 175 0;
#X connect 152 0 119 0;
#X connect 152 0 122 0;
#X connect 152 0 124 0;
#X connect 154 0 126 0;
#X connect 154 0 129 0;
#X connect 154 0 131 0;
#X connect 156 0 133 0;
#X connect 156 0 136 0;
#X connect 156 0 138 0;
#X connect 158 0 57 0;
#X connect 158 0 60 0;
#X connect 158 0 62 0;
#X connect 160 0 6 0;
#X connect 160 0 8 0;
#X connect 161 0 42 0;
#X connect 161 0 44 0;
#X connect 162 0 52 0;
#X connect 162 0 54 0;
#X connect 163 0 59 0;
#X connect 163 0 61 0;
#X connect 164 0 13 0;
#X connect 164 0 15 0;
#X connect 165 0 70 0;
#X connect 165 0 72 0;
#X connect 166 0 77 0;
#X connect 166 0 79 0;
#X connect 167 0 84 0;
#X connect 167 0 86 0;
#X connect 168 0 23 0;
#X connect 168 0 25 0;
#X connect 169 0 100 0;
#X connect 169 0 102 0;
#X connect 170 0 107 0;
#X connect 170 0 109 0;
#X connect 171 0 114 0;
#X connect 171 0 116 0;
#X connect 172 0 30 0;
#X connect 172 0 32 0;
#X connect 173 0 121 0;
#X connect 173 0 123 0;
#X connect 174 0 128 0;
#X connect 174 0 130 0;
#X connect 175 0 135 0;
#X connect 175 0 137 0;
#X connect 176 0 3 0;
#X connect 177 0 47 0;
#X connect 178 0 65 0;
#X connect 179 0 159 0;
#X connect 180 0 18 0;
#X connect 181 0 93 0;
#X connect 182 0 95 0;
#X connect 183 0 97 0;
#X connect 184 0 35 0;
#X connect 185 0 144 0;
#X connect 186 0 146 0;
#X connect 187 0 148 0;
#X connect 188 0 39 0;
#X connect 189 0 153 0;
#X connect 190 0 155 0;
#X connect 191 0 157 0;
#X connect 192 0 3 0;
#X connect 193 0 47 0;
#X connect 194 0 65 0;
#X connect 195 0 159 0;
#X connect 196 0 18 0;
#X connect 197 0 93 0;
#X connect 198 0 95 0;
#X connect 199 0 97 0;
#X connect 200 0 35 0;
#X connect 201 0 144 0;
#X connect 202 0 146 0;
#X connect 203 0 148 0;
#X connect 204 0 39 0;
#X connect 205 0 153 0;
#X connect 206 0 155 0;
#X connect 207 0 157 0;
#X connect 208 0 5 0;
#X connect 209 0 48 0;
#X connect 210 0 66 0;
#X connect 211 0 67 0;
#X connect 212 0 19 0;
#X connect 213 0 89 0;
#X connect 214 0 90 0;
#X connect 215 0 91 0;
#X connect 216 0 36 0;
#X connect 217 0 140 0;
#X connect 218 0 141 0;
#X connect 219 0 142 0;
#X connect 220 0 37 0;
#X connect 221 0 149 0;
#X connect 222 0 150 0;
#X connect 223 0 151 0;
#X connect 224 0 176 0;
#X connect 225 0 177 0;
#X connect 226 0 178 0;
#X connect 227 0 179 0;
#X connect 228 0 180 0;
#X connect 229 0 181 0;
#X connect 230 0 182 0;
#X connect 231 0 183 0;
#X connect 232 0 184 0;
#X connect 233 0 185 0;
#X connect 234 0 186 0;
#X connect 235 0 187 0;
#X connect 236 0 188 0;
#X connect 237 0 189 0;
#X connect 238 0 190 0;
#X connect 239 0 191 0;
#X connect 242 0 3 0;
#X connect 243 0 47 0;
#X connect 244 0 65 0;
#X connect 245 0 159 0;
#X connect 246 0 18 0;
#X connect 247 0 93 0;
#X connect 248 0 95 0;
#X connect 249 0 97 0;
#X connect 250 0 35 0;
#X connect 251 0 144 0;
#X connect 252 0 146 0;
#X connect 253 0 148 0;
#X connect 254 0 39 0;
#X connect 255 0 153 0;
#X connect 256 0 155 0;
#X connect 257 0 157 0;
#X restore 282 213 pd tgl-color;
#X obj 51 52 tgl 15 0 \$0-tgl-out2 \$0-tgl-in2 empty 17 7 0 10 -116512
-44926 -4032 0 1;
#X obj 68 52 tgl 15 0 \$0-tgl-out3 \$0-tgl-in3 empty 17 7 0 10 -116512
-44926 -4032 0 1;
#X obj 85 52 tgl 15 0 \$0-tgl-out4 \$0-tgl-in4 empty 17 7 0 10 -146214
-146214 -4032 0 1;
#X obj 102 52 tgl 15 0 \$0-tgl-out5 \$0-tgl-in5 empty 17 7 0 10 -66578
-44926 -4032 0 1;
#X obj 119 52 tgl 15 0 \$0-tgl-out6 \$0-tgl-in6 empty 17 7 0 10 -116512
-44926 -4032 0 1;
#X obj 136 52 tgl 15 0 \$0-tgl-out7 \$0-tgl-in7 empty 17 7 0 10 -116512
-44926 -4032 0 1;
#X obj 153 52 tgl 15 0 \$0-tgl-out8 \$0-tgl-in8 empty 17 7 0 10 -116512
-44926 -4032 0 1;
#X obj 34 69 tgl 15 0 \$0-tgl-out9 \$0-tgl-in9 empty 17 7 0 10 -66578
-44926 -4032 0 1;
#X obj 51 69 tgl 15 0 \$0-tgl-out10 \$0-tgl-in10 empty 17 7 0 10 -116512
-44926 -4032 0 1;
#X obj 68 69 tgl 15 0 \$0-tgl-out11 \$0-tgl-in11 empty 17 7 0 10 -116512
-44926 -4032 0 1;
#X obj 85 69 tgl 15 0 \$0-tgl-out12 \$0-tgl-in12 empty 17 7 0 10 -116512
-44926 -4032 0 1;
#X obj 102 69 tgl 15 0 \$0-tgl-out13 \$0-tgl-in13 empty 17 7 0 10 -66578
-44926 -4032 0 1;
#X obj 119 69 tgl 15 0 \$0-tgl-out14 \$0-tgl-in14 empty 17 7 0 10 -116512
-44926 -4032 0 1;
#X obj 136 69 tgl 15 0 \$0-tgl-out15 \$0-tgl-in15 empty 17 7 0 10 -116512
-44926 -4032 0 1;
#X obj 153 69 tgl 15 0 \$0-tgl-out16 \$0-tgl-in16 empty 17 7 0 10 -116512
-44926 -4032 0 1;
#X obj 24 205 outlet;
#X obj 24 112 inlet;
#N canvas 358 241 685 373 route 0;
#X obj 35 153 s \$0-tgl-clear;
#X obj 35 24 loadbang;
#X obj 93 72 t b;
#X obj 93 25 inlet;
#N canvas 76 108 1739 849 random-pattern 0;
#X obj 57 118 random 3;
#X msg 57 162 0;
#X msg 76 186 1;
#X obj 57 210 s \$0-tgl-in1;
#X obj 57 44 inlet;
#X obj 57 66 t b;
#X obj 156 117 random 3;
#X obj 156 139 sel 0 1;
#X msg 156 161 0;
#X msg 176 185 1;
#X obj 258 116 random 3;
#X msg 258 160 0;
#X msg 278 184 1;
#X obj 357 115 random 3;
#X obj 357 137 sel 0 1;
#X msg 357 159 0;
#X msg 377 183 1;
#X obj 455 114 random 3;
#X msg 455 158 0;
#X msg 475 182 1;
#X obj 554 113 random 3;
#X obj 554 135 sel 0 1;
#X msg 554 157 0;
#X msg 574 181 1;
#X obj 656 112 random 3;
#X msg 656 156 0;
#X msg 676 180 1;
#X obj 755 111 random 3;
#X obj 755 133 sel 0 1;
#X msg 755 155 0;
#X msg 775 179 1;
#X obj 61 256 random 3;
#X msg 61 300 0;
#X msg 81 324 1;
#X obj 160 255 random 3;
#X msg 160 299 0;
#X msg 180 323 1;
#X obj 262 254 random 3;
#X msg 262 298 0;
#X msg 282 322 1;
#X obj 361 253 random 3;
#X msg 361 297 0;
#X msg 381 321 1;
#X obj 459 252 random 3;
#X msg 459 296 0;
#X msg 479 320 1;
#X obj 558 251 random 3;
#X obj 558 273 sel 0 1;
#X msg 558 295 0;
#X msg 578 319 1;
#X obj 660 250 random 3;
#X msg 660 294 0;
#X msg 680 318 1;
#X obj 759 249 random 3;
#X obj 759 271 sel 0 1;
#X msg 759 293 0;
#X msg 779 317 1;
#X obj 156 209 s \$0-tgl-in2;
#X obj 258 208 s \$0-tgl-in3;
#X obj 357 207 s \$0-tgl-in4;
#X obj 455 206 s \$0-tgl-in5;
#X obj 554 205 s \$0-tgl-in6;
#X obj 656 204 s \$0-tgl-in7;
#X obj 755 203 s \$0-tgl-in8;
#X obj 61 348 s \$0-tgl-in9;
#X obj 160 347 s \$0-tgl-in10;
#X obj 262 346 s \$0-tgl-in11;
#X obj 361 345 s \$0-tgl-in12;
#X obj 459 344 s \$0-tgl-in13;
#X obj 558 343 s \$0-tgl-in14;
#X obj 660 342 s \$0-tgl-in15;
#X obj 759 341 s \$0-tgl-in16;
#X obj 455 136 sel 0 1 2;
#X obj 57 140 sel 0 1 2, f 10;
#X obj 258 138 sel 0 1 2;
#X obj 656 134 sel 0 1 2;
#X obj 61 278 sel 0 1 2;
#X obj 262 276 sel 0 1 2;
#X obj 160 277 sel 0 1;
#X obj 361 275 sel 0 1;
#X obj 459 274 sel 0 1 2;
#X obj 660 272 sel 0 1 2;
#X connect 0 0 73 0;
#X connect 1 0 3 0;
#X connect 2 0 3 0;
#X connect 4 0 5 0;
#X connect 5 0 0 0;
#X connect 5 0 6 0;
#X connect 5 0 53 0;
#X connect 5 0 50 0;
#X connect 5 0 46 0;
#X connect 5 0 43 0;
#X connect 5 0 40 0;
#X connect 5 0 37 0;
#X connect 5 0 34 0;
#X connect 5 0 31 0;
#X connect 5 0 27 0;
#X connect 5 0 24 0;
#X connect 5 0 20 0;
#X connect 5 0 17 0;
#X connect 5 0 13 0;
#X connect 5 0 10 0;
#X connect 6 0 7 0;
#X connect 7 0 8 0;
#X connect 7 1 9 0;
#X connect 8 0 57 0;
#X connect 9 0 57 0;
#X connect 10 0 74 0;
#X connect 11 0 58 0;
#X connect 12 0 58 0;
#X connect 13 0 14 0;
#X connect 14 0 15 0;
#X connect 14 1 16 0;
#X connect 15 0 59 0;
#X connect 16 0 59 0;
#X connect 17 0 72 0;
#X connect 18 0 60 0;
#X connect 19 0 60 0;
#X connect 20 0 21 0;
#X connect 21 0 22 0;
#X connect 21 1 23 0;
#X connect 22 0 61 0;
#X connect 23 0 61 0;
#X connect 24 0 75 0;
#X connect 25 0 62 0;
#X connect 26 0 62 0;
#X connect 27 0 28 0;
#X connect 28 0 29 0;
#X connect 28 1 30 0;
#X connect 29 0 63 0;
#X connect 30 0 63 0;
#X connect 31 0 76 0;
#X connect 32 0 64 0;
#X connect 33 0 64 0;
#X connect 34 0 78 0;
#X connect 35 0 65 0;
#X connect 36 0 65 0;
#X connect 37 0 77 0;
#X connect 38 0 66 0;
#X connect 39 0 66 0;
#X connect 40 0 79 0;
#X connect 41 0 67 0;
#X connect 42 0 67 0;
#X connect 43 0 80 0;
#X connect 44 0 68 0;
#X connect 45 0 68 0;
#X connect 46 0 47 0;
#X connect 47 0 48 0;
#X connect 47 1 49 0;
#X connect 48 0 69 0;
#X connect 49 0 69 0;
#X connect 50 0 81 0;
#X connect 51 0 70 0;
#X connect 52 0 70 0;
#X connect 53 0 54 0;
#X connect 54 0 55 0;
#X connect 54 1 56 0;
#X connect 55 0 71 0;
#X connect 56 0 71 0;
#X connect 72 0 18 0;
#X connect 72 1 19 0;
#X connect 72 2 18 0;
#X connect 73 0 1 0;
#X connect 73 1 2 0;
#X connect 73 2 1 0;
#X connect 74 0 11 0;
#X connect 74 1 12 0;
#X connect 74 2 11 0;
#X connect 75 0 25 0;
#X connect 75 1 26 0;
#X connect 75 2 25 0;
#X connect 76 0 32 0;
#X connect 76 1 33 0;
#X connect 76 2 32 0;
#X connect 77 0 38 0;
#X connect 77 1 39 0;
#X connect 77 2 38 0;
#X connect 78 0 35 0;
#X connect 78 1 36 0;
#X connect 79 0 41 0;
#X connect 79 1 42 0;
#X connect 80 0 44 0;
#X connect 80 1 45 0;
#X connect 80 2 44 0;
#X connect 81 0 51 0;
#X connect 81 1 52 0;
#X connect 81 2 51 0;
#X restore 133 102 pd random-pattern;
#X obj 173 133 s \$0-route-page;
#X text 138 24 MANAGER OF MESSAGES;
#N canvas 76 108 1032 309 fill-pattern 0;
#X obj 113 17 inlet;
#N canvas 778 154 1379 456 fill 0;
#X obj 22 17 inlet;
#X msg 22 55 1;
#X msg 445 54 1;
#X msg 57 55 0;
#X msg 197 55 0;
#X msg 267 54 0;
#X msg 410 53 0;
#X msg 480 54 0;
#X obj 22 88 s \$0-tgl-in1;
#X obj 57 115 s \$0-tgl-in2;
#X obj 96 140 s \$0-tgl-in3;
#X obj 140 163 s \$0-tgl-in4;
#X obj 167 89 s \$0-tgl-in5;
#X obj 198 113 s \$0-tgl-in6;
#X obj 236 136 s \$0-tgl-in7;
#X obj 271 161 s \$0-tgl-in8;
#X obj 304 85 s \$0-tgl-in9;
#X obj 342 111 s \$0-tgl-in10;
#X obj 378 135 s \$0-tgl-in11;
#X obj 411 160 s \$0-tgl-in12;
#X obj 446 87 s \$0-tgl-in13;
#X obj 481 114 s \$0-tgl-in14;
#X obj 519 138 s \$0-tgl-in15;
#X obj 551 169 s \$0-tgl-in16;
#X msg 92 54 0;
#X msg 375 53 0;
#X msg 515 53 0;
#X msg 127 54 0;
#X msg 163 55 1;
#X msg 232 54 0;
#X msg 304 54 1;
#X msg 340 54 0;
#X msg 548 52 0;
#X connect 0 0 1 0;
#X connect 0 0 32 0;
#X connect 0 0 7 0;
#X connect 0 0 6 0;
#X connect 0 0 31 0;
#X connect 0 0 5 0;
#X connect 0 0 4 0;
#X connect 0 0 27 0;
#X connect 0 0 3 0;
#X connect 0 0 26 0;
#X connect 0 0 2 0;
#X connect 0 0 25 0;
#X connect 0 0 30 0;
#X connect 0 0 29 0;
#X connect 0 0 28 0;
#X connect 0 0 24 0;
#X connect 1 0 8 0;
#X connect 2 0 20 0;
#X connect 3 0 9 0;
#X connect 4 0 13 0;
#X connect 5 0 15 0;
#X connect 6 0 19 0;
#X connect 7 0 21 0;
#X connect 24 0 10 0;
#X connect 25 0 18 0;
#X connect 26 0 22 0;
#X connect 27 0 11 0;
#X connect 28 0 12 0;
#X connect 29 0 14 0;
#X connect 30 0 16 0;
#X connect 31 0 17 0;
#X connect 32 0 23 0;
#X restore 262 86 pd fill 4;
#N canvas 778 154 1379 456 fill 0;
#X obj 22 17 inlet;
#X msg 22 55 1;
#X msg 445 54 1;
#X obj 22 88 s \$0-tgl-in1;
#X obj 57 115 s \$0-tgl-in2;
#X obj 96 140 s \$0-tgl-in3;
#X obj 140 163 s \$0-tgl-in4;
#X obj 167 89 s \$0-tgl-in5;
#X obj 198 113 s \$0-tgl-in6;
#X obj 236 136 s \$0-tgl-in7;
#X obj 271 161 s \$0-tgl-in8;
#X obj 304 85 s \$0-tgl-in9;
#X obj 342 111 s \$0-tgl-in10;
#X obj 378 135 s \$0-tgl-in11;
#X obj 411 160 s \$0-tgl-in12;
#X obj 446 87 s \$0-tgl-in13;
#X obj 481 114 s \$0-tgl-in14;
#X obj 519 138 s \$0-tgl-in15;
#X obj 551 169 s \$0-tgl-in16;
#X msg 163 55 1;
#X msg 304 54 1;
#X msg 57 55 1;
#X msg 93 54 1;
#X msg 127 54 1;
#X msg 197 55 1;
#X msg 232 54 1;
#X msg 267 54 1;
#X msg 340 54 1;
#X msg 375 53 1;
#X msg 410 53 1;
#X msg 480 54 1;
#X msg 515 53 1;
#X msg 548 52 1;
#X connect 0 0 1 0;
#X connect 0 0 32 0;
#X connect 0 0 30 0;
#X connect 0 0 29 0;
#X connect 0 0 27 0;
#X connect 0 0 26 0;
#X connect 0 0 24 0;
#X connect 0 0 23 0;
#X connect 0 0 21 0;
#X connect 0 0 31 0;
#X connect 0 0 2 0;
#X connect 0 0 28 0;
#X connect 0 0 20 0;
#X connect 0 0 25 0;
#X connect 0 0 19 0;
#X connect 0 0 22 0;
#X connect 1 0 3 0;
#X connect 2 0 15 0;
#X connect 19 0 7 0;
#X connect 20 0 11 0;
#X connect 21 0 4 0;
#X connect 22 0 5 0;
#X connect 23 0 6 0;
#X connect 24 0 8 0;
#X connect 25 0 9 0;
#X connect 26 0 10 0;
#X connect 27 0 12 0;
#X connect 28 0 13 0;
#X connect 29 0 14 0;
#X connect 30 0 16 0;
#X connect 31 0 17 0;
#X connect 32 0 18 0;
#X restore 66 86 pd fill 1;
#N canvas 778 154 1379 456 fill 0;
#X obj 22 17 inlet;
#X msg 22 55 1;
#X msg 92 54 1;
#X msg 162 55 1;
#X msg 232 54 1;
#X msg 305 54 1;
#X msg 375 53 1;
#X msg 445 54 1;
#X msg 515 53 1;
#X msg 57 55 0;
#X msg 127 54 0;
#X msg 197 55 0;
#X msg 267 54 0;
#X msg 340 54 0;
#X msg 410 53 0;
#X msg 480 54 0;
#X msg 550 53 0;
#X obj 22 88 s \$0-tgl-in1;
#X obj 57 115 s \$0-tgl-in2;
#X obj 96 140 s \$0-tgl-in3;
#X obj 140 163 s \$0-tgl-in4;
#X obj 167 89 s \$0-tgl-in5;
#X obj 198 113 s \$0-tgl-in6;
#X obj 236 136 s \$0-tgl-in7;
#X obj 271 161 s \$0-tgl-in8;
#X obj 304 85 s \$0-tgl-in9;
#X obj 342 111 s \$0-tgl-in10;
#X obj 378 135 s \$0-tgl-in11;
#X obj 411 160 s \$0-tgl-in12;
#X obj 446 87 s \$0-tgl-in13;
#X obj 481 114 s \$0-tgl-in14;
#X obj 519 138 s \$0-tgl-in15;
#X obj 551 169 s \$0-tgl-in16;
#X connect 0 0 1 0;
#X connect 0 0 16 0;
#X connect 0 0 15 0;
#X connect 0 0 14 0;
#X connect 0 0 13 0;
#X connect 0 0 12 0;
#X connect 0 0 11 0;
#X connect 0 0 10 0;
#X connect 0 0 9 0;
#X connect 0 0 8 0;
#X connect 0 0 7 0;
#X connect 0 0 6 0;
#X connect 0 0 5 0;
#X connect 0 0 4 0;
#X connect 0 0 3 0;
#X connect 0 0 2 0;
#X connect 1 0 17 0;
#X connect 2 0 19 0;
#X connect 3 0 21 0;
#X connect 4 0 23 0;
#X connect 5 0 25 0;
#X connect 6 0 27 0;
#X connect 7 0 29 0;
#X connect 8 0 31 0;
#X connect 9 0 18 0;
#X connect 10 0 20 0;
#X connect 11 0 22 0;
#X connect 12 0 24 0;
#X connect 13 0 26 0;
#X connect 14 0 28 0;
#X connect 15 0 30 0;
#X connect 16 0 32 0;
#X restore 132 86 pd fill 2;
#N canvas 778 154 1379 456 fill 0;
#X obj 22 17 inlet;
#X msg 22 55 1;
#X msg 232 54 1;
#X msg 445 54 1;
#X msg 57 55 0;
#X msg 197 55 0;
#X msg 267 54 0;
#X msg 410 53 0;
#X msg 480 54 0;
#X obj 22 88 s \$0-tgl-in1;
#X obj 57 115 s \$0-tgl-in2;
#X obj 96 140 s \$0-tgl-in3;
#X obj 140 163 s \$0-tgl-in4;
#X obj 167 89 s \$0-tgl-in5;
#X obj 198 113 s \$0-tgl-in6;
#X obj 236 136 s \$0-tgl-in7;
#X obj 271 161 s \$0-tgl-in8;
#X obj 304 85 s \$0-tgl-in9;
#X obj 342 111 s \$0-tgl-in10;
#X obj 378 135 s \$0-tgl-in11;
#X obj 411 160 s \$0-tgl-in12;
#X obj 446 87 s \$0-tgl-in13;
#X obj 481 114 s \$0-tgl-in14;
#X obj 519 138 s \$0-tgl-in15;
#X obj 551 169 s \$0-tgl-in16;
#X msg 92 54 0;
#X msg 127 54 1;
#X msg 163 55 0;
#X msg 304 54 0;
#X msg 340 54 1;
#X msg 375 53 0;
#X msg 515 53 0;
#X msg 550 53 1;
#X connect 0 0 1 0;
#X connect 0 0 32 0;
#X connect 0 0 8 0;
#X connect 0 0 7 0;
#X connect 0 0 29 0;
#X connect 0 0 6 0;
#X connect 0 0 5 0;
#X connect 0 0 26 0;
#X connect 0 0 4 0;
#X connect 0 0 31 0;
#X connect 0 0 3 0;
#X connect 0 0 30 0;
#X connect 0 0 28 0;
#X connect 0 0 2 0;
#X connect 0 0 27 0;
#X connect 0 0 25 0;
#X connect 1 0 9 0;
#X connect 2 0 15 0;
#X connect 3 0 21 0;
#X connect 4 0 10 0;
#X connect 5 0 14 0;
#X connect 6 0 16 0;
#X connect 7 0 20 0;
#X connect 8 0 22 0;
#X connect 25 0 11 0;
#X connect 26 0 12 0;
#X connect 27 0 13 0;
#X connect 28 0 17 0;
#X connect 29 0 18 0;
#X connect 30 0 19 0;
#X connect 31 0 23 0;
#X connect 32 0 24 0;
#X restore 197 85 pd fill 3;
#N canvas 778 154 1379 456 fill 0;
#X obj 22 17 inlet;
#X msg 22 55 1;
#X msg 57 55 0;
#X msg 267 54 0;
#X msg 410 53 0;
#X msg 480 54 0;
#X obj 22 88 s \$0-tgl-in1;
#X obj 57 115 s \$0-tgl-in2;
#X obj 96 140 s \$0-tgl-in3;
#X obj 140 163 s \$0-tgl-in4;
#X obj 167 89 s \$0-tgl-in5;
#X obj 198 113 s \$0-tgl-in6;
#X obj 236 136 s \$0-tgl-in7;
#X obj 271 161 s \$0-tgl-in8;
#X obj 304 85 s \$0-tgl-in9;
#X obj 342 111 s \$0-tgl-in10;
#X obj 378 135 s \$0-tgl-in11;
#X obj 411 160 s \$0-tgl-in12;
#X obj 446 87 s \$0-tgl-in13;
#X obj 481 114 s \$0-tgl-in14;
#X obj 519 138 s \$0-tgl-in15;
#X obj 551 169 s \$0-tgl-in16;
#X msg 92 54 0;
#X msg 515 53 0;
#X msg 127 54 0;
#X msg 232 54 0;
#X msg 340 54 0;
#X msg 163 55 0;
#X msg 197 55 1;
#X msg 304 54 0;
#X msg 375 53 1;
#X msg 445 54 0;
#X msg 547 52 1;
#X connect 0 0 1 0;
#X connect 0 0 32 0;
#X connect 0 0 5 0;
#X connect 0 0 4 0;
#X connect 0 0 26 0;
#X connect 0 0 3 0;
#X connect 0 0 28 0;
#X connect 0 0 24 0;
#X connect 0 0 2 0;
#X connect 0 0 23 0;
#X connect 0 0 31 0;
#X connect 0 0 30 0;
#X connect 0 0 29 0;
#X connect 0 0 25 0;
#X connect 0 0 27 0;
#X connect 0 0 22 0;
#X connect 1 0 6 0;
#X connect 2 0 7 0;
#X connect 3 0 13 0;
#X connect 4 0 17 0;
#X connect 5 0 19 0;
#X connect 22 0 8 0;
#X connect 23 0 20 0;
#X connect 24 0 9 0;
#X connect 25 0 12 0;
#X connect 26 0 15 0;
#X connect 27 0 10 0;
#X connect 28 0 11 0;
#X connect 29 0 14 0;
#X connect 30 0 16 0;
#X connect 31 0 18 0;
#X connect 32 0 21 0;
#X restore 330 85 pd fill 5;
#X obj 113 39 sel 1 2 3 4 5;
#X connect 0 0 6 0;
#X connect 6 0 2 0;
#X connect 6 1 3 0;
#X connect 6 2 4 0;
#X connect 6 3 1 0;
#X connect 6 4 5 0;
#X restore 214 75 pd fill-pattern;
#X obj 93 50 route clear random page fill reset;
#N canvas 677 59 388 506 reset 0;
#X obj 21 7 inlet;
#X obj 21 73 until;
#N canvas 374 173 372 254 count 0;
#X obj 37 37 inlet;
#X obj 37 59 i;
#X obj 66 59 + 1;
#X obj 37 103 outlet;
#X msg 81 36 0;
#X obj 81 17 inlet;
#X obj 37 81 mod 4;
#X obj 87 120 outlet;
#X obj 87 98 sel 3;
#X connect 0 0 1 0;
#X connect 1 0 2 0;
#X connect 1 0 6 0;
#X connect 2 0 1 1;
#X connect 4 0 1 1;
#X connect 5 0 4 0;
#X connect 6 0 3 0;
#X connect 6 0 8 0;
#X connect 8 0 7 0;
#X restore 21 96 pd count;
#X obj 21 38 t b b, f 8;
#X obj 21 118 t b f;
#X obj 48 147 pack f \$0;
#X msg 48 169 set \$2-page\$1;
#X obj 21 217 s \$0-tgl-clear;
#X obj 48 190 s \$0-page;
#X connect 0 0 3 0;
#X connect 1 0 2 0;
#X connect 2 0 4 0;
#X connect 2 1 1 1;
#X connect 3 0 1 0;
#X connect 3 1 2 1;
#X connect 4 0 7 0;
#X connect 4 1 5 0;
#X connect 5 0 6 0;
#X connect 6 0 8 0;
#X restore 254 102 pd reset;
#X connect 1 0 0 0;
#X connect 2 0 0 0;
#X connect 3 0 8 0;
#X connect 8 0 2 0;
#X connect 8 1 4 0;
#X connect 8 2 5 0;
#X connect 8 3 7 0;
#X connect 8 4 9 0;
#X restore 87 159 pd route;
#X obj 24 134 route float;
#N canvas 552 239 648 332 tabread-out 0;
#X obj 18 112 outlet;
#X obj 18 18 inlet;
#X obj 62 19 r \$0-page;
#X obj 18 90 sel 1;
#X obj 127 54 s \$0-steps;
#X text 64 80 READING THE TABLES AND SENDING BANGS;
#X obj 18 54 tabread \$0-page0;
#X connect 1 0 4 0;
#X connect 1 0 6 0;
#X connect 2 0 6 0;
#X connect 3 0 0 0;
#X connect 6 0 3 0;
#X restore 24 182 pd tabread-out;
#X text 280 65 STORAGE OF DATA;
#N canvas 388 335 1688 416 tabwriting 0;
#X obj 202 121 funnel 16, f 30;
#X msg 202 143 \$2 \$1;
#X obj 16 29 r \$0-tgl-out1;
#X obj 63 52 r \$0-tgl-out2;
#X obj 111 29 r \$0-tgl-out3;
#X obj 158 52 r \$0-tgl-out4;
#X obj 206 29 r \$0-tgl-out5;
#X obj 253 52 r \$0-tgl-out6;
#X obj 301 29 r \$0-tgl-out7;
#X obj 348 52 r \$0-tgl-out8;
#X obj 395 29 r \$0-tgl-out9;
#X obj 442 52 r \$0-tgl-out10;
#X obj 490 29 r \$0-tgl-out11;
#X obj 537 52 r \$0-tgl-out12;
#X obj 585 29 r \$0-tgl-out13;
#X obj 632 52 r \$0-tgl-out14;
#X obj 680 29 r \$0-tgl-out15;
#X obj 727 52 r \$0-tgl-out16;
#X obj 283 148 r \$0-page;
#X text 391 122 SENDING 0 AND 1 FOR RESPECTIVES TABLES;
#X obj 202 171 tabwrite \$0-page0;
#X connect 0 0 1 0;
#X connect 1 0 20 0;
#X connect 2 0 0 0;
#X connect 3 0 0 1;
#X connect 4 0 0 2;
#X connect 5 0 0 3;
#X connect 6 0 0 4;
#X connect 7 0 0 5;
#X connect 8 0 0 6;
#X connect 9 0 0 7;
#X connect 10 0 0 8;
#X connect 11 0 0 9;
#X connect 12 0 0 10;
#X connect 13 0 0 11;
#X connect 14 0 0 12;
#X connect 15 0 0 13;
#X connect 16 0 0 14;
#X connect 17 0 0 15;
#X connect 18 0 20 0;
#X restore 282 171 pd tabwriting;
#N canvas 1119 163 532 518 page-selection 1;
#X obj 31 21 hradio 15 1 0 4 empty \$0-route-page empty 0 -8 0 10 -116512
-4032 -4032 3;
#X obj 31 41 t b b f, f 16;
#X obj 124 123 s \$0-page;
#X msg 31 63 16;
#X obj 31 85 until;
#N canvas 1228 167 372 259 count 0;
#X obj 37 37 inlet;
#X obj 37 59 i;
#X obj 66 59 + 1;
#X obj 37 81 mod 16;
#X obj 37 103 outlet;
#X msg 101 48 0;
#X obj 100 20 inlet;
#X connect 0 0 1 0;
#X connect 1 0 2 0;
#X connect 1 0 3 0;
#X connect 2 0 1 1;
#X connect 3 0 4 0;
#X connect 5 0 1 1;
#X connect 6 0 5 0;
#X restore 31 107 pd count;
#X obj 31 224 s, f 5;
#X text 94 18 SELECTING TABLES;
#X obj 31 153 tabread \$0-page0;
#X msg 124 101 set \$2-page\$1;
#X obj 124 72 pack f \$0;
#X msg 58 199 symbol \$2-tgl-tab-page\$1;
#X obj 58 176 pack f \$0;
#X obj 31 129 t f f;
#X connect 0 0 1 0;
#X connect 1 0 3 0;
#X connect 1 1 5 1;
#X connect 1 2 10 0;
#X connect 3 0 4 0;
#X connect 4 0 5 0;
#X connect 5 0 13 0;
#X connect 8 0 6 0;
#X connect 9 0 2 0;
#X connect 9 0 8 0;
#X connect 10 0 9 0;
#X connect 11 0 6 1;
#X connect 12 0 11 0;
#X connect 13 0 8 0;
#X connect 13 1 12 0;
#X restore 282 192 pd page-selection;
#X obj 282 84 table \$0-page0 16;
#X obj 282 105 table \$0-page1 16;
#X obj 282 126 table \$0-page2 16;
#X obj 282 147 table \$0-page3 16;
#X text 20 265 FLOAT -> NEEDS TO RECEIVE COUNT FROM 0-15;
#X text 19 281 MENSAGES -> clear (clear the current page);
#X text 19 315 MENSAGES -> random (insert random steps to the current
page);
#X text 20 245 -INLET-;
#X text 67 204 output bang;
#X text 19 331 MENSAGES -> page <0-3> (select the page);
#X text 19 348 MENSAGES -> fill <1 \, 2 \, 3 \, 4 \, 5> (fill the steps
in <x> spaces), f 63;
#X obj 26 53 cnv 5 6 30 empty empty empty 20 12 0 14 -191407 -66577
0;
#X text 22 26 -STEP SEQUENCER WITH 16 STEPS AND 4 PAGES(64 STEPS)-
;
#X text 19 298 MENSAGES -> reset (clear all pages);
#X text 22 6 *GRID16*;
#X connect 18 0 20 0;
#X connect 20 0 21 0;
#X connect 20 1 19 0;
#X connect 21 0 17 0;
#X coords 0 -1 1 1 145 36 2 25 50;
