#N canvas -9 -9 1920 1026 12;
#N canvas 288 116 1458 896 cymbal_engine 0;
#X obj 61 70 noise~;
#X obj 61 304 *~;
#X floatatom 223 138 5 0 0 0 - - -;
#N canvas 0 50 1192 726 amp_env 0;
#X obj 152 219 vline~;
#X obj 152 148 f 250;
#X obj 152 93 inlet;
#X obj 209 92 inlet;
#X obj 152 242 outlet~;
#X msg 152 192 1 2 \, 0.4 \$1 2 \, 0 \$1 \$1;
#X connect 0 0 4 0;
#X connect 1 0 5 0;
#X connect 2 0 1 0;
#X connect 3 0 1 1;
#X connect 5 0 0 0;
#X restore 156 186 pd amp_env;
#N canvas 202 374 1554 889 filters 0;
#X obj 37 37 inlet~;
#X obj 37 60 biquad~ 0.638282 -0.176456 0.134544 0.269887 0.134544
;
#X obj 37 89 biquad~ 0.88843 -0.568944 0.614344 -1.22869 0.614344;
#X obj 37 120 biquad~ 0.88843 -0.568944 0.614344 -1.22869 0.614344
;
#X obj 37 152 biquad~ 1.86507 -0.892661 0.939432 -1.87886 0.939432
;
#X obj 37 179 outlet~;
#X connect 0 0 1 0;
#X connect 1 0 2 0;
#X connect 2 0 3 0;
#X connect 3 0 4 0;
#X connect 4 0 5 0;
#X restore 61 185 pd filters;
#N canvas 257 99 1586 906 six_pulse_oscs 0;
#X obj 36 56 inlet;
#X obj 36 171 phasor~;
#X obj 36 194 expr~ $v1 > 0.55;
#X obj 36 319 *~ 0.9;
#X obj 36 342 outlet~;
#X obj 162 170 phasor~;
#X obj 162 193 expr~ $v1 > 0.55;
#X obj 285 170 phasor~;
#X obj 285 193 expr~ $v1 > 0.55;
#X obj 411 170 phasor~;
#X obj 411 193 expr~ $v1 > 0.55;
#X obj 537 170 phasor~;
#X obj 537 193 expr~ $v1 > 0.55;
#X obj 663 169 phasor~;
#X obj 663 192 expr~ $v1 > 0.55;
#X obj 162 121 * 1.342;
#X obj 285 121 * 1.2312;
#X obj 411 122 * 1.6532;
#X obj 537 122 * 1.8523;
#X obj 663 123 * 2.1523;
#X connect 0 0 1 0;
#X connect 0 0 15 0;
#X connect 0 0 16 0;
#X connect 0 0 17 0;
#X connect 0 0 18 0;
#X connect 0 0 19 0;
#X connect 1 0 2 0;
#X connect 2 0 3 0;
#X connect 3 0 4 0;
#X connect 5 0 6 0;
#X connect 6 0 3 0;
#X connect 7 0 8 0;
#X connect 8 0 3 0;
#X connect 9 0 10 0;
#X connect 10 0 3 0;
#X connect 11 0 12 0;
#X connect 12 0 3 0;
#X connect 13 0 14 0;
#X connect 14 0 3 0;
#X connect 15 0 5 0;
#X connect 16 0 7 0;
#X connect 17 0 9 0;
#X connect 18 0 11 0;
#X connect 19 0 13 0;
#X restore 110 70 pd six_pulse_oscs;
#X floatatom 110 39 5 0 0 0 - - -;
#X obj 61 208 freeverb~;
#X obj 98 350 delwrite~ \$0-del 10;
#X obj 98 375 delread~ \$0-del 5;
#X obj 202 6 inlet;
#X obj 156 154 inlet;
#X obj 279 110 inlet;
#X text 246 4 pitch;
#X text 323 110 duration;
#X obj 61 414 outlet~;
#X obj 15 7 loadbang;
#X msg 15 30 220;
#X connect 0 0 4 0;
#X connect 1 0 8 0;
#X connect 1 0 15 0;
#X connect 2 0 3 1;
#X connect 3 0 1 1;
#X connect 4 0 7 0;
#X connect 5 0 4 0;
#X connect 6 0 5 0;
#X connect 7 0 1 0;
#X connect 9 0 15 0;
#X connect 10 0 6 0;
#X connect 11 0 3 0;
#X connect 12 0 2 0;
#X connect 16 0 17 0;
#X connect 17 0 6 0;
#X restore 49 282 pd cymbal_engine;
#X obj 49 250 bng 15 250 50 0 empty empty empty 17 7 0 10 -262144 -1
-1;
#X floatatom 104 249 5 0 0 0 - - -;
#X floatatom 158 248 5 0 0 0 - - -;
#X obj 104 94 vsl 15 128 110 1100 0 0 empty hh_pitch empty 0 -9 0 10
-262144 -1 -1 22834 1;
#X obj 158 94 vsl 15 128 10 1000 0 0 empty hh_decay empty 0 -9 0 10
-262144 -1 -1 1540 1;
#X text 158 66 decay;
#X text 103 65 pitch;
#X msg 220 305 \; hh_decay 50 \; hh_pitch 220 \;;
#X msg 453 304 \; hh_decay 150 \; hh_pitch 520 \;;
#X msg 567 303 \; hh_decay 90 \; hh_pitch 520 \;;
#X msg 333 304 \; hh_decay 70 \; hh_pitch 1000 \;;
#X msg 794 303 \; hh_decay 20 \; hh_pitch 800 \;;
#X obj 276 238 sel 0 1 2 3 4 5, f 78;
#X msg 680 303 \; hh_decay 110 \; hh_pitch 320 \;;
#X obj 49 358 outlet~;
#X obj 276 164 loadbang;
#X obj 276 192 random 6;
#X obj 49 206 inlet;
#X obj 405 115 bng 25 250 50 0 empty empty H 7 13 0 18 -262144 -1 -99865
;
#X floatatom 451 105 5 110 1100 0 P hh_pitch -;
#X floatatom 451 128 5 10 1000 0 D hh_decay -;
#X obj 446 151 hsl 40 15 0 2.5 0 0 volume_hats empty VOL 0 8 0 10 -262130
-1 -1 1560 0;
#X floatatom 91 312 5 0 0 0 - volume_hats -;
#X obj 404 151 nbx 3 15 0.02 2.5 0 1 empty volume_hats empty 0 -8 0
10 -262130 -1 -1 0.5 256;
#X obj 429 35 loadbang;
#X msg 429 59 0.5;
#X obj 49 323 *~;
#X obj 526 40 inlet;
#X obj 607 39 inlet;
#X obj 708 35 inlet;
#X obj 526 64 s hh_pitch;
#X obj 610 65 s hh_decay;
#X connect 0 0 27 0;
#X connect 1 0 0 0;
#X connect 2 0 0 1;
#X connect 3 0 0 2;
#X connect 4 0 2 0;
#X connect 5 0 3 0;
#X connect 13 0 8 0;
#X connect 13 1 11 0;
#X connect 13 2 9 0;
#X connect 13 3 10 0;
#X connect 13 4 14 0;
#X connect 13 5 12 0;
#X connect 16 0 17 0;
#X connect 17 0 13 0;
#X connect 18 0 1 0;
#X connect 18 0 19 0;
#X connect 20 0 2 0;
#X connect 21 0 3 0;
#X connect 23 0 27 1;
#X connect 25 0 26 0;
#X connect 26 0 22 0;
#X connect 27 0 15 0;
#X connect 28 0 31 0;
#X connect 29 0 32 0;
#X connect 30 0 22 0;
#X coords 0 -1 1 1 92 72 2 400 100;
