#N canvas -9 -9 1920 1026 12;
#X obj 39 260 bng 15 250 50 0 empty empty empty 17 7 0 10 -262144 -1
-1;
#N canvas 0 50 1279 883 kick_engine 0;
#X obj 45 24 inlet;
#X obj 312 216 phasor~;
#X obj 312 244 expr~ $v1 > 0.5;
#X obj 45 379 *~;
#X obj 45 103 f 250;
#X floatatom 77 60 5 0 0 0 - - -;
#N canvas 357 81 904 785 vol_env 0;
#X obj 37 37 inlet;
#X obj 37 108 vline~;
#X obj 37 142 *~;
#X msg 37 80 0.5 \, 1 5 \, 0.5 60 5 \, 0 \$1 65;
#X obj 37 179 outlet~;
#X connect 0 0 3 0;
#X connect 1 0 2 0;
#X connect 1 0 2 1;
#X connect 2 0 4 0;
#X connect 3 0 1 0;
#X restore 45 228 pd vol_env;
#N canvas 880 142 904 785 pitch_env 0;
#X obj 37 37 inlet;
#X obj 37 108 vline~;
#X obj 37 142 *~;
#X obj 37 288 outlet~;
#X msg 37 80 1 \, 0.5 5 \, 0 \$1 5;
#X obj 37 165 *~ 80;
#X obj 37 188 +~ 29;
#X obj 37 211 mtof~;
#X connect 0 0 4 0;
#X connect 1 0 2 0;
#X connect 1 0 2 1;
#X connect 2 0 5 0;
#X connect 4 0 1 0;
#X connect 5 0 6 0;
#X connect 6 0 7 0;
#X connect 7 0 3 0;
#X restore 57 129 pd pitch_env;
#X obj 312 182 *~ 1;
#X floatatom 364 155 5 0 0 1 - - -;
#X text 402 155 pitch scale;
#X text 117 59 decay;
#X obj 312 310 vcf~ 0.5;
#X obj 440 278 *~ 1.5;
#X floatatom 493 255 5 0 0 0 - - -;
#X text 535 253 filter scale;
#X obj 325 270 noise~;
#X floatatom 189 254 5 0 0 0 - - -;
#X obj 57 154 s~ env;
#X obj 440 232 r~ env;
#X obj 133 229 r~ env;
#X obj 312 131 r~ env;
#X text 231 252 sine scale;
#X obj 133 303 osc~;
#X obj 133 280 *~ 0.75;
#X obj 104 30 inlet;
#X obj 364 122 inlet;
#X obj 493 223 inlet;
#X obj 189 225 inlet;
#X obj 45 402 outlet~;
#X connect 0 0 4 0;
#X connect 1 0 2 0;
#X connect 2 0 12 0;
#X connect 3 0 29 0;
#X connect 4 0 6 0;
#X connect 4 0 7 0;
#X connect 5 0 4 1;
#X connect 6 0 3 0;
#X connect 7 0 18 0;
#X connect 8 0 1 0;
#X connect 9 0 8 1;
#X connect 12 1 3 1;
#X connect 13 0 12 1;
#X connect 14 0 13 1;
#X connect 16 0 12 0;
#X connect 17 0 24 1;
#X connect 19 0 13 0;
#X connect 20 0 24 0;
#X connect 21 0 8 0;
#X connect 23 0 3 1;
#X connect 24 0 23 0;
#X connect 25 0 5 0;
#X connect 26 0 9 0;
#X connect 27 0 14 0;
#X connect 28 0 17 0;
#X restore 39 302 pd kick_engine;
#X f 69;
#X floatatom 159 264 5 0 0 0 - - -;
#X floatatom 399 272 5 0 0 1 - - -;
#X text 395 80 pitch scale;
#X text 154 81 decay;
#X floatatom 519 275 5 0 0 0 - - -;
#X text 511 82 filter scale;
#X floatatom 279 270 5 0 0 0 - - -;
#X text 277 76 sine scale;
#X obj 159 114 vsl 15 128 10 2000 0 0 empty kick_decay empty 0 -9 0
10 -262144 -1 -1 19018 1;
#X obj 399 108 vsl 15 128 0.1 3 0 0 empty kick_pitch empty 0 -9 0 10
-262144 -1 -1 3504 1;
#X obj 519 110 vsl 15 128 0.1 3 0 0 empty kick_filter empty 0 -9 0
10 -262144 -1 -1 3504 1;
#X obj 279 108 vsl 15 128 0.1 3 0 0 empty kick_sine empty 0 -9 0 10
-262144 -1 -1 3504 1;
#X obj 39 414 outlet~;
#X msg 622 162 \; kick_decay 250 \; kick_pitch 1 \; kick_filter 1.5
\; kick_sine 1 \;;
#X msg 670 252 \; kick_decay 150 \; kick_pitch 0.5 \; kick_filter 1.5
\; kick_sine 1 \;;
#X msg 628 347 \; kick_decay 450 \; kick_pitch 0.25 \; kick_filter
0.5 \; kick_sine 1 \;;
#X msg 758 162 \; kick_decay 50 \; kick_pitch 2.25 \; kick_filter 1.5
\; kick_sine 0.8 \;;
#X msg 806 252 \; kick_decay 1500 \; kick_pitch 0.5 \; kick_filter
0.5 \; kick_sine 0.5 \;;
#X obj 39 226 inlet;
#X obj 205 415 bng 25 250 50 0 empty empty K 8 13 0 18 -262144 -45076
-99865;
#X obj 629 19 loadbang;
#X floatatom 250 428 5 0.1 3 0 P kick_pitch -;
#X floatatom 250 406 5 10 2000 0 D kick_decay -;
#X floatatom 303 406 5 0.1 3 0 S kick_sine -;
#X floatatom 303 428 5 0.1 3 0 F kick_filter -;
#X obj 629 43 random 5;
#X obj 629 67 sel 0 1 2 3 4;
#X obj 245 451 hsl 93 15 0 2 0 0 volume empty VOL 0 8 0 10 -262130
-1 -1 4600 0;
#X floatatom 64 360 5 0 0 0 - volume -;
#X obj 39 390 *~;
#X obj 203 451 nbx 3 15 0.02 2 0 1 empty volume empty 0 -8 0 10 -262130
-1 -1 0.5 256;
#X obj 131 421 loadbang;
#X msg 131 445 0.5;
#X obj 164 346 inlet;
#X obj 266 345 inlet;
#X obj 361 344 inlet;
#X obj 438 344 inlet;
#X obj 522 341 inlet;
#X obj 164 370 s kick_decay;
#X obj 266 372 s kick_pitch;
#X obj 362 371 s kick_sine;
#X obj 453 372 s kick_filter;
#X connect 0 0 1 0;
#X connect 0 0 21 0;
#X connect 1 0 31 0;
#X connect 2 0 1 1;
#X connect 3 0 1 3;
#X connect 6 0 1 4;
#X connect 8 0 1 2;
#X connect 10 0 2 0;
#X connect 11 0 3 0;
#X connect 12 0 6 0;
#X connect 13 0 8 0;
#X connect 20 0 0 0;
#X connect 22 0 27 0;
#X connect 23 0 3 0;
#X connect 24 0 2 0;
#X connect 25 0 8 0;
#X connect 26 0 6 0;
#X connect 27 0 28 0;
#X connect 28 0 15 0;
#X connect 28 1 18 0;
#X connect 28 2 16 0;
#X connect 28 3 19 0;
#X connect 28 4 17 0;
#X connect 30 0 31 1;
#X connect 31 0 14 0;
#X connect 33 0 34 0;
#X connect 34 0 29 0;
#X connect 35 0 40 0;
#X connect 36 0 41 0;
#X connect 37 0 42 0;
#X connect 38 0 43 0;
#X connect 39 0 29 0;
#X coords 0 -1 1 1 145 72 2 200 400;
