#N canvas 0 0 1197 953 12;
#X floatatom 195 140 5 0 90 0 vol - -;
#X obj 129 104 bng 17 250 50 0 empty empty M 5 9 0 12 -259283 -1 -262144
;
#X obj 116 172 dbtorms;
#X obj 169 244 inlet~;
#X obj 116 281 line~;
#X obj 151 333 *~;
#X obj 182 362 dac~;
#X obj 116 210 pack 0 50;
#X text 188 218 audio in;
#X obj 236 332 *~;
#X obj 169 303 hip~ 3;
#X obj 254 303 hip~ 3;
#X obj 334 207 t b;
#X obj 334 154 f;
#X obj 334 232 f;
#X msg 380 230 0;
#X obj 334 184 moses 1;
#X obj 384 154 moses 1;
#X text 392 100 MUTE logic:;
#X obj 380 261 s \$0-master-lvl;
#X obj 384 125 r \$0-master-out;
#X obj 178 24 r \$0-master-lvl;
#X obj 195 173 s \$0-master-out;
#X obj 51 137 r \$0-master-out;
#X obj 154 71 vsl 25 48 0 99 0 1 \$0-sld-out \$0-sld-in -50- 0 44 0
10 -116512 -262144 -262144 4748 0;
#X obj 48 21 loadbang;
#X msg 48 45 50;
#X msg 422 345 \; pd dsp 1;
#X msg 422 388 \; pd dsp 0;
#X text 487 351 ON;
#X text 489 394 OFF;
#X obj 341 326 sel 0 1;
#X obj 129 70 tgl 17 0 \$0-dsp_on_off empty dsp 1 21 0 9 -116512 -262144
-262144 0 1;
#X msg 85 44 0;
#X obj 341 300 r \$0-dsp_on_off;
#X obj 254 245 inlet~;
#X obj 151 428 s~ mstr_audioL;
#X obj 236 399 s~ mstr_audioR;
#X obj 299 19 r \$0-sld-out;
#X msg 299 66 label -\$1-;
#X obj 299 90 s \$0-sld-in;
#X obj 299 43 int;
#X obj 169 273 clip~ -1 1;
#X obj 254 274 clip~ -1 1;
#X connect 0 0 22 0;
#X connect 1 0 13 0;
#X connect 2 0 7 0;
#X connect 3 0 42 0;
#X connect 4 0 9 0;
#X connect 4 0 5 0;
#X connect 5 0 6 0;
#X connect 5 0 36 0;
#X connect 7 0 4 0;
#X connect 9 0 6 1;
#X connect 9 0 37 0;
#X connect 10 0 5 1;
#X connect 11 0 9 1;
#X connect 12 0 14 0;
#X connect 13 0 16 0;
#X connect 14 0 19 0;
#X connect 15 0 19 0;
#X connect 16 0 12 0;
#X connect 16 1 15 0;
#X connect 17 1 14 1;
#X connect 20 0 13 1;
#X connect 20 0 17 0;
#X connect 21 0 0 0;
#X connect 21 0 24 0;
#X connect 23 0 2 0;
#X connect 24 0 0 0;
#X connect 25 0 26 0;
#X connect 25 0 33 0;
#X connect 26 0 24 0;
#X connect 31 0 28 0;
#X connect 31 1 27 0;
#X connect 33 0 32 0;
#X connect 34 0 31 0;
#X connect 35 0 43 0;
#X connect 38 0 41 0;
#X connect 39 0 40 0;
#X connect 41 0 39 0;
#X connect 42 0 10 0;
#X connect 43 0 11 0;
#X coords 0 -1 1 1 60 61 2 125 64;
