#N canvas 1490 222 756 677 10;
#X obj 69 239 + 1;
#X obj 14 38 t f b, f 7;
#X msg 53 185 0;
#X obj 14 14 r \$0-play;
#X obj 14 238 i 0, f 7;
#X obj 224 24 tgl 12 0 \$0-play \$0-play-label empty 17 7 0 10 #70707d
#fcfcfc #fcfcfc 0 1;
#N canvas 1466 493 393 234 loadbang 0;
#X obj 22 14 loadbang;
#X msg 22 36 120;
#X obj 22 61 s \$0-r-bpm;
#X connect 0 0 1 0;
#X connect 1 0 2 0;
#X restore 228 70 pd loadbang;
#X obj 26 69 r \$0-s-bpm;
#X msg 26 91 tempo \$1 permin;
#X obj 14 124 metro 0.25 120 permin;
#X obj 303 24 cnv 5 6 10 \$0-s-clock_cnv \$0-r-clock_cnv empty 20 12
0 14 #606060 #fcfcfc 0;
#X obj 231 130 route bpm;
#X obj 231 152 s \$0-r-bpm;
#X obj 241 22 nbx 5 15 1 500 0 0 \$0-s-bpm \$0-r-bpm bpm 42 8 0 7 #70707d
#ffffff #faff00 0 256;
#N canvas 685 329 853 562 values 0;
#X msg 20 61 60000;
#X obj 20 36 t b f;
#X obj 20 85 /, f 5;
#X obj 20 110 int;
#X obj 20 135 * 0.25;
#X obj 20 12 r \$0-s-bpm;
#X obj 291 22 r \$0-play;
#X obj 291 78 list prepend state;
#X obj 291 106 list trim;
#X obj 20 208 list trim;
#X obj 20 180 list prepend clock;
#X obj 71 44 r \$0-current-metro;
#X obj 193 96 mod 4;
#X obj 193 118 sel 0;
#X msg 193 145 color 0 0 0;
#X obj 193 218 s \$0-r-clock_cnv;
#X msg 203 189 color 21 0 0;
#X obj 203 169 del 50;
#X obj 127 152 / 2;
#X obj 193 69 inlet;
#X obj 20 236 s mc.clock;
#X obj 291 134 s mc.clock;
#X obj 103 237 outlet;
#X obj 308 47 outlet;
#X connect 0 0 2 0;
#X connect 1 0 0 0;
#X connect 1 1 2 1;
#X connect 2 0 3 0;
#X connect 3 0 4 0;
#X connect 4 0 10 0;
#X connect 4 0 18 0;
#X connect 4 0 22 0;
#X connect 5 0 1 0;
#X connect 6 0 7 0;
#X connect 6 0 23 0;
#X connect 7 0 8 0;
#X connect 8 0 21 0;
#X connect 9 0 20 0;
#X connect 10 0 9 0;
#X connect 11 0 0 0;
#X connect 12 0 13 0;
#X connect 13 0 14 0;
#X connect 13 0 17 0;
#X connect 14 0 15 0;
#X connect 16 0 15 0;
#X connect 17 0 16 0;
#X connect 18 0 17 1;
#X connect 19 0 12 0;
#X restore 105 270 pd values;
#X obj 31 151 s \$0-current-metro;
#X obj 231 108 r mc.clock;
#X obj 106 202 list prepend reset;
#X obj 106 224 list trim;
#X obj 106 246 s mc.clock;
#X obj 14 299 outlet count;
#X obj 105 299 outlet ms;
#X obj 179 299 outlet state;
#X obj 265 202 outlet reset;
#X connect 0 0 4 1;
#X connect 1 0 9 0;
#X connect 1 1 2 0;
#X connect 2 0 4 1;
#X connect 2 0 17 0;
#X connect 2 0 23 0;
#X connect 3 0 1 0;
#X connect 4 0 0 0;
#X connect 4 0 14 0;
#X connect 4 0 20 0;
#X connect 7 0 8 0;
#X connect 8 0 9 0;
#X connect 9 0 4 0;
#X connect 9 0 15 0;
#X connect 11 0 12 0;
#X connect 14 0 21 0;
#X connect 14 1 22 0;
#X connect 16 0 11 0;
#X connect 17 0 18 0;
#X connect 18 0 19 0;
#X coords 0 -1 1 1 94 20 2 220 20;
