#N canvas 1307 139 843 797 10;
#X obj 33 109 inlet~;
#X obj 73 132 inlet~;
#X obj 33 330 dac~ 1 2, f 14;
#X obj 33 255 hip~ 3;
#X obj 114 255 hip~ 3;
#X obj 33 290 clip~ -1 1;
#X obj 114 290 clip~ -1 1;
#X obj 33 190 *~;
#X obj 73 190 *~;
#X obj 229 86 + 100;
#X obj 229 57 clip -80 12;
#X obj 229 108 pack 0 25;
#X obj 229 130 line~;
#X obj 229 152 dbtorms~;
#X obj 229 29 r \$0-s-hsld-vol;
#X obj 229 214 s~ \$0-vol;
#X obj 88 155 r~ \$0-vol;
#X obj 298 79 r \$0-s-tgl-mute;
#X obj 298 144 pack 0 25;
#X obj 298 166 line~;
#X obj 229 183 *~;
#X obj 298 112 == 0;
#N canvas 1722 227 735 529 gui 0;
#X obj 34 192 s \$0-r-hsld-vol;
#X obj 34 57 r \$0-s-hsld-vol;
#X msg 34 139 label \$1;
#X obj 34 113 makefilename %.2fdb;
#X obj 181 55 r \$0-s-tgl-mute;
#X obj 181 92 sel 1 0;
#X obj 181 203 s \$0-r-tgl-mute;
#X msg 181 131 color 13 13 0;
#X msg 200 156 color 11 11 0;
#X connect 1 0 3 0;
#X connect 2 0 0 0;
#X connect 3 0 2 0;
#X connect 4 0 5 0;
#X connect 5 0 7 0;
#X connect 5 1 8 0;
#X connect 7 0 6 0;
#X connect 8 0 6 0;
#X restore 232 298 pd gui;
#N canvas 856 252 528 370 loadbang 0;
#X obj 18 20 loadbang;
#X msg 18 112 -6;
#X obj 18 139 s \$0-r-hsld-vol;
#X msg 33 53 0;
#X obj 33 75 s \$0-r-tgl-mute;
#X obj 147 60 s \$0-r-hsld-pan;
#X msg 147 37 0.5;
#X connect 0 0 1 0;
#X connect 0 0 3 0;
#X connect 0 0 6 0;
#X connect 1 0 2 0;
#X connect 3 0 4 0;
#X connect 6 0 5 0;
#X restore 232 323 pd loadbang;
#X obj 25 25 cnv 15 124 45 empty empty empty 20 12 0 14 #404040 #ffffff
0;
#X obj 34 39 hsl 108 10 -80 12 0 0 \$0-s-hsld-vol \$0-r-hsld-vol -6.92db
-2 -6 0 7 #bbbbbb #000000 #ffe3c6 0 1;
#X obj 31 54 tgl 12 0 \$0-s-tgl-mute \$0-r-tgl-mute empty 17 7 0 10
#7c7c7c #7c7c7c #fcfcfc 0 1;
#X obj 52 55 hsl 90 10 0 1 0 0 \$0-s-hsld-pan \$0-r-hsld-pan empty
-2 -6 0 7 #bbbbbb #000000 #ffe3c6 0 1;
#X obj 33 225 mc.pan~, f 14;
#X obj 114 192 r \$0-s-hsld-pan;
#X connect 0 0 7 0;
#X connect 1 0 8 0;
#X connect 3 0 5 0;
#X connect 4 0 6 0;
#X connect 5 0 2 0;
#X connect 6 0 2 1;
#X connect 7 0 28 0;
#X connect 8 0 28 1;
#X connect 9 0 11 0;
#X connect 10 0 9 0;
#X connect 11 0 12 0;
#X connect 12 0 13 0;
#X connect 13 0 20 0;
#X connect 14 0 10 0;
#X connect 16 0 7 1;
#X connect 16 0 8 1;
#X connect 17 0 21 0;
#X connect 18 0 19 0;
#X connect 19 0 20 1;
#X connect 20 0 15 0;
#X connect 21 0 18 0;
#X connect 28 0 3 0;
#X connect 28 1 4 0;
#X connect 29 0 28 2;
#X coords 0 -1 1 1 125 46 2 25 25;
