#N canvas 970 185 789 744 10;
#X obj 23 21 inlet~;
#X obj 23 336 outlet~;
#X obj 23 312 +~;
#X obj 38 71 delwrite~ \$0-del-buf 10000;
#X obj 38 168 delread4~ \$0-del-buf;
#X obj 38 225 lop~ 5000;
#X obj 200 105 inlet time;
#X obj 291 70 inlet feedback;
#X obj 200 206 s \$0-del-time;
#X obj 38 115 r \$0-del-time;
#X obj 291 200 s \$0-del-fb;
#X obj 115 211 r \$0-del-fb;
#X obj 115 233 pack 0 25;
#X obj 115 255 line~;
#X obj 95 289 s~ \$0-feedback;
#X obj 71 21 r~ \$0-feedback;
#X obj 71 43 clip~ -1 1;
#X obj 200 167 f \$1;
#X obj 291 130 f \$2;
#X obj 212 138 loadbang;
#X obj 303 101 loadbang;
#X obj 291 162 clip 0 1;
#X obj 38 203 hip~ 100;
#X obj 38 145 sig~ 100;
#X obj 38 272 *~;
#X connect 0 0 2 0;
#X connect 0 0 3 0;
#X connect 2 0 1 0;
#X connect 4 0 22 0;
#X connect 5 0 24 0;
#X connect 6 0 17 0;
#X connect 7 0 18 0;
#X connect 9 0 23 0;
#X connect 11 0 12 0;
#X connect 12 0 13 0;
#X connect 13 0 24 1;
#X connect 15 0 16 0;
#X connect 16 0 3 0;
#X connect 17 0 8 0;
#X connect 18 0 21 0;
#X connect 19 0 17 0;
#X connect 20 0 18 0;
#X connect 21 0 10 0;
#X connect 22 0 5 0;
#X connect 23 0 4 0;
#X connect 24 0 14 0;
#X connect 24 0 2 1;
