#N canvas 1515 111 584 760 10;
#X obj 47 340 outlet~;
#X obj 152 340 outlet~;
#X obj 62 189 * -1;
#X obj 62 211 + 1;
#X obj 167 223 sqrt;
#X obj 62 233 sqrt;
#X obj 62 255 pack 0 25;
#X obj 62 277 line~;
#X obj 47 301 *~;
#X obj 152 301 *~;
#X obj 167 249 pack 0 25;
#X obj 167 271 line~;
#X obj 167 150 f \$1;
#X obj 167 172 clip 0 1;
#X obj 182 124 loadbang;
#X obj 152 22 loadbang;
#X msg 152 44 0;
#X obj 47 70 inlet~ L;
#X obj 152 72 inlet~ R;
#X obj 167 101 inlet;
#N canvas 1420 395 524 317 stero-test 0;
#X obj 19 29 inlet~;
#X obj 56 56 expr~ if($v2 \, $v2 \, $v1);
#X obj 191 30 inlet~;
#X obj 56 82 outlet~;
#X obj 19 107 outlet~;
#X connect 0 0 1 0;
#X connect 0 0 4 0;
#X connect 1 0 3 0;
#X connect 2 0 1 1;
#X restore 7 32 pd stero-test;
#X f 18;
#X connect 2 0 3 0;
#X connect 3 0 5 0;
#X connect 4 0 10 0;
#X connect 5 0 6 0;
#X connect 6 0 7 0;
#X connect 7 0 8 1;
#X connect 8 0 0 0;
#X connect 9 0 1 0;
#X connect 10 0 11 0;
#X connect 11 0 9 1;
#X connect 12 0 13 0;
#X connect 13 0 2 0;
#X connect 13 0 4 0;
#X connect 14 0 12 0;
#X connect 15 0 16 0;
#X connect 17 0 8 0;
#X connect 18 0 9 0;
#X connect 19 0 12 0;
