#N canvas 1432 194 466 640 10;
#X obj 25 46 random 1e+06;
#X obj 25 19 inlet;
#X obj 25 69 / 1e+06;
#X obj 25 285 outlet;
#X obj 94 190 f \$1;
#X obj 94 67 loadbang;
#X obj 40 102 f \$2;
#X obj 25 231 *;
#X obj 25 257 +, f 12;
#X obj 40 207 -;
#X obj 54 160 t b f;
#X obj 54 136 inlet min;
#X obj 160 85 inlet max;
#X connect 0 0 2 0;
#X connect 1 0 0 0;
#X connect 2 0 7 0;
#X connect 4 0 8 1;
#X connect 4 0 9 1;
#X connect 5 0 4 0;
#X connect 5 0 6 0;
#X connect 6 0 9 0;
#X connect 7 0 8 0;
#X connect 8 0 3 0;
#X connect 9 0 7 1;
#X connect 10 0 9 0;
#X connect 10 1 4 0;
#X connect 11 0 10 0;
#X connect 12 0 6 0;
