#N canvas 1472 243 510 568 10;
#X obj 32 129 inlet;
#X obj 32 162 random;
#X obj 32 228 outlet;
#X obj 77 75 f \$1;
#X obj 110 45 loadbang;
#X obj 146 73 f \$2;
#X obj 146 116 + 1;
#X obj 117 145 -, f 5;
#X obj 102 116 t b f;
#X obj 32 194 +, f 8;
#X obj 77 15 inlet min;
#X obj 146 15 inlet max;
#X connect 0 0 1 0;
#X connect 1 0 9 0;
#X connect 3 0 8 0;
#X connect 3 0 9 1;
#X connect 4 0 3 0;
#X connect 4 0 5 0;
#X connect 5 0 6 0;
#X connect 6 0 7 0;
#X connect 7 0 1 1;
#X connect 8 0 7 0;
#X connect 8 1 7 1;
#X connect 9 0 2 0;
#X connect 10 0 3 0;
#X connect 11 0 5 0;
