#N canvas 670 53 1067 843 8;
#X obj 153 186 vline~;
#X obj 153 206 pow~ 3;
#X obj 153 276 *~;
#X obj 242 88 noise~;
#X obj 255 170 vline~;
#X msg 255 147 1 \, 0 \$1;
#X obj 153 327 +~;
#X obj 398 171 +~;
#X obj 398 191 osc~;
#X obj 410 121 osc~;
#X obj 398 291 *~;
#X obj 461 256 vline~;
#X obj 410 101 *~ 2;
#X obj 153 96 t b b b b;
#X obj 195 73 s \$0-sync;
#X obj 340 121 r \$0-sync;
#X msg 340 141 0;
#X msg 461 233 1 \, 0 \$1;
#X obj 255 190 pow~ 8;
#X obj 255 238 +~ 2500;
#X obj 255 111 f 25;
#X obj 242 261 vcf~ 8;
#X obj 398 74 mtof~;
#X obj 398 51 sig~ 30;
#X obj 410 141 *~ 25;
#X obj 255 211 *~ 1000;
#X obj 461 276 pow~ 4;
#X obj 461 111 f 100;
#X obj 20 20 cnv 15 105 95 empty empty ☰snr☰ 2 8 0 10 #404040 #bbbbbb
0;
#X obj 101 27 vsl 20 80 25 1000 0 0 \$0-s-vsld-rel \$0-r-vsld-rel empty
0 -9 0 10 #606060 #faff00 #ffffff 0 1;
#X obj 56 98 nbx 4 12 1 50 0 0 \$0-s-n2-dist \$0-r-n2-dist Dist. -32
6 0 8 #000000 #faff00 #ffffff 0 256;
#X obj 25 60 nbx 4 12 24 60 0 0 \$0-s-n2-tone \$0-r-n2-tone Tone 40
6 0 8 #404040 #faff00 #ffffff 0 256;
#X obj 25 78 nbx 4 12 0 100 0 0 \$0-s-n2-vol \$0-r-n2-vol Vol 40 6
0 8 #404040 #faff00 #ffffff 0 256;
#X obj 56 39 nbx 4 12 500 4000 0 0 \$0-s-n2-filter \$0-r-n2-filter
Filter -32 6 0 8 #bbbbbb #000000 #ffffff 0 256;
#X obj 87 26 cnv 4 6 6 empty \$0-r-cnv-trg empty 20 12 0 14 #bcbcbc
#fcfcfc 0;
#X obj 68 24 bng 10 100 50 0 \$0-s-bng-test \$0-r-bng-test empty 17
7 0 10 #faff00 #202020 #000000;
#N canvas 928 295 604 460 loadbang 0;
#X obj 33 16 loadbang;
#X msg 129 56 2;
#X obj 129 80 s \$0-r-n2-dist;
#X obj 160 56 s \$0-r-vsld-rel;
#X obj 33 156 s \$0-r-n2-filter;
#X obj 65 127 s \$0-r-n2-tone;
#X obj 98 103 s \$0-r-n2-vol;
#X msg 160 31 400;
#X msg 33 129 2500;
#X msg 65 104 48;
#X msg 98 80 50;
#X connect 0 0 8 0;
#X connect 0 0 9 0;
#X connect 0 0 10 0;
#X connect 0 0 1 0;
#X connect 0 0 7 0;
#X connect 1 0 2 0;
#X connect 7 0 3 0;
#X connect 8 0 4 0;
#X connect 9 0 5 0;
#X connect 10 0 6 0;
#X restore 267 14 pd loadbang;
#N canvas 593 220 604 482 rel 0;
#X obj 37 7 inlet;
#X obj 109 135 f 400;
#X obj 131 109 r \$0-s-vsld-rel;
#X obj 37 209 outlet;
#X obj 37 169 pack f f, f 15;
#X obj 37 38 t b b, f 15;
#X obj 37 138 f 1;
#X obj 49 92 r \$0-vel;
#X obj 49 112 / 127;
#X connect 0 0 5 0;
#X connect 1 0 4 1;
#X connect 2 0 1 1;
#X connect 4 0 3 0;
#X connect 5 0 6 0;
#X connect 5 1 1 0;
#X connect 6 0 4 0;
#X connect 7 0 8 0;
#X connect 8 0 6 1;
#X restore 153 130 pd rel;
#X obj 303 223 r \$0-s-n2-filter;
#X obj 398 30 r \$0-s-n2-tone;
#X obj 153 357 expr~ tanh($v1*$v2);
#X obj 261 336 r \$0-s-n2-dist;
#X obj 261 356 sig~ 2;
#N canvas 0 0 450 300 vol 0;
#X obj 37 14 r \$0-s-n2-vol;
#X obj 37 34 / 100;
#X obj 37 54 pack 0 20;
#X obj 37 74 line~;
#X obj 37 94 outlet~;
#X connect 0 0 1 0;
#X connect 1 0 2 0;
#X connect 2 0 3 0;
#X connect 3 0 4 0;
#X restore 423 312 pd vol;
#X obj 398 312 *~;
#N canvas 928 122 681 741 receive 0;
#X obj 29 8 inlet;
#X obj 261 73 outlet;
#X obj 168 192 clip 1 50;
#N canvas 1406 440 450 300 trg 0;
#X obj 30 12 inlet;
#X obj 30 32 t b;
#X obj 30 102 s \$0-r-cnv-trg;
#X obj 96 47 del 50;
#X msg 30 52 color 0 0 0;
#X msg 96 67 color 20 0 0;
#X connect 0 0 1 0;
#X connect 1 0 3 0;
#X connect 1 0 4 0;
#X connect 3 0 5 0;
#X connect 4 0 2 0;
#X connect 5 0 2 0;
#X restore 278 48 pd trg;
#X obj 39 30 r \$0-s-bng-test;
#X obj 168 211 s \$0-r-n2-dist;
#X obj 215 163 s \$0-r-vsld-rel;
#X obj 29 339 s \$0-r-n2-filter;
#X obj 75 297 s \$0-r-n2-tone;
#X obj 122 255 s \$0-r-n2-vol;
#X obj 215 144 clip 25 1000;
#X obj 29 320 clip 500 4000;
#X obj 75 278 clip 24 60;
#X obj 122 236 clip 0 100;
#X obj 239 111 s \$0-vel;
#X obj 29 49 route filter tone vol dist rel vel, f 47;
#X connect 0 0 15 0;
#X connect 2 0 5 0;
#X connect 4 0 15 0;
#X connect 10 0 6 0;
#X connect 11 0 7 0;
#X connect 12 0 8 0;
#X connect 13 0 9 0;
#X connect 15 0 11 0;
#X connect 15 1 12 0;
#X connect 15 2 13 0;
#X connect 15 3 2 0;
#X connect 15 4 10 0;
#X connect 15 5 14 0;
#X connect 15 6 3 0;
#X connect 15 6 1 0;
#X restore 153 53 pd receive;
#X msg 153 163 \$1 \, 0 \$2;
#X obj 153 30 r mc.snr~;
#X obj 153 381 s~ mc.snr;
#X connect 0 0 1 0;
#X connect 1 0 2 0;
#X connect 2 0 6 0;
#X connect 3 0 21 0;
#X connect 4 0 18 0;
#X connect 5 0 4 0;
#X connect 6 0 40 0;
#X connect 7 0 8 0;
#X connect 8 0 10 0;
#X connect 9 0 24 0;
#X connect 10 0 44 0;
#X connect 11 0 26 0;
#X connect 12 0 9 0;
#X connect 13 0 37 0;
#X connect 13 1 20 0;
#X connect 13 2 27 0;
#X connect 13 3 14 0;
#X connect 15 0 16 0;
#X connect 16 0 9 1;
#X connect 16 0 8 1;
#X connect 17 0 11 0;
#X connect 18 0 25 0;
#X connect 19 0 21 1;
#X connect 20 0 5 0;
#X connect 21 0 2 1;
#X connect 22 0 7 0;
#X connect 22 0 12 0;
#X connect 23 0 22 0;
#X connect 24 0 7 1;
#X connect 25 0 19 0;
#X connect 26 0 10 1;
#X connect 27 0 17 0;
#X connect 37 0 46 0;
#X connect 38 0 19 1;
#X connect 39 0 23 0;
#X connect 40 0 48 0;
#X connect 41 0 42 0;
#X connect 42 0 40 1;
#X connect 43 0 44 1;
#X connect 44 0 6 1;
#X connect 45 0 13 0;
#X connect 46 0 0 0;
#X connect 47 0 45 0;
#X coords 0 -1 1 1 105 95 2 20 20;
