#N canvas 814 301 584 497 10;
#N canvas 418 187 536 762 mscale 0;
#X obj 15 74 / 12;
#X obj 15 263 * 12;
#X obj 15 221 -, f 5;
#X obj 15 137 i;
#X obj 15 116 + 0.5;
#X obj 15 284 +;
#X obj 42 179 mod;
#X obj 15 347 outlet;
#X obj 15 95 * 1;
#X obj 15 242 / 1;
#X obj 69 242 list store, f 16;
#X obj 135 57 t a a;
#X obj 135 78 list length;
#X msg 69 221 get \$1 1;
#X obj 15 158 t f f;
#X obj 42 200 t f f;
#X obj 69 267 +;
#X obj 84 36 mod 12;
#X obj 15 326 moses;
#X obj 15 305 moses 128;
#X obj 15 53 -;
#X text 162 325 by ??;
#X obj 15 11 inlet midi;
#X obj 84 15 inlet root;
#X obj 135 36 inlet scale-list;
#X obj 159 14 r \$0-lb-root;
#X connect 0 0 8 0;
#X connect 1 0 5 0;
#X connect 2 0 9 0;
#X connect 3 0 14 0;
#X connect 4 0 3 0;
#X connect 5 0 19 0;
#X connect 6 0 15 0;
#X connect 8 0 4 0;
#X connect 9 0 1 0;
#X connect 10 0 16 0;
#X connect 11 0 12 0;
#X connect 11 1 10 1;
#X connect 12 0 8 1;
#X connect 12 0 9 1;
#X connect 12 0 6 1;
#X connect 13 0 10 0;
#X connect 14 0 2 0;
#X connect 14 1 6 0;
#X connect 15 0 2 1;
#X connect 15 1 13 0;
#X connect 16 0 5 1;
#X connect 17 0 16 1;
#X connect 17 0 20 1;
#X connect 18 1 7 0;
#X connect 19 0 18 0;
#X connect 20 0 0 0;
#X connect 22 0 20 0;
#X connect 23 0 17 0;
#X connect 24 0 11 0;
#X connect 25 0 17 0;
#X restore 161 94 pd mscale;
#X obj 161 116 outlet;
#X symbolatom 20 20 19 0 0 1 - \$0-r-scale_display \$0-s-scale_display
8;
#X obj 212 72 r \$0-scale;
#N canvas 126 66 853 739 scale-list 0;
#X obj 154 28 r \$0-s-scale_sel_l;
#X obj 265 70 r \$0-s-scale_sel_r;
#X obj 183 191 + 1, f 5;
#X obj 154 271 route scale, f 14;
#X obj 154 317 s \$0-r-scale_display;
#X obj 154 294 symbol;
#X obj 235 293 s \$0-scale;
#X obj 154 191 i 0;
#X msg 282 120 1;
#X msg 210 73 -1;
#X obj 154 50 t b b b, f 10;
#X obj 265 92 t b b b, f 9;
#X obj 86 123 r \$0-s-rnd_scale;
#X obj 78 98 loadbang;
#X obj 47 189 r \$0-lb-scale;
#N canvas 1295 10 1176 987 list 0;
#X obj 10 9 inlet;
#X obj 10 711 outlet;
#X msg 10 59 0 2 4 5 7 9 11 \, scale 0-Ionian(major);
#X msg 24 83 0 2 3 5 7 9 10 \, scale 1-Dorian;
#X msg 39 105 0 1 3 5 7 8 10 \, scale 2-Phrygian;
#X msg 53 129 0 2 4 6 7 9 11 \, scale 3-Lydian;
#X msg 68 151 0 2 4 5 7 9 10 \, scale 4-Mixolydian;
#X msg 83 175 0 2 3 5 7 8 10 \, scale 5-Aeolian(minor);
#X msg 93 200 0 1 3 5 6 8 10 \, scale 6-Locrian;
#X msg 147 343 0 1 4 5 7 8 11 \, scale 12-Byzantine;
#X msg 157 367 0 2 3 6 7 8 11 \, scale 13-Hungarian;
#X msg 196 462 0 2 4 6 8 10 \, scale 17-Whole;
#X msg 219 534 0 3 4 7 8 11 \, scale 20-Augmented;
#X msg 229 556 0 1 4 6 8 10 11 \, scale 21-Engimatic(asc);
#X msg 235 579 0 1 4 5 8 10 11 \, scale 22-Engimatic(desc);
#X msg 261 650 0 2 4 6 7 9 10 \, scale 25-Overtone;
#X msg 268 673 0 2 4 6 9 10 \, scale 26-Prometheus;
#X msg 276 695 1 3 6 8 10 \, scale 27-Blackies;
#X obj 10 34 sel 0 1 2 3 4 5 6 7 8 9 10 11 12 13 14 15 16 17 18 19
20 21 22 23 24 25 26 27, f 80;
#X msg 103 225 0 2 4 5 7 9 10 11 \, scale 7-Bebop_Dominant;
#X msg 111 249 0 2 4 5 7 8 9 11 \, scale 8-Bebop_Major;
#X msg 119 273 0 2 3 4 5 7 9 10 \, scale 9-Bebop_Minor;
#X msg 127 297 0 2 3 4 7 9 \, scale 10-Blues_Major;
#X msg 139 320 0 3 5 6 7 10 \, scale 11-Blues_Minor;
#X msg 169 390 0 1 4 5 7 8 10 \, scale 14-Spanish_Gypsy;
#X msg 180 414 0 2 4 7 9 \, scale 15-Major_Penta;
#X msg 188 437 0 3 5 7 10 \, scale 16-Minor_Penta;
#X msg 202 486 0 2 3 5 6 8 9 11 \, scale 18-Whole_Half;
#X msg 213 511 0 1 3 4 6 7 9 10 \, scale 19-Half_Whole;
#X msg 243 602 0 1 3 5 7 9 11 \, scale 23-Neapolitan_Major;
#X msg 251 627 0 1 3 5 7 8 11 \, scale 24-Neapolitan_Minor;
#X connect 0 0 18 0;
#X connect 2 0 1 0;
#X connect 3 0 1 0;
#X connect 4 0 1 0;
#X connect 5 0 1 0;
#X connect 6 0 1 0;
#X connect 7 0 1 0;
#X connect 8 0 1 0;
#X connect 9 0 1 0;
#X connect 10 0 1 0;
#X connect 11 0 1 0;
#X connect 12 0 1 0;
#X connect 13 0 1 0;
#X connect 14 0 1 0;
#X connect 15 0 1 0;
#X connect 16 0 1 0;
#X connect 17 0 1 0;
#X connect 18 0 2 0;
#X connect 18 1 3 0;
#X connect 18 2 4 0;
#X connect 18 3 5 0;
#X connect 18 4 6 0;
#X connect 18 5 7 0;
#X connect 18 6 8 0;
#X connect 18 7 19 0;
#X connect 18 8 20 0;
#X connect 18 9 21 0;
#X connect 18 10 22 0;
#X connect 18 11 23 0;
#X connect 18 12 9 0;
#X connect 18 13 10 0;
#X connect 18 14 24 0;
#X connect 18 15 25 0;
#X connect 18 16 26 0;
#X connect 18 17 11 0;
#X connect 18 18 27 0;
#X connect 18 19 28 0;
#X connect 18 20 12 0;
#X connect 18 21 13 0;
#X connect 18 22 14 0;
#X connect 18 23 29 0;
#X connect 18 24 30 0;
#X connect 18 25 15 0;
#X connect 18 26 16 0;
#X connect 18 27 17 0;
#X connect 19 0 1 0;
#X connect 20 0 1 0;
#X connect 21 0 1 0;
#X connect 22 0 1 0;
#X connect 23 0 1 0;
#X connect 24 0 1 0;
#X connect 25 0 1 0;
#X connect 26 0 1 0;
#X connect 27 0 1 0;
#X connect 28 0 1 0;
#X connect 29 0 1 0;
#X connect 30 0 1 0;
#X restore 154 239 pd list;
#X obj 154 217 mod 28;
#X obj 78 148 random 28;
#X connect 0 0 10 0;
#X connect 1 0 11 0;
#X connect 2 0 7 1;
#X connect 3 0 5 0;
#X connect 3 1 6 0;
#X connect 5 0 4 0;
#X connect 7 0 2 0;
#X connect 7 0 16 0;
#X connect 8 0 2 1;
#X connect 9 0 2 1;
#X connect 10 0 7 0;
#X connect 10 1 2 0;
#X connect 10 2 9 0;
#X connect 11 0 7 0;
#X connect 11 1 2 0;
#X connect 11 2 8 0;
#X connect 12 0 17 0;
#X connect 13 0 17 0;
#X connect 14 0 7 0;
#X connect 15 0 3 0;
#X connect 16 0 15 0;
#X connect 17 0 7 0;
#X restore 16 104 pd scale-list;
#X obj 37 39 tgl 12 0 \$0-s-scale_sel_r \$0-r-scale_sel_r ▶ 4 5 0
10 #606060 #606060 #fcfcfc 0 1;
#X obj 21 39 tgl 12 0 \$0-s-scale_sel_l \$0-r-scale_sel_l ◀ 3 5 0
10 #606060 #606060 #fcfcfc 0 1;
#N canvas 1726 155 670 503 tgl-scale-sel 0;
#X obj 25 19 r \$0-s-scale_sel_l;
#X obj 25 157 s \$0-r-scale_sel_l;
#X obj 25 41 t b;
#X msg 25 124 color 5 5 0;
#X msg 53 95 color 21 21 0;
#X obj 162 41 t b;
#X msg 162 124 color 5 5 0;
#X msg 190 95 color 21 21 0;
#X obj 162 19 r \$0-s-scale_sel_r;
#X obj 162 157 s \$0-r-scale_sel_r;
#X obj 53 72 del 60;
#X obj 190 72 del 60;
#X connect 0 0 2 0;
#X connect 2 0 3 0;
#X connect 2 0 10 0;
#X connect 3 0 1 0;
#X connect 4 0 1 0;
#X connect 5 0 6 0;
#X connect 5 0 11 0;
#X connect 6 0 9 0;
#X connect 7 0 9 0;
#X connect 8 0 5 0;
#X connect 10 0 4 0;
#X connect 11 0 7 0;
#X restore 16 73 pd tgl-scale-sel;
#X obj 75 39 bng 13 250 50 0 \$0-s-rnd_scale \$0-r-rnd_scale random
15 7 0 8 #c6ffc7 #202020 #ffffff;
#X obj 161 18 inlet midi;
#X obj 186 48 inlet root;
#X obj 18 130 r midi.quant;
#X obj 18 152 route scale root;
#X obj 64 173 s \$0-lb-root;
#X obj 18 195 s \$0-lb-scale;
#X connect 0 0 1 0;
#X connect 3 0 0 2;
#X connect 9 0 0 0;
#X connect 10 0 0 1;
#X connect 11 0 12 0;
#X connect 12 0 14 0;
#X connect 12 1 13 0;
#X coords 0 -1 1 1 113 42 2 15 15;
