#N canvas 232 257 1646 935 10;
#X obj 36 426 gemwin;
#X msg 56 84 0 \, destroy;
#X text 104 59 ABRIR;
#X text 126 85 FECHAR;
#X msg 66 117 color 1 1 1;
#X msg 78 144 color 0 0 0;
#X text 140 117 FUNDO BRANCO;
#X text 150 144 FUNDO PRETO;
#X msg 98 224 border \$1;
#X text 162 225 BORDA DA JANELA;
#X msg 112 299 frame \$1;
#X obj 168 255 loadbang;
#X msg 168 275 30;
#X text 170 298 FPS;
#X msg 126 353 float \$1;
#X text 183 354 RENDER ON/OFF;
#X msg 127 400 topmost \$1;
#X text 196 400 ALWAYS ON TOP;
#X obj 355 55 tgl 15 0 \$0-open-close \$0-open-close-lb window 17 7
0 10 -262144 -1 -1 1 1;
#X obj 36 10 r \$0-open-close;
#X obj 36 32 sel 1 0;
#X obj 483 55 tgl 15 0 \$0-border \$0-border-lb borda 17 7 0 10 -262144
-1 -1 1 1;
#X obj 98 203 r \$0-border;
#X obj 417 55 tgl 15 0 \$0-topmost empty topmost 17 7 0 10 -262144
-1 -1 0 1;
#X obj 127 379 r \$0-topmost;
#X obj 486 139 tgl 15 0 \$0-render empty render 17 7 0 10 -262144 -1
-1 0 1;
#X obj 126 332 r \$0-render;
#X floatatom 355 75 5 0 0 1 FPS #0-fps-lb #0-fps;
#X obj 112 263 r \$0-fps;
#X obj 205 292 s \$0-fps-lb;
#X obj 478 77 bng 15 250 50 0 \$0-bg-white \$0-bg-white-lb W 5 8 0
10 -262144 -1 -1;
#X obj 231 100 r \$0-bg-white;
#X obj 496 77 bng 15 250 50 0 \$0-bg-black \$0-bg-black-lb B 5 8 0
10 -262144 -1 -1;
#X obj 514 77 bng 15 250 50 0 \$0-bg-gray \$0-bg-gray-lb G 5 8 0 10
-262144 -1 -1;
#X obj 233 127 r \$0-bg-black;
#X obj 241 150 r \$0-bg-gray;
#X obj 707 182 bng 15 250 50 0 \$0-reset \$0-reset-lb R 5 8 0 10 -260097
-1 -1;
#X obj 317 347 r \$0-reset;
#X obj 315 419 s \$0-open-close-lb;
#X msg 315 398 0;
#X msg 345 399 reset;
#X obj 317 369 t b b;
#X msg 528 377 dimen \$1 \$2;
#X msg 432 332 offset \$1 \$2;
#X obj 528 354 pack 500 500;
#X obj 432 308 pack 1300 50;
#X floatatom 549 138 7 0 0 1 move-X #0-offset-x-lb #0-offset-x;
#X floatatom 549 158 7 0 0 1 move-Y #0-offset-y-lb #0-offset-y;
#X obj 432 234 r \$0-offset-x;
#X obj 474 257 r \$0-offset-y;
#X obj 474 279 t b f;
#N canvas 0 50 705 569 loadbang 0;
#X obj 29 74 s \$0-border-lb;
#X obj 29 29 loadbang;
#X msg 29 51 1;
#X obj 75 175 s \$0-offset-x-lb;
#X obj 75 128 loadbang;
#X msg 75 150 1300;
#X msg 115 151 50;
#X obj 114 198 s \$0-offset-y-lb;
#X obj 174 43 loadbang;
#X msg 174 65 500;
#X msg 214 66 500;
#X obj 174 90 s \$0-dimen-x-lb;
#X obj 213 113 s \$0-dimen-y-lb;
#X connect 1 0 2 0;
#X connect 2 0 0 0;
#X connect 4 0 5 0;
#X connect 4 0 6 0;
#X connect 5 0 3 0;
#X connect 6 0 7 0;
#X connect 8 0 9 0;
#X connect 8 0 10 0;
#X connect 9 0 11 0;
#X connect 10 0 12 0;
#X restore 292 198 pd loadbang;
#X floatatom 636 139 7 0 0 1 dimen-X #0-dimen-x-lb #0-dimen-x;
#X floatatom 636 159 7 0 0 1 dimen-Y #0-dimen-y-lb #0-dimen-y;
#X obj 570 327 t b f;
#X obj 528 282 r \$0-dimen-x;
#X obj 570 305 r \$0-dimen-y;
#X obj 36 450 route mouse keyboard dimen offset info;
#X obj 126 474 unpack;
#X floatatom 126 493 5 0 0 0 - - gemwin-x;
#X floatatom 165 494 5 0 0 0 - - gemwin-y;
#X msg 36 59 create \, 1;
#X obj 295 235 loadbang;
#X text 565 182 *NEEDS NEWER VERSION;
#X obj 204 475 unpack;
#X floatatom 204 494 5 0 0 0 - - gemwin-x;
#X floatatom 243 495 5 0 0 0 - - gemwin-y;
#X msg 295 306 dimen 1920 1080;
#X msg 86 167 color 0 1 0;
#X text 180 171 FUNDO VERDE;
#X msg 416 376 lighting \$1;
#X obj 416 355 r \$0-light;
#X obj 417 77 tgl 15 0 \$0-light \$0-light-lb ligth 17 7 0 10 -262144
-1 -1 0 1;
#X msg 295 284 dimen 400 400;
#X obj 55 371 inlet;
#X msg 311 262 offset 1000 100;
#X connect 0 0 57 0;
#X connect 1 0 0 0;
#X connect 4 0 0 0;
#X connect 5 0 0 0;
#X connect 8 0 0 0;
#X connect 10 0 0 0;
#X connect 11 0 12 0;
#X connect 12 0 10 0;
#X connect 12 0 29 0;
#X connect 14 0 0 0;
#X connect 16 0 0 0;
#X connect 19 0 20 0;
#X connect 20 0 61 0;
#X connect 20 1 1 0;
#X connect 22 0 8 0;
#X connect 24 0 16 0;
#X connect 26 0 14 0;
#X connect 28 0 10 0;
#X connect 31 0 4 0;
#X connect 34 0 5 0;
#X connect 35 0 68 0;
#X connect 37 0 41 0;
#X connect 39 0 38 0;
#X connect 40 0 0 0;
#X connect 41 0 39 0;
#X connect 41 1 40 0;
#X connect 42 0 0 0;
#X connect 43 0 0 0;
#X connect 44 0 42 0;
#X connect 45 0 43 0;
#X connect 48 0 45 0;
#X connect 49 0 50 0;
#X connect 50 0 45 0;
#X connect 50 1 45 1;
#X connect 54 0 44 0;
#X connect 54 1 44 1;
#X connect 55 0 44 0;
#X connect 56 0 54 0;
#X connect 57 2 58 0;
#X connect 57 3 64 0;
#X connect 58 0 59 0;
#X connect 58 1 60 0;
#X connect 61 0 0 0;
#X connect 62 0 73 0;
#X connect 62 0 75 0;
#X connect 64 0 65 0;
#X connect 64 1 66 0;
#X connect 67 0 0 0;
#X connect 68 0 0 0;
#X connect 70 0 0 0;
#X connect 71 0 70 0;
#X connect 73 0 0 0;
#X connect 74 0 0 0;
#X connect 75 0 0 0;
#X coords 0 -1 1 1 185 47 2 350 50;
