#N canvas 1116 154 809 722 10;
#N canvas 216 216 513 638 open 0;
#X obj 95 28 inlet;
#X msg 38 238 open \$1;
#N canvas 71 152 548 438 directory 0;
#X obj 25 184 outlet;
#X obj 25 62 sel 0 1;
#X obj 25 38 inlet;
#X msg 25 98 symbol D:/Pictures;
#X msg 44 124 symbol D:/Pictures/Morbus/Red;
#X connect 1 0 3 0;
#X connect 1 1 4 0;
#X connect 2 0 1 0;
#X connect 3 0 0 0;
#X connect 4 0 0 0;
#X restore 95 97 pd directory;
#X msg 95 67 0;
#X msg 125 67 1;
#X obj 134 28 inlet;
#X obj 38 262 outlet;
#X obj 38 189 list store;
#X obj 110 146 list length;
#X obj 95 120 openpanel 2;
#X floatatom 110 168 5 0 0 0 - - #0-list-length;
#X msg 38 167 get \$1 1;
#X obj 38 145 inlet;
#X obj 47 213 print current-image;
#X obj 185 182 s \$0-img-sel-receive, f 7;
#X obj 185 137 t b;
#X msg 185 159 0;
#X obj 109 294 s \$0-img-sel-receive;
#X msg 109 268 range 0 \$1;
#X obj 109 242 r \$0-list-length;
#X connect 0 0 3 0;
#X connect 1 0 6 0;
#X connect 2 0 9 0;
#X connect 3 0 2 0;
#X connect 4 0 2 0;
#X connect 5 0 4 0;
#X connect 7 0 1 0;
#X connect 7 0 13 0;
#X connect 8 0 10 0;
#X connect 9 0 7 1;
#X connect 9 0 8 0;
#X connect 9 0 15 0;
#X connect 11 0 7 0;
#X connect 12 0 11 0;
#X connect 15 0 16 0;
#X connect 16 0 14 0;
#X connect 18 0 17 0;
#X connect 19 0 18 0;
#X restore 67 80 pd open;
#X obj 87 32 r \$0-open1;
#X obj 106 55 r \$0-open2;
#X obj 21 129 pix_info, f 23;
#X obj 39 154 pack;
#X obj 21 102 pix_image;
#X obj 21 55 inlet;
#X obj 21 295 outlet;
#X obj 39 176 outlet;
#X obj 226 106 bng 15 250 50 0 \$0-open1 \$0-open1-lb L 5 8 0 10 -204786
-1 -1;
#X obj 246 106 bng 15 250 50 0 \$0-open2 \$0-open2-lb L 5 8 0 10 -203904
-1 -1;
#X obj 87 171 s \$0-resolution;
#X obj 189 13 r \$0-resolution;
#X obj 67 9 r \$0-img-sel;
#X obj 265 105 nbx 2 16 0 18 0 0 \$0-img-sel \$0-img-sel-receive empty
0 -8 0 10 -262144 -1 -1 1 256;
#X msg 189 59 1050 1170;
#X msg 189 35 set \$1 \$2;
#X obj 268 36 inlet;
#X obj 268 58 s \$0-img-sel-receive;
#X obj 21 267 translateXYZ, f 24;
#X obj 68 245 / 10;
#X obj 229 125 hsl 63 12 100 -100 0 0 \$0-pos-x \$0-pos-lb-x X 0 6
0 10 -262144 -1 -1 6200 1;
#X obj 162 245 / 10;
#X obj 115 245 / 10;
#X obj 229 140 hsl 63 12 -100 100 0 0 \$0-pos-y \$0-pos-lb-y Y 0 6
0 10 -262144 -1 -1 6200 1;
#X obj 229 155 hsl 63 12 -100 100 0 0 \$0-pos-z \$0-pos-lb-z Z 0 6
0 10 -262144 -1 -1 6200 1;
#X obj 68 202 r \$0-pos-x;
#X obj 115 223 r \$0-pos-y;
#X obj 162 202 r \$0-pos-z;
#N canvas 534 229 483 463 xyl-loadbang 0;
#X obj 43 150 s \$0-pos-lb-x;
#X obj 43 12 loadbang;
#X msg 43 72 0;
#X obj 53 125 s \$0-pos-lb-y;
#X obj 63 102 s \$0-pos-lb-z;
#X obj 100 11 r \$0-img-sel;
#X obj 100 33 t b;
#X obj 100 55 del 2;
#X connect 1 0 2 0;
#X connect 2 0 0 0;
#X connect 2 0 3 0;
#X connect 2 0 4 0;
#X connect 5 0 6 0;
#X connect 6 0 7 0;
#X connect 7 0 2 0;
#X restore 291 193 pd xyl-loadbang;
#X connect 0 0 5 0;
#X connect 1 0 0 1;
#X connect 2 0 0 2;
#X connect 3 0 19 0;
#X connect 3 1 4 0;
#X connect 3 2 4 1;
#X connect 4 0 8 0;
#X connect 4 0 11 0;
#X connect 5 0 3 0;
#X connect 6 0 5 0;
#X connect 12 0 16 0;
#X connect 13 0 0 0;
#X connect 16 0 15 0;
#X connect 17 0 18 0;
#X connect 19 0 7 0;
#X connect 20 0 19 1;
#X connect 22 0 19 3;
#X connect 23 0 19 2;
#X connect 26 0 20 0;
#X connect 27 0 23 0;
#X connect 28 0 22 0;
#X coords 0 -1 1 1 80 73 2 220 100;
