#N canvas 796 154 844 760 10;
#X obj 28 181 pix_film;
#X obj 28 15 inlet;
#X obj 28 323 outlet;
#X obj 256 56 bng 15 250 50 0 \$0-open1 \$0-open1-lb L 5 8 0 10 -204786
-1 -1;
#X obj 276 56 bng 15 250 50 0 \$0-open2 \$0-open2-lb L 5 8 0 10 -203904
-1 -1;
#N canvas 314 215 702 675 open 0;
#X obj 46 12 inlet;
#N canvas 510 175 548 438 directory 0;
#X obj 25 184 outlet;
#X obj 25 62 sel 0 1;
#X obj 25 38 inlet;
#X msg 25 98 symbol D:/Videos/For-Pd;
#X msg 44 124 symbol D:/Videos/Mor/RedVids/Pd_avi;
#X connect 1 0 3 0;
#X connect 1 1 4 0;
#X connect 2 0 1 0;
#X connect 3 0 0 0;
#X connect 4 0 0 0;
#X restore 46 81 pd directory;
#X msg 46 51 0;
#X msg 76 51 1;
#X obj 85 12 inlet;
#X msg 13 227 open \$1;
#X obj 13 251 outlet;
#X obj 13 178 list store;
#X obj 85 135 list length;
#X obj 70 109 openpanel 2;
#X floatatom 85 157 5 0 0 0 - - #0-list-length;
#X msg 13 156 get \$1 1;
#X obj 13 134 inlet;
#X obj 160 171 s \$0-img-sel-receive, f 7;
#X obj 160 126 t b;
#X msg 160 148 0;
#X obj 84 283 s \$0-img-sel-receive;
#X msg 84 257 range 0 \$1;
#X obj 84 231 r \$0-list-length;
#X obj 22 202 print current-video;
#X connect 0 0 2 0;
#X connect 1 0 9 0;
#X connect 2 0 1 0;
#X connect 3 0 1 0;
#X connect 4 0 3 0;
#X connect 5 0 6 0;
#X connect 7 0 5 0;
#X connect 7 0 19 0;
#X connect 8 0 10 0;
#X connect 9 0 7 1;
#X connect 9 0 8 0;
#X connect 9 0 14 0;
#X connect 11 0 7 0;
#X connect 12 0 11 0;
#X connect 14 0 15 0;
#X connect 15 0 13 0;
#X connect 17 0 16 0;
#X connect 18 0 17 0;
#X restore 42 108 pd open;
#X obj 50 206 unpack f f f f, f 19;
#X floatatom 50 227 5 0 0 3 lenght - #0-lenght;
#X floatatom 87 248 5 0 0 3 largura - -;
#X floatatom 124 226 5 0 0 3 altura - -;
#X floatatom 161 247 5 0 0 3 fps - #0-fps;
#X obj 207 75 hsl 82 15 0 3548 0 0 \$0-timeline-sel \$0-timeline f=3548
52 10 0 8 -262144 -1 -1 0 1;
#X obj 288 261 s \$0-timeline;
#X msg 288 233 range 0 \$1;
#X obj 288 209 r \$0-lenght;
#X msg 361 233 0;
#N canvas 916 131 850 642 playblack 0;
#X obj 131 136 i;
#X obj 160 137 + 1;
#X obj 131 200 mod;
#X obj 146 156 r \$0-lenght;
#X obj 131 223 s \$0-timeline;
#X obj 213 61 r \$0-lenght;
#X msg 213 83 0;
#X obj 146 178 + 1;
#X obj 244 84 r \$0-timeline-sel;
#X obj 48 232 outlet;
#X obj 131 14 inlet;
#X obj 176 38 inlet;
#X obj 235 256 s \$0-speed-lb;
#X obj 235 213 loadbang;
#X msg 235 235 30;
#X obj 329 128 r \$0-fps;
#X floatatom 329 196 5 0 0 0 - - -;
#X obj 329 174 /;
#X msg 329 152 900 \$1;
#X obj 244 113 spigot;
#X obj 277 31 == 0;
#X floatatom 58 196 5 0 0 0 - - -;
#X obj 12 108 r \$0-frame-random;
#X obj 131 84 metro 33.33;
#X connect 0 0 1 0;
#X connect 0 0 2 0;
#X connect 1 0 0 1;
#X connect 2 0 4 0;
#X connect 2 0 9 0;
#X connect 2 0 21 0;
#X connect 3 0 7 0;
#X connect 5 0 6 0;
#X connect 6 0 0 1;
#X connect 7 0 2 1;
#X connect 8 0 19 0;
#X connect 10 0 20 0;
#X connect 10 0 23 0;
#X connect 11 0 23 1;
#X connect 13 0 14 0;
#X connect 14 0 12 0;
#X connect 15 0 18 0;
#X connect 17 0 16 0;
#X connect 18 0 17 0;
#X connect 19 0 0 1;
#X connect 20 0 19 1;
#X connect 22 0 0 1;
#X connect 23 0 0 0;
#X restore 73 156 pd playblack;
#X obj 204 55 tgl 16 0 \$0-play \$0-play-lb empty 17 7 0 10 -262144
-1 -1 0 1;
#X obj 62 65 r \$0-open1;
#X obj 80 84 r \$0-open2;
#X obj 73 132 r \$0-play;
#X floatatom 308 112 4 0 0 0 - #0-speed-lb #0-speed;
#X obj 142 131 r \$0-speed;
#X msg 100 103 bang;
#X obj 147 331 s video-resolution;
#X obj 103 331 outlet;
#X obj 97 6 inlet;
#X obj 97 28 s \$0-frame-random;
#X obj 214 201 r \$0-lenght;
#X msg 292 182 label_pos \$1 \$2;
#X obj 223 55 nbx 2 16 0 1 0 0 \$0-img-sel \$0-img-sel-receive empty
0 -8 0 10 -262144 -1 -1 0 256;
#X obj 42 48 r \$0-img-sel;
#X text 337 112 FPS DISPLAY;
#X obj 308 60 inlet;
#X obj 308 86 s \$0-speed-lb;
#X obj 211 7 inlet;
#X obj 211 29 s \$0-img-sel-receive;
#X obj 103 295 pack;
#X obj 191 306 outlet;
#X obj 191 284 r \$0-lenght;
#X msg 214 228 label f=\$1;
#X connect 0 0 2 0;
#X connect 0 1 6 0;
#X connect 1 0 0 0;
#X connect 5 0 0 0;
#X connect 6 0 7 0;
#X connect 6 1 8 0;
#X connect 6 2 9 0;
#X connect 6 3 10 0;
#X connect 8 0 37 0;
#X connect 9 0 37 1;
#X connect 13 0 12 0;
#X connect 14 0 13 0;
#X connect 14 0 15 0;
#X connect 15 0 12 0;
#X connect 16 0 0 1;
#X connect 18 0 5 1;
#X connect 19 0 5 2;
#X connect 20 0 16 0;
#X connect 22 0 16 1;
#X connect 23 0 0 0;
#X connect 26 0 27 0;
#X connect 28 0 40 0;
#X connect 31 0 5 0;
#X connect 33 0 34 0;
#X connect 35 0 36 0;
#X connect 37 0 24 0;
#X connect 37 0 25 0;
#X connect 39 0 38 0;
#X connect 40 0 12 0;
#X coords 0 -1 1 1 95 45 2 200 50;
