#N canvas 1689 199 605 644 10;
#X floatatom 163 179 5 0 0 0 - - -;
#X obj 163 157 / 1000;
#X floatatom 56 176 5 0 0 0 - - -;
#X obj 56 154 / 1000;
#X floatatom 163 263 5 0 0 1 altura - -;
#X floatatom 56 260 5 0 0 0 largura - -;
#X obj 122 10 r video-resolution;
#X floatatom 56 128 5 0 0 0 - - -;
#X floatatom 163 130 5 0 0 0 - - -;
#X obj 163 241 * 3;
#X obj 56 238 * 3;
#X floatatom 105 182 5 0 0 0 - - -;
#X obj 105 203 t b f;
#X obj 56 281 outlet;
#X obj 163 285 outlet;
#X obj 56 7 inlet;
#X obj 105 157 f \$1;
#X obj 105 128 * 0.1;
#X obj 56 35 unpack f f f, f 36;
#X obj 105 59 inlet;
#X obj 18 89 loadbang;
#X obj 18 111 f \$1;
#X obj 204 91 loadbang;
#X obj 204 113 f \$2;
#X obj 115 79 loadbang;
#X obj 115 101 f \$3;
#X connect 0 0 9 0;
#X connect 1 0 0 0;
#X connect 2 0 10 0;
#X connect 3 0 2 0;
#X connect 4 0 14 0;
#X connect 5 0 13 0;
#X connect 7 0 3 0;
#X connect 8 0 1 0;
#X connect 9 0 4 0;
#X connect 10 0 5 0;
#X connect 11 0 12 0;
#X connect 12 0 10 0;
#X connect 12 0 9 0;
#X connect 12 1 10 1;
#X connect 12 1 9 1;
#X connect 15 0 18 0;
#X connect 16 0 11 0;
#X connect 17 0 16 0;
#X connect 18 0 7 0;
#X connect 18 1 8 0;
#X connect 18 2 17 0;
#X connect 19 0 17 0;
#X connect 20 0 21 0;
#X connect 21 0 7 0;
#X connect 22 0 23 0;
#X connect 23 0 8 0;
#X connect 24 0 25 0;
#X connect 25 0 17 0;
