#N canvas 1883 197 438 315 10;
#X obj 79 80 phasor~ 222;
#X obj 79 102 expr~ ($v1*2-1)*-1;
#X obj 79 124 outlet~;
#X obj 79 57 inlet~;
#X obj 142 57 inlet;
#X obj 20 19 loadbang;
#X obj 20 41 f \$1;
#X obj 20 63 sig~;
#X connect 0 0 1 0;
#X connect 1 0 2 0;
#X connect 3 0 0 0;
#X connect 4 0 0 1;
#X connect 5 0 6 0;
#X connect 6 0 7 0;
#X connect 7 0 0 0;
