#N canvas 1028 325 472 494 10;
#X obj 83 150 expr~ ($v1>0.5)*2-1;
#X obj 83 172 outlet~;
#X obj 83 128 phasor~;
#X obj 20 89 f \$1;
#X obj 20 65 loadbang;
#X obj 20 111 sig~;
#X obj 83 38 inlet~;
#X obj 122 100 inlet;
#X connect 0 0 1 0;
#X connect 2 0 0 0;
#X connect 3 0 5 0;
#X connect 4 0 3 0;
#X connect 5 0 2 0;
#X connect 6 0 2 0;
#X connect 7 0 2 1;
