#N canvas 1890 205 471 340 10;
#X obj 70 77 phasor~ 261;
#X obj 70 99 expr~ abs($v1-0.5)*4-1;
#X obj 70 121 outlet~;
#X obj 70 51 inlet~;
#X obj 133 52 inlet;
#X obj 22 16 loadbang;
#X obj 22 38 f \$1;
#X obj 22 60 sig~;
#X connect 0 0 1 0;
#X connect 1 0 2 0;
#X connect 3 0 0 0;
#X connect 4 0 0 1;
#X connect 5 0 6 0;
#X connect 6 0 7 0;
#X connect 7 0 0 0;
