#N canvas 149 79 1550 796 12;
#X floatatom 80 199 5 0 0 0 - - -;
#X obj 80 171 spigot;
#X obj 57 24 keyname;
#X floatatom 57 83 5 0 0 0 - - -;
#X obj 57 106 sel 0 1;
#X obj 57 138 bng 15 250 50 0 empty empty empty 17 7 0 10 -262144 -1
-1;
#X obj 80 138 bng 15 250 50 0 empty empty empty 17 7 0 10 -262144 -1
-1;
#X obj 57 54 change;
#X obj 8 124 key;
#X obj 8 152 change;
#X obj 80 227 sel 49 50 51 52 53 54 55 56 57, f 85;
#X obj 80 303 outlet;
#X obj 146 330 outlet;
#X obj 211 280 outlet;
#X obj 277 333 outlet;
#X obj 343 284 outlet;
#X obj 409 336 outlet;
#X obj 475 283 outlet;
#X obj 540 338 outlet;
#X obj 606 280 outlet;
#X obj 234 90 bng 15 150 50 0 nothing \$0-key49 1 5 8 0 10 -116512
-262144 -262144;
#X obj 252 90 bng 15 150 50 0 nothing \$0-key50 2 5 8 0 10 -116512
-262144 -262144;
#X obj 270 90 bng 15 150 50 0 empty \$0-key51 3 5 8 0 10 -116512 -262144
-262144;
#X obj 234 72 bng 15 150 50 0 nothing \$0-key52 4 5 8 0 10 -116512
-262144 -262144;
#X obj 252 72 bng 15 150 50 0 nothing \$0-key53 5 5 8 0 10 -116512
-262144 -262144;
#X obj 270 72 bng 15 150 50 0 nothing \$0-key54 6 5 8 0 10 -116512
-262144 -262144;
#X obj 234 54 bng 15 150 50 0 nothing \$0-key55 7 5 8 0 10 -116512
-262144 -262144;
#X obj 252 54 bng 15 150 50 0 nothing \$0-key56 8 5 8 0 10 -116512
-262144 -262144;
#X obj 270 54 bng 15 150 50 0 nothing \$0-key57 9 5 8 0 10 -116512
-262144 -262144;
#X obj 289 54 tgl 15 0 \$0-spigot $$ empty 17 7 0 10 -116512 -262144
-262144 1 1;
#X obj 119 147 r \$0-spigot;
#X obj 91 277 s \$0-key49;
#X obj 155 304 s \$0-key50;
#X obj 225 256 s \$0-key51;
#X obj 287 308 s \$0-key52;
#X obj 353 259 s \$0-key53;
#X obj 419 312 s \$0-key54;
#X obj 485 260 s \$0-key55;
#X obj 551 311 s \$0-key56;
#X obj 619 256 s \$0-key57;
#X connect 0 0 10 0;
#X connect 1 0 0 0;
#X connect 2 0 7 0;
#X connect 3 0 4 0;
#X connect 4 0 5 0;
#X connect 4 1 6 0;
#X connect 6 0 1 0;
#X connect 7 0 3 0;
#X connect 8 0 9 0;
#X connect 9 0 1 0;
#X connect 10 0 11 0;
#X connect 10 0 31 0;
#X connect 10 1 12 0;
#X connect 10 1 32 0;
#X connect 10 2 13 0;
#X connect 10 2 33 0;
#X connect 10 3 14 0;
#X connect 10 3 34 0;
#X connect 10 4 15 0;
#X connect 10 4 35 0;
#X connect 10 5 16 0;
#X connect 10 5 36 0;
#X connect 10 6 17 0;
#X connect 10 6 37 0;
#X connect 10 7 18 0;
#X connect 10 7 38 0;
#X connect 10 8 19 0;
#X connect 10 8 39 0;
#X connect 30 0 1 1;
#X coords 0 -1 1 1 79 60 2 230 50;
