#N canvas 714 86 886 866 8;
#X obj 238 206 expr~ ($v1<0.5)*2-1;
#X obj 178 325 *~, f 18;
#X obj 178 235 vline~;
#X obj 178 255 pow~ 3;
#X obj 178 74 t b b;
#X obj 251 232 r~ \$0-env;
#X obj 213 75 s \$0-sync;
#X obj 290 144 r \$0-sync;
#X msg 290 164 0;
#X obj 238 186 phasor~ 100;
#X obj 238 141 r~ \$0-env;
#X obj 238 300 vcf~ 6;
#N canvas 0 0 450 300 noize 0;
#X obj 28 84 noise~;
#X obj 28 34 r \$0-sync;
#X msg 28 54 seed 42;
#X obj 28 104 outlet~;
#X connect 0 0 3 0;
#X connect 1 0 2 0;
#X connect 2 0 0 0;
#X restore 262 275 pd noize;
#X obj 317 310 osc~;
#X obj 317 239 r~ \$0-env;
#X obj 348 289 r \$0-sync;
#X msg 348 309 0.5;
#N canvas 0 0 477 362 envelope 0;
#X msg 60 32 1 \, 0 \$1;
#X obj 60 52 vline~;
#X obj 60 92 *~ 96;
#X obj 60 112 +~ 12;
#X obj 60 132 mtof~;
#X obj 60 11 inlet;
#X obj 60 152 s~ \$0-env;
#X obj 60 72 pow~ 2;
#X obj 118 37 r \$0-s-n2-bend;
#X obj 118 57 sig~ 2;
#X connect 0 0 1 0;
#X connect 1 0 7 0;
#X connect 2 0 3 0;
#X connect 3 0 4 0;
#X connect 4 0 6 0;
#X connect 5 0 0 0;
#X connect 7 0 2 0;
#X connect 8 0 9 0;
#X connect 9 0 7 1;
#X restore 200 118 pd envelope;
#N canvas 391 337 589 488 release 0;
#X obj 37 37 inlet;
#X obj 124 74 f 750;
#X obj 37 184 outlet;
#X obj 146 51 r \$0-s-vsld-rel;
#X obj 37 59 t b b;
#X obj 37 109 f 1;
#X obj 37 139 pack f f, f 18;
#X obj 64 87 r \$0-vel;
#X obj 64 107 / 127;
#X connect 0 0 4 0;
#X connect 1 0 6 1;
#X connect 3 0 1 1;
#X connect 4 0 5 0;
#X connect 4 1 1 0;
#X connect 5 0 6 0;
#X connect 6 0 2 0;
#X connect 7 0 8 0;
#X connect 8 0 5 1;
#X restore 178 174 pd release;
#X obj 178 368 expr~ tanh($v1*$v2);
#X obj 284 368 sig~ 2;
#X obj 200 96 f 50;
#X obj 284 346 r \$0-s-n2-dist;
#X obj 230 95 r \$0-s-n2-decay;
#X obj 317 282 *~ 2;
#X obj 334 260 r \$0-s-n2-pitch;
#N canvas 879 153 676 733 receive 0;
#X obj 29 8 inlet;
#X obj 261 57 outlet;
#X obj 29 333 s \$0-r-n2-pitch;
#X obj 29 314 clip 0.1 8;
#X obj 75 272 clip 1 500;
#X obj 122 230 clip 1 10;
#X obj 168 186 clip 1 50;
#X obj 215 138 clip 25 2000;
#N canvas 1406 440 450 300 trg 0;
#X obj 30 12 inlet;
#X obj 30 32 t b;
#X obj 30 102 s \$0-r-cnv-trg;
#X obj 96 47 del 50;
#X msg 30 52 color 0 0 0;
#X msg 96 67 color 26 0 0;
#X connect 0 0 1 0;
#X connect 1 0 3 0;
#X connect 1 0 4 0;
#X connect 3 0 5 0;
#X connect 4 0 2 0;
#X connect 5 0 2 0;
#X restore 278 32 pd trg;
#X obj 68 9 r \$0-s-bng-test;
#X obj 75 291 s \$0-r-n2-decay;
#X obj 122 249 s \$0-r-n2-bend;
#X obj 168 205 s \$0-r-n2-dist;
#X obj 215 157 s \$0-r-vsld-rel;
#X obj 29 33 route pitch decay bend dist rel vel, f 47;
#X obj 245 103 s \$0-vel;
#X connect 0 0 14 0;
#X connect 3 0 2 0;
#X connect 4 0 10 0;
#X connect 5 0 11 0;
#X connect 6 0 12 0;
#X connect 7 0 13 0;
#X connect 9 0 14 0;
#X connect 14 0 3 0;
#X connect 14 1 4 0;
#X connect 14 2 5 0;
#X connect 14 3 6 0;
#X connect 14 4 7 0;
#X connect 14 5 15 0;
#X connect 14 6 8 0;
#X connect 14 6 1 0;
#X restore 178 45 pd receive;
#N canvas 221 202 604 460 loadbang 0;
#X obj 33 152 s \$0-r-n2-pitch;
#X obj 33 16 loadbang;
#X msg 33 125 3.5;
#X msg 98 80 8;
#X msg 129 56 2;
#X msg 160 31 1000;
#X msg 65 104 25;
#X obj 65 127 s \$0-r-n2-decay;
#X obj 98 103 s \$0-r-n2-bend;
#X obj 129 80 s \$0-r-n2-dist;
#X obj 160 56 s \$0-r-vsld-rel;
#X connect 1 0 2 0;
#X connect 1 0 6 0;
#X connect 1 0 3 0;
#X connect 1 0 4 0;
#X connect 1 0 5 0;
#X connect 2 0 0 0;
#X connect 3 0 8 0;
#X connect 4 0 9 0;
#X connect 5 0 10 0;
#X connect 6 0 7 0;
#X restore 337 28 pd loadbang;
#X obj 251 253 *~ 0.25;
#X obj 238 162 *~ 1;
#X obj 20 20 cnv 15 105 95 empty empty ☰kick☰ 2 8 0 10 #7c7c7c
#202020 0;
#X obj 101 27 vsl 20 80 25 2000 0 0 \$0-s-vsld-rel \$0-r-vsld-rel empty
0 -9 0 10 #606060 #faff00 #ffffff 0 1;
#X obj 56 98 nbx 4 12 1 50 0 0 \$0-s-n2-dist \$0-r-n2-dist Dist. -32
6 0 8 #000000 #faff00 #ffffff 0 256;
#X obj 25 60 nbx 4 12 1 500 0 0 \$0-s-n2-decay \$0-r-n2-decay Decay
40 6 0 8 #404040 #faff00 #ffffff 0 256;
#X obj 25 78 nbx 4 12 1 10 0 0 \$0-s-n2-bend \$0-r-n2-bend Bend 40
6 0 8 #404040 #faff00 #ffffff 0 256;
#X obj 56 39 nbx 4 12 0.1 8 0 0 \$0-s-n2-pitch \$0-r-n2-pitch Pitch
-32 6 0 8 #bbbbbb #000000 #ffffff 0 256;
#X obj 178 388 s~ phasor.kick;
#X obj 87 26 cnv 4 6 6 empty \$0-r-cnv-trg empty 20 12 0 14 #285014
#fcfcfc 0;
#X obj 68 24 bng 10 100 50 0 \$0-s-bng-test \$0-r-bng-test empty 17
7 0 10 #ff0400 #ffffff #000000;
#X obj 178 24 r phasor.kick~;
#X msg 178 215 \$1 \, 0 \$2;
#X connect 0 0 11 0;
#X connect 1 0 19 0;
#X connect 2 0 3 0;
#X connect 3 0 1 0;
#X connect 4 0 18 0;
#X connect 4 1 6 0;
#X connect 4 1 21 0;
#X connect 5 0 28 0;
#X connect 7 0 8 0;
#X connect 8 0 9 1;
#X connect 9 0 0 0;
#X connect 10 0 29 0;
#X connect 11 1 1 1;
#X connect 12 0 11 0;
#X connect 13 0 1 1;
#X connect 14 0 24 0;
#X connect 15 0 16 0;
#X connect 16 0 13 1;
#X connect 18 0 40 0;
#X connect 19 0 36 0;
#X connect 20 0 19 1;
#X connect 21 0 17 0;
#X connect 22 0 20 0;
#X connect 23 0 21 1;
#X connect 24 0 13 0;
#X connect 25 0 24 1;
#X connect 26 0 4 0;
#X connect 28 0 11 1;
#X connect 29 0 9 0;
#X connect 39 0 26 0;
#X connect 40 0 2 0;
#X coords 0 -1 1 1 105 95 2 20 20;
