#N canvas -11 -11 1920 1016 12;
#X floatatom 154 210 5 0 0 0 - - -;
#X obj 154 273 bng 15 250 50 0 empty empty empty 17 7 0 10 -262144
-1 -1;
#X obj 184 273 bng 15 250 50 0 empty empty empty 17 7 0 10 -262144
-1 -1;
#X obj 214 273 bng 15 250 50 0 empty empty empty 17 7 0 10 -262144
-1 -1;
#X obj 260 277 bng 15 250 50 0 empty empty empty 17 7 0 10 -262144
-1 -1;
#X obj 297 277 bng 15 250 50 0 empty empty empty 17 7 0 10 -262144
-1 -1;
#X obj 332 277 bng 15 250 50 0 empty empty empty 17 7 0 10 -262144
-1 -1;
#X obj 367 277 bng 15 250 50 0 empty empty empty 17 7 0 10 -262144
-1 -1;
#X obj 397 277 bng 15 250 50 0 empty empty empty 17 7 0 10 -262144
-1 -1;
#X obj 427 277 bng 15 250 50 0 empty empty empty 17 7 0 10 -262144
-1 -1;
#X obj 458 277 bng 15 250 50 0 empty empty empty 17 7 0 10 -262144
-1 -1;
#X obj 485 278 bng 15 250 50 0 empty empty empty 17 7 0 10 -262144
-1 -1;
#X obj 516 278 bng 15 250 50 0 empty empty empty 17 7 0 10 -262144
-1 -1;
#X obj 154 238 sel 97 119 115 101 100 102 116 103 121 104 117 106 107
111 108 112 231, f 86;
#X obj 549 279 bng 15 250 50 0 empty empty empty 17 7 0 10 -262144
-1 -1;
#X obj 580 279 bng 15 250 50 0 empty empty empty 17 7 0 10 -262144
-1 -1;
#X obj 607 280 bng 15 250 50 0 empty empty empty 17 7 0 10 -262144
-1 -1;
#X obj 638 280 bng 15 250 50 0 empty empty empty 17 7 0 10 -262144
-1 -1;
#X obj 668 278 bng 15 250 50 0 empty empty empty 17 7 0 10 -262144
-1 -1;
#X msg 154 309 48;
#X msg 189 308 49;
#X msg 225 309 50;
#X msg 260 308 51;
#X msg 297 308 52;
#X msg 332 307 53;
#X msg 368 308 54;
#X msg 403 307 55;
#X msg 441 307 56;
#X msg 476 306 57;
#X msg 512 307 58;
#X msg 547 306 59;
#X msg 581 306 60;
#X msg 616 305 61;
#X msg 652 306 62;
#X msg 687 305 63;
#X msg 723 305 64;
#X obj 154 182 spigot;
#X obj 504 104 tgl 15 0 \$0-spigot \$0-spigot-lb on/off 17 7 0 10 -116512
-262144 -262144 0 1;
#X obj 155 483 outlet;
#X obj 154 33 keyname;
#X floatatom 154 92 5 0 0 0 - - -;
#X obj 154 115 sel 0 1;
#X obj 154 147 bng 15 250 50 0 empty empty empty 17 7 0 10 -262144
-1 -1;
#X obj 177 147 bng 15 250 50 0 empty empty empty 17 7 0 10 -262144
-1 -1;
#X obj 154 63 change;
#X obj 93 34 key;
#X obj 93 62 change;
#X obj 596 401 bng 15 250 50 0 empty empty empty 17 7 0 10 -262144
-1 -1;
#X obj 596 421 outlet;
#X floatatom 665 104 3 0 0 0 - #0-notes #0-notes-lb;
#X obj 689 406 outlet;
#N canvas -9 -9 1920 1020 octaves 0;
#X obj 220 310 bng 15 250 50 0 empty empty empty 17 7 0 10 -262144
-1 -1;
#X obj 276 307 bng 15 250 50 0 empty empty empty 17 7 0 10 -262144
-1 -1;
#X obj 249 307 bng 15 250 50 0 empty empty empty 17 7 0 10 -262144
-1 -1;
#X floatatom 218 394 5 0 0 0 - - -;
#X obj 218 270 sel c-1 c0 c1 c2 c3 c4 c5 c6 c7 c8 c9, f 44;
#X obj 300 309 bng 15 250 50 0 empty empty empty 17 7 0 10 -262144
-1 -1;
#X obj 358 306 bng 15 250 50 0 empty empty empty 17 7 0 10 -262144
-1 -1;
#X obj 329 306 bng 15 250 50 0 empty empty empty 17 7 0 10 -262144
-1 -1;
#X obj 385 307 bng 15 250 50 0 empty empty empty 17 7 0 10 -262144
-1 -1;
#X obj 441 304 bng 15 250 50 0 empty empty empty 17 7 0 10 -262144
-1 -1;
#X obj 414 304 bng 15 250 50 0 empty empty empty 17 7 0 10 -262144
-1 -1;
#X obj 470 302 bng 15 250 50 0 empty empty empty 17 7 0 10 -262144
-1 -1;
#X obj 492 305 bng 15 250 50 0 empty empty empty 17 7 0 10 -262144
-1 -1;
#X msg 349 341 0;
#X msg 383 341 12;
#X msg 416 341 24;
#X msg 448 341 36;
#X msg 480 341 48;
#X msg 513 340 60;
#X msg 545 340 72;
#X msg 317 341 -12;
#X msg 284 341 -24;
#X msg 252 341 -36;
#X msg 220 341 -48;
#X obj 72 10 inlet;
#X obj 136 11 inlet;
#X obj 219 153 hradio 15 1 0 11 empty empty empty 0 -8 0 10 -262144
-1 -1 4;
#X obj 136 64 f;
#X obj 166 64 + 1;
#X obj 136 88 % 11;
#X obj 72 65 f;
#X obj 102 65 - 1;
#X obj 72 89 % -11;
#X floatatom 219 178 5 0 0 0 - - -;
#X obj 72 114 + 10;
#N canvas 74 162 1765 759 symbols 0;
#X msg 186 243 symbol c1;
#X msg 261 243 symbol c2;
#X msg 335 242 symbol c3;
#X msg 412 242 symbol c4;
#X msg 487 242 symbol c5;
#X msg 561 241 symbol c6;
#X msg 637 240 symbol c7;
#X msg 711 239 symbol c8;
#X msg 788 238 symbol c9;
#X msg 20 243 symbol c-1;
#X msg 106 241 symbol c0;
#X obj 331 339 outlet;
#X obj 298 55 inlet;
#X obj 298 88 sel 0 1 2 3 4 5 6 7 8 9 10;
#X connect 0 0 11 0;
#X connect 1 0 11 0;
#X connect 2 0 11 0;
#X connect 3 0 11 0;
#X connect 4 0 11 0;
#X connect 5 0 11 0;
#X connect 6 0 11 0;
#X connect 7 0 11 0;
#X connect 8 0 11 0;
#X connect 9 0 11 0;
#X connect 10 0 11 0;
#X connect 12 0 13 0;
#X connect 13 0 9 0;
#X connect 13 1 10 0;
#X connect 13 2 0 0;
#X connect 13 3 1 0;
#X connect 13 4 2 0;
#X connect 13 5 3 0;
#X connect 13 6 4 0;
#X connect 13 7 5 0;
#X connect 13 8 6 0;
#X connect 13 9 7 0;
#X connect 13 10 8 0;
#X restore 218 207 pd symbols;
#X floatatom 108 200 5 0 0 0 - - -;
#X obj 216 418 outlet;
#X symbolatom 659 242 10 0 0 0 - - -;
#N canvas 74 162 1765 759 symbols-display 0;
#X obj 331 339 outlet;
#X obj 298 55 inlet;
#X obj 298 88 sel 0 1 2 3 4 5 6 7 8 9 10;
#X msg 20 243 symbol C-1;
#X msg 106 241 symbol C0;
#X msg 186 243 symbol C1;
#X msg 261 243 symbol C2;
#X msg 335 242 symbol C3;
#X msg 412 242 symbol C4;
#X msg 487 242 symbol C5;
#X msg 561 241 symbol C6;
#X msg 637 240 symbol C7;
#X msg 711 239 symbol C8;
#X msg 788 238 symbol C9;
#X connect 1 0 2 0;
#X connect 2 0 3 0;
#X connect 2 1 4 0;
#X connect 2 2 5 0;
#X connect 2 3 6 0;
#X connect 2 4 7 0;
#X connect 2 5 8 0;
#X connect 2 6 9 0;
#X connect 2 7 10 0;
#X connect 2 8 11 0;
#X connect 2 9 12 0;
#X connect 2 10 13 0;
#X connect 3 0 0 0;
#X connect 4 0 0 0;
#X connect 5 0 0 0;
#X connect 6 0 0 0;
#X connect 7 0 0 0;
#X connect 8 0 0 0;
#X connect 9 0 0 0;
#X connect 10 0 0 0;
#X connect 11 0 0 0;
#X connect 12 0 0 0;
#X connect 13 0 0 0;
#X restore 591 289 pd symbols-display;
#X obj 659 192 sel C-1 C0 C1 C2 C3 C4 C5 C6 C7 C8 C9;
#X symbolatom 591 320 4 0 0 0 - - -;
#X obj 591 384 outlet;
#X obj 287 66 loadbang;
#X msg 287 90 4;
#X floatatom 108 272 5 0 0 0 - - -;
#X obj 109 223 * -1;
#X obj 72 41 bng 15 250 50 0 empty empty empty 17 7 0 10 -262144 -1
-1;
#X obj 136 42 bng 15 250 50 0 empty empty empty 17 7 0 10 -262144 -1
-1;
#X floatatom 72 138 5 0 0 0 - - -;
#X floatatom 135 138 5 0 0 0 - - -;
#X floatatom 26 136 5 0 0 0 - - -;
#X obj 109 247 * 2.5;
#N canvas 793 245 1069 805 form 0;
#X obj 117 145 sel 0 1 2 3 4 5 6 7 8 9 10;
#X obj 112 182 bng 15 250 50 0 empty empty empty 17 7 0 10 -262144
-1 -1;
#X obj 129 182 bng 15 250 50 0 empty empty empty 17 7 0 10 -262144
-1 -1;
#X obj 146 182 bng 15 250 50 0 empty empty empty 17 7 0 10 -262144
-1 -1;
#X obj 165 182 bng 15 250 50 0 empty empty empty 17 7 0 10 -262144
-1 -1;
#X obj 182 182 bng 15 250 50 0 empty empty empty 17 7 0 10 -262144
-1 -1;
#X obj 199 182 bng 15 250 50 0 empty empty empty 17 7 0 10 -262144
-1 -1;
#X obj 218 182 bng 15 250 50 0 empty empty empty 17 7 0 10 -262144
-1 -1;
#X obj 235 182 bng 15 250 50 0 empty empty empty 17 7 0 10 -262144
-1 -1;
#X obj 252 182 bng 15 250 50 0 empty empty empty 17 7 0 10 -262144
-1 -1;
#X obj 271 182 bng 15 250 50 0 empty empty empty 17 7 0 10 -262144
-1 -1;
#X obj 288 182 bng 15 250 50 0 empty empty empty 17 7 0 10 -262144
-1 -1;
#X msg 93 222 -10;
#X msg 126 222 -9;
#X msg 159 222 -8;
#X msg 193 223 -7;
#X msg 225 224 -6;
#X msg 257 223 -5;
#X msg 291 224 -4;
#X msg 324 225 -3;
#X msg 358 225 -2;
#X msg 393 225 -1;
#X msg 427 225 0;
#X floatatom 224 298 5 0 0 0 - - -;
#X obj 116 106 inlet;
#X obj 224 321 outlet;
#X connect 0 0 1 0;
#X connect 0 1 2 0;
#X connect 0 2 3 0;
#X connect 0 3 4 0;
#X connect 0 4 5 0;
#X connect 0 5 6 0;
#X connect 0 6 7 0;
#X connect 0 7 8 0;
#X connect 0 8 9 0;
#X connect 0 9 10 0;
#X connect 0 10 11 0;
#X connect 1 0 12 0;
#X connect 2 0 13 0;
#X connect 3 0 14 0;
#X connect 4 0 15 0;
#X connect 5 0 16 0;
#X connect 6 0 17 0;
#X connect 7 0 18 0;
#X connect 8 0 19 0;
#X connect 9 0 20 0;
#X connect 10 0 21 0;
#X connect 11 0 22 0;
#X connect 12 0 23 0;
#X connect 13 0 23 0;
#X connect 14 0 23 0;
#X connect 15 0 23 0;
#X connect 16 0 23 0;
#X connect 17 0 23 0;
#X connect 18 0 23 0;
#X connect 19 0 23 0;
#X connect 20 0 23 0;
#X connect 21 0 23 0;
#X connect 22 0 23 0;
#X connect 23 0 25 0;
#X connect 24 0 0 0;
#X restore 36 233 pd form;
#X floatatom 36 259 5 0 0 0 - - -;
#X msg 320 91 -6;
#X connect 0 0 23 0;
#X connect 1 0 21 0;
#X connect 2 0 22 0;
#X connect 3 0 37 0;
#X connect 4 0 0 0;
#X connect 4 1 2 0;
#X connect 4 2 1 0;
#X connect 4 3 5 0;
#X connect 4 4 7 0;
#X connect 4 5 6 0;
#X connect 4 6 8 0;
#X connect 4 7 10 0;
#X connect 4 8 9 0;
#X connect 4 9 11 0;
#X connect 4 10 12 0;
#X connect 5 0 20 0;
#X connect 6 0 14 0;
#X connect 7 0 13 0;
#X connect 8 0 15 0;
#X connect 9 0 17 0;
#X connect 10 0 16 0;
#X connect 11 0 18 0;
#X connect 12 0 19 0;
#X connect 13 0 3 0;
#X connect 14 0 3 0;
#X connect 15 0 3 0;
#X connect 16 0 3 0;
#X connect 17 0 3 0;
#X connect 18 0 3 0;
#X connect 19 0 3 0;
#X connect 20 0 3 0;
#X connect 21 0 3 0;
#X connect 22 0 3 0;
#X connect 23 0 3 0;
#X connect 24 0 47 0;
#X connect 25 0 48 0;
#X connect 26 0 33 0;
#X connect 27 0 28 0;
#X connect 27 0 29 0;
#X connect 28 0 27 1;
#X connect 29 0 26 0;
#X connect 29 0 36 0;
#X connect 29 0 50 0;
#X connect 30 0 31 0;
#X connect 30 0 32 0;
#X connect 31 0 30 1;
#X connect 32 0 34 0;
#X connect 32 0 51 0;
#X connect 33 0 35 0;
#X connect 33 0 39 0;
#X connect 34 0 49 0;
#X connect 34 0 26 0;
#X connect 35 0 4 0;
#X connect 36 0 46 0;
#X connect 36 0 53 0;
#X connect 39 0 41 0;
#X connect 40 0 38 0;
#X connect 40 1 38 0;
#X connect 40 2 38 0;
#X connect 40 3 38 0;
#X connect 40 4 38 0;
#X connect 40 5 38 0;
#X connect 40 6 38 0;
#X connect 40 7 38 0;
#X connect 40 8 38 0;
#X connect 40 9 38 0;
#X connect 40 10 38 0;
#X connect 41 0 42 0;
#X connect 43 0 44 0;
#X connect 43 0 55 0;
#X connect 44 0 26 0;
#X connect 44 0 27 1;
#X connect 46 0 52 0;
#X connect 47 0 30 0;
#X connect 48 0 27 0;
#X connect 49 0 27 1;
#X connect 52 0 45 0;
#X connect 53 0 54 0;
#X connect 54 0 30 1;
#X connect 55 0 30 1;
#X restore 43 310 pd octaves;
#X obj 50 238 sel 122 120;
#X obj 50 269 bng 15 250 50 0 empty empty empty 17 7 0 10 -262144 -1
-1;
#X obj 87 269 bng 15 250 50 0 empty empty empty 17 7 0 10 -262144 -1
-1;
#X floatatom 43 348 5 0 0 0 - - -;
#X obj 155 387 +;
#X floatatom 155 411 5 0 0 0 - - -;
#X symbolatom 636 104 3 0 0 0 - #0-oct #0-oct-lb;
#X obj 681 377 spigot;
#X obj 505 146 tgl 15 0 \$0-nevermind \$0-do C 4 7 0 11 -116512 -262144
-262144 0 1;
#X obj 523 146 tgl 15 0 \$0-nevermind \$0-re D 4 7 0 11 -116512 -262144
-262144 0 1;
#X obj 541 146 tgl 15 0 \$0-nevermind \$0-mi E 4 7 0 11 -116512 -262144
-262144 0 1;
#X obj 564 146 tgl 15 0 \$0-nevermind \$0-fa F 4 7 0 11 -116512 -262144
-262144 0 1;
#X obj 582 146 tgl 15 0 \$0-nevermind \$0-sol G 4 7 0 11 -116512 -262144
-262144 0 1;
#X obj 600 146 tgl 15 0 \$0-nevermind \$0-la A 4 7 0 11 -116512 -262144
-262144 0 1;
#X obj 618 146 tgl 15 0 \$0-nevermind \$0-si B 4 7 0 11 -116512 -262144
-262144 0 1;
#X obj 514 128 tgl 15 0 \$0-nevermind \$0-domaior Db 1 7 0 11 -116512
-262144 -262144 0 1;
#X obj 532 128 tgl 15 0 \$0-nevermind \$0-remaior Eb 1 7 0 11 -116512
-262144 -262144 0 1;
#X obj 573 128 tgl 15 0 \$0-nevermind \$0-famaior Gb 1 7 0 11 -116512
-262144 -262144 0 1;
#X obj 591 128 tgl 15 0 \$0-nevermind \$0-solmaior Ab 1 7 0 11 -116512
-262144 -262144 0 1;
#X obj 609 128 tgl 15 0 \$0-nevermind \$0-lamaior Bb 1 7 0 11 -116512
-262144 -262144 0 1;
#N canvas 126 97 1618 682 tgl-system 0;
#X obj 11 11 inlet;
#X obj 11 35 sel 48 49 50 51 52 53 54 55 56 57 58 59 60 61 62 63 64
, f 107;
#N canvas 0 50 450 300 tgl-do 0;
#X obj 27 122 s \$0-do;
#X msg 38 93 color #70707D 0 0;
#X msg 27 42 color 0 0 #70707D;
#X obj 38 68 r \$0-noteoff;
#X obj 27 14 inlet;
#X connect 1 0 0 0;
#X connect 2 0 0 0;
#X connect 3 0 1 0;
#X connect 4 0 2 0;
#X restore 11 200 pd tgl-do;
#N canvas 0 50 450 300 tgl-re 0;
#X msg 38 93 color #70707D 0 0;
#X msg 27 42 color 0 0 #70707D;
#X obj 38 68 r \$0-noteoff;
#X obj 27 14 inlet;
#X obj 27 122 s \$0-re;
#X connect 0 0 4 0;
#X connect 1 0 4 0;
#X connect 2 0 0 0;
#X connect 3 0 1 0;
#X restore 99 200 pd tgl-re;
#N canvas 0 50 450 300 tgl-mi 0;
#X msg 38 93 color #70707D 0 0;
#X msg 27 42 color 0 0 #70707D;
#X obj 38 68 r \$0-noteoff;
#X obj 27 14 inlet;
#X obj 27 122 s \$0-mi;
#X connect 0 0 4 0;
#X connect 1 0 4 0;
#X connect 2 0 0 0;
#X connect 3 0 1 0;
#X restore 187 200 pd tgl-mi;
#N canvas 0 50 450 300 tgl-fa 0;
#X msg 38 93 color #70707D 0 0;
#X msg 27 42 color 0 0 #70707D;
#X obj 38 68 r \$0-noteoff;
#X obj 27 14 inlet;
#X obj 27 122 s \$0-fa;
#X connect 0 0 4 0;
#X connect 1 0 4 0;
#X connect 2 0 0 0;
#X connect 3 0 1 0;
#X restore 230 248 pd tgl-fa;
#N canvas 0 50 450 300 tgl-sol 0;
#X msg 38 93 color #70707D 0 0;
#X msg 27 42 color 0 0 #70707D;
#X obj 38 68 r \$0-noteoff;
#X obj 27 14 inlet;
#X obj 27 122 s \$0-sol;
#X connect 0 0 4 0;
#X connect 1 0 4 0;
#X connect 2 0 0 0;
#X connect 3 0 1 0;
#X restore 318 248 pd tgl-sol;
#N canvas 0 50 450 300 tgl-la 0;
#X msg 38 93 color #70707D 0 0;
#X msg 27 42 color 0 0 #70707D;
#X obj 38 68 r \$0-noteoff;
#X obj 27 14 inlet;
#X obj 27 122 s \$0-la;
#X connect 0 0 4 0;
#X connect 1 0 4 0;
#X connect 2 0 0 0;
#X connect 3 0 1 0;
#X restore 406 248 pd tgl-la;
#N canvas 0 50 450 300 tgl-si 0;
#X msg 38 93 color #70707D 0 0;
#X msg 27 42 color 0 0 #70707D;
#X obj 38 68 r \$0-noteoff;
#X obj 27 14 inlet;
#X obj 27 122 s \$0-si;
#X connect 0 0 4 0;
#X connect 1 0 4 0;
#X connect 2 0 0 0;
#X connect 3 0 1 0;
#X restore 494 247 pd tgl-si;
#N canvas 0 50 450 300 tgl-do2 0;
#X msg 38 93 color #70707D 0 0;
#X msg 27 42 color 0 0 #70707D;
#X obj 38 68 r \$0-noteoff;
#X obj 27 14 inlet;
#X obj 27 122 s \$0-do2;
#X connect 0 0 4 0;
#X connect 1 0 4 0;
#X connect 2 0 0 0;
#X connect 3 0 1 0;
#X restore 537 195 pd tgl-do2;
#N canvas 0 50 450 300 tgl-re2 0;
#X msg 38 93 color #70707D 0 0;
#X msg 27 42 color 0 0 #70707D;
#X obj 38 68 r \$0-noteoff;
#X obj 27 14 inlet;
#X obj 27 122 s \$0-re2;
#X connect 0 0 4 0;
#X connect 1 0 4 0;
#X connect 2 0 0 0;
#X connect 3 0 1 0;
#X restore 625 195 pd tgl-re2;
#N canvas 0 50 450 300 tgl-mi2 0;
#X msg 38 93 color #70707D 0 0;
#X msg 27 42 color 0 0 #70707D;
#X obj 38 68 r \$0-noteoff;
#X obj 27 14 inlet;
#X obj 27 122 s \$0-mi2;
#X connect 0 0 4 0;
#X connect 1 0 4 0;
#X connect 2 0 0 0;
#X connect 3 0 1 0;
#X restore 713 195 pd tgl-mi2;
#N canvas 594 102 431 329 tgl-domaior 0;
#X msg 38 93 color #70707D 0 0;
#X msg 27 42 color 0 0 #70707D;
#X obj 38 68 r \$0-noteoff;
#X obj 27 14 inlet;
#X obj 27 122 s \$0-domaior;
#X connect 0 0 4 0;
#X connect 1 0 4 0;
#X connect 2 0 0 0;
#X connect 3 0 1 0;
#X restore 55 143 pd tgl-domaior;
#N canvas 594 102 431 329 tgl-remaior 0;
#X msg 38 93 color #70707D 0 0;
#X msg 27 42 color 0 0 #70707D;
#X obj 38 68 r \$0-noteoff;
#X obj 27 14 inlet;
#X obj 27 122 s \$0-remaior;
#X connect 0 0 4 0;
#X connect 1 0 4 0;
#X connect 2 0 0 0;
#X connect 3 0 1 0;
#X restore 143 99 pd tgl-remaior;
#N canvas 594 102 431 329 tgl-famaior 0;
#X msg 38 93 color #70707D 0 0;
#X msg 27 42 color 0 0 #70707D;
#X obj 38 68 r \$0-noteoff;
#X obj 27 14 inlet;
#X obj 27 122 s \$0-famaior;
#X connect 0 0 4 0;
#X connect 1 0 4 0;
#X connect 2 0 0 0;
#X connect 3 0 1 0;
#X restore 274 146 pd tgl-famaior;
#N canvas 594 102 431 329 tgl-famaior 0;
#X msg 38 93 color #70707D 0 0;
#X msg 27 42 color 0 0 #70707D;
#X obj 38 68 r \$0-noteoff;
#X obj 27 14 inlet;
#X obj 27 122 s \$0-solmaior;
#X connect 0 0 4 0;
#X connect 1 0 4 0;
#X connect 2 0 0 0;
#X connect 3 0 1 0;
#X restore 362 118 pd tgl-famaior;
#N canvas 594 102 431 329 tgl-famaior 0;
#X msg 38 93 color #70707D 0 0;
#X msg 27 42 color 0 0 #70707D;
#X obj 38 68 r \$0-noteoff;
#X obj 27 14 inlet;
#X obj 27 122 s \$0-lamaior;
#X connect 0 0 4 0;
#X connect 1 0 4 0;
#X connect 2 0 0 0;
#X connect 3 0 1 0;
#X restore 449 153 pd tgl-famaior;
#N canvas 594 102 431 329 tgl-domaior2 0;
#X msg 38 93 color #70707D 0 0;
#X msg 27 42 color 0 0 #70707D;
#X obj 38 68 r \$0-noteoff;
#X obj 27 14 inlet;
#X obj 27 122 s \$0-domaior2;
#X connect 0 0 4 0;
#X connect 1 0 4 0;
#X connect 2 0 0 0;
#X connect 3 0 1 0;
#X restore 581 133 pd tgl-domaior2;
#N canvas 594 102 431 329 tgl-remaior2 0;
#X msg 38 93 color #70707D 0 0;
#X msg 27 42 color 0 0 #70707D;
#X obj 38 68 r \$0-noteoff;
#X obj 27 14 inlet;
#X obj 27 122 s \$0-remaior2;
#X connect 0 0 4 0;
#X connect 1 0 4 0;
#X connect 2 0 0 0;
#X connect 3 0 1 0;
#X restore 669 89 pd tgl-remaior2;
#X connect 0 0 1 0;
#X connect 1 0 2 0;
#X connect 1 1 12 0;
#X connect 1 2 3 0;
#X connect 1 3 13 0;
#X connect 1 4 4 0;
#X connect 1 5 5 0;
#X connect 1 6 14 0;
#X connect 1 7 6 0;
#X connect 1 8 15 0;
#X connect 1 9 7 0;
#X connect 1 10 16 0;
#X connect 1 11 8 0;
#X connect 1 12 9 0;
#X connect 1 13 17 0;
#X connect 1 14 10 0;
#X connect 1 15 18 0;
#X connect 1 16 11 0;
#X restore 305 401 pd tgl-system;
#X obj 640 146 tgl 15 0 \$0-nevermind \$0-do2 C 4 7 0 11 -116512 -262144
-262144 0 1;
#X obj 658 146 tgl 15 0 \$0-nevermind \$0-re2 D 4 7 0 11 -116512 -262144
-262144 0 1;
#X obj 676 146 tgl 15 0 \$0-nevermind \$0-mi2 E 4 7 0 11 -116512 -262144
-262144 0 1;
#X obj 649 128 tgl 15 0 \$0-nevermind \$0-domaior2 Db 1 7 0 11 -116512
-262144 -262144 0 1;
#X obj 667 128 tgl 15 0 \$0-nevermind \$0-remaior2 Eb 1 7 0 11 -116512
-262144 -262144 0 1;
#X obj 49 178 s \$0-noteoff;
#X obj 193 155 r \$0-spigot;
#X obj 720 352 r \$0-spigot;
#X obj 86 342 s \$0-oct;
#X obj 192 439 s \$0-notes;
#X text 232 34 PRESS "Z" or "X" TO DOWN OR UP AN OCTAVE;
#X connect 0 0 13 0;
#X connect 0 0 52 0;
#X connect 1 0 19 0;
#X connect 2 0 20 0;
#X connect 3 0 21 0;
#X connect 4 0 22 0;
#X connect 5 0 23 0;
#X connect 6 0 24 0;
#X connect 7 0 25 0;
#X connect 8 0 26 0;
#X connect 9 0 27 0;
#X connect 10 0 28 0;
#X connect 11 0 29 0;
#X connect 12 0 30 0;
#X connect 13 0 1 0;
#X connect 13 1 2 0;
#X connect 13 2 3 0;
#X connect 13 3 4 0;
#X connect 13 4 5 0;
#X connect 13 5 6 0;
#X connect 13 6 7 0;
#X connect 13 7 8 0;
#X connect 13 8 9 0;
#X connect 13 9 10 0;
#X connect 13 10 11 0;
#X connect 13 11 12 0;
#X connect 13 12 14 0;
#X connect 13 13 15 0;
#X connect 13 14 16 0;
#X connect 13 15 17 0;
#X connect 13 16 18 0;
#X connect 14 0 31 0;
#X connect 15 0 32 0;
#X connect 16 0 33 0;
#X connect 17 0 34 0;
#X connect 18 0 35 0;
#X connect 19 0 47 0;
#X connect 19 0 56 0;
#X connect 19 0 72 0;
#X connect 20 0 47 0;
#X connect 20 0 56 0;
#X connect 20 0 72 0;
#X connect 21 0 47 0;
#X connect 21 0 56 0;
#X connect 21 0 72 0;
#X connect 22 0 47 0;
#X connect 22 0 56 0;
#X connect 22 0 72 0;
#X connect 23 0 47 0;
#X connect 23 0 56 0;
#X connect 23 0 72 0;
#X connect 24 0 47 0;
#X connect 24 0 56 0;
#X connect 24 0 72 0;
#X connect 25 0 47 0;
#X connect 25 0 56 0;
#X connect 25 0 72 0;
#X connect 26 0 47 0;
#X connect 26 0 56 0;
#X connect 26 0 72 0;
#X connect 27 0 47 0;
#X connect 27 0 56 0;
#X connect 27 0 72 0;
#X connect 28 0 47 0;
#X connect 28 0 56 0;
#X connect 28 0 72 0;
#X connect 29 0 47 0;
#X connect 29 0 56 0;
#X connect 29 0 72 0;
#X connect 30 0 47 0;
#X connect 30 0 56 0;
#X connect 30 0 72 0;
#X connect 31 0 47 0;
#X connect 31 0 56 0;
#X connect 31 0 72 0;
#X connect 32 0 47 0;
#X connect 32 0 56 0;
#X connect 32 0 72 0;
#X connect 33 0 47 0;
#X connect 33 0 56 0;
#X connect 33 0 72 0;
#X connect 34 0 47 0;
#X connect 34 0 56 0;
#X connect 34 0 72 0;
#X connect 35 0 47 0;
#X connect 35 0 56 0;
#X connect 35 0 72 0;
#X connect 36 0 0 0;
#X connect 39 0 44 0;
#X connect 40 0 41 0;
#X connect 41 0 42 0;
#X connect 41 1 43 0;
#X connect 42 0 59 0;
#X connect 42 0 78 0;
#X connect 43 0 36 0;
#X connect 44 0 40 0;
#X connect 45 0 46 0;
#X connect 46 0 36 0;
#X connect 47 0 48 0;
#X connect 51 0 55 0;
#X connect 51 1 81 0;
#X connect 52 0 53 0;
#X connect 52 1 54 0;
#X connect 53 0 51 0;
#X connect 54 0 51 1;
#X connect 55 0 56 1;
#X connect 56 0 57 0;
#X connect 57 0 82 0;
#X connect 57 0 38 0;
#X connect 59 0 50 0;
#X connect 79 0 36 1;
#X connect 80 0 59 1;
#X coords 0 -1 1 1 195 66 2 500 100;
