#N canvas 297 264 608 506 10;
#X obj 20 56 random 1e+06;
#X obj 20 78 expr ($f1/1e+06)*100;
#X obj 20 157 moses, f 8;
#X obj 65 128 f \$1;
#X obj 65 103 loadbang;
#X obj 20 179 t b;
#X obj 65 179 t b;
#X obj 20 201 outlet;
#X obj 65 201 outlet;
#X obj 20 29 inlet;
#X obj 131 111 inlet;
#X text 135 157 BERNOULLI GATE??;
#X connect 0 0 1 0;
#X connect 1 0 2 0;
#X connect 2 0 5 0;
#X connect 2 1 6 0;
#X connect 3 0 2 1;
#X connect 4 0 3 0;
#X connect 5 0 7 0;
#X connect 6 0 8 0;
#X connect 9 0 0 0;
#X connect 10 0 3 0;
