#N canvas 403 196 476 435 10;
#X obj 17 14 hsl 101 15 -1 1 0 0 \$0-red \$0-red-receive :-0.62 -3
7 0 7 -259543 -1 -262144 3800 1;
#X obj 17 33 hsl 101 15 -1 1 0 0 \$0-green \$0-green-receive :-0.82
-3 7 0 7 -4034 -1 -66577 1800 1;
#X obj 17 52 hsl 101 15 -1 1 0 0 \$0-blue \$0-blue-receive :0.46 -3
7 0 7 -108160 -1 -262144 14600 1;
#X obj 12 82 r \$0-red;
#X obj 139 82 r \$0-blue;
#X obj 69 82 r \$0-green;
#X obj 12 173 outlet;
#X obj 12 147 pack f f f;
#X obj 69 111 t b f;
#X obj 139 111 t b f;
#X obj 103 153 inlet;
#N canvas 749 157 691 325 range-label 0;
#X obj 16 91 s \$0-red-receive;
#X obj 16 113 s \$0-green-receive;
#X obj 16 136 s \$0-blue-receive;
#X obj 16 19 inlet;
#X msg 16 68 range \$1 \$2;
#X obj 16 41 route range;
#X obj 121 50 r \$0-red;
#X obj 263 94 r \$0-blue;
#X obj 193 74 r \$0-green;
#X msg 193 96 label :\$1;
#X msg 263 119 label :\$1;
#X msg 121 74 label :\$1;
#X msg 208 24 range 0 1;
#X obj 208 4 loadbang;
#X connect 3 0 5 0;
#X connect 4 0 0 0;
#X connect 4 0 1 0;
#X connect 4 0 2 0;
#X connect 5 0 4 0;
#X connect 6 0 11 0;
#X connect 7 0 10 0;
#X connect 8 0 9 0;
#X connect 9 0 1 0;
#X connect 10 0 2 0;
#X connect 11 0 0 0;
#X connect 12 0 5 0;
#X connect 13 0 12 0;
#X restore 103 178 pd range-label;
#X connect 3 0 7 0;
#X connect 4 0 9 0;
#X connect 5 0 8 0;
#X connect 7 0 6 0;
#X connect 8 0 7 0;
#X connect 8 1 7 1;
#X connect 9 0 7 0;
#X connect 9 1 7 2;
#X connect 10 0 11 0;
#X coords 0 -1 1 1 115 61 2 10 10;
