#N canvas 150 202 756 702 10;
#N canvas 1480 44 756 946 open-file 0;
#X obj 16 207 soundfiler;
#X obj 16 109 pack s \$0;
#X obj 73 262 unpack f f f f s;
#X obj 73 421 print sample-rate;
#X obj 96 400 print headersize;
#X obj 120 379 print channels;
#X obj 142 358 print bytes-per-samp;
#X obj 16 443 print samples;
#X obj 23 232 s \$0-num-samps;
#X msg 166 308 SAMPLE-INFO:;
#X obj 166 330 print -n;
#X obj 259 331 s \$0-samp-array;
#X msg 16 182 read -resize \$1 \$2-samp-array;
#X msg 83 108 read -resize \$1 \$2-samp-display;
#X obj 16 12 r \$0-snd-bng-load;
#X obj 83 133 soundfiler;
#X msg 259 310 normalize 1;
#X obj 166 286 t b b b, f 16;
#X msg 212 240 ---------------------;
#X obj 212 262 print -n;
#N canvas 256 256 444 452 sample-name 0;
#X obj 22 33 file split;
#X obj 22 55 t a a, f 10;
#X obj 79 78 list length;
#X obj 22 125 list split;
#X obj 79 99 - 1;
#X msg 51 148 label \$1;
#X obj 51 170 s \$0-r-cnv_display;
#X obj 22 10 inlet;
#X connect 0 0 1 0;
#X connect 1 0 3 0;
#X connect 1 1 2 0;
#X connect 2 0 4 0;
#X connect 3 1 5 0;
#X connect 4 0 3 1;
#X connect 5 0 6 0;
#X connect 7 0 0 0;
#X restore 40 158 pd sample-name;
#N canvas 1391 185 931 796 opnepanel-files-list 0;
#X obj 235 132 inlet;
#X obj 235 154 openpanel 2;
#X obj 127 276 list store, f 23;
#X msg 127 237 get \$1 1;
#X obj 281 193 list length;
#X obj 127 302 outlet;
#X msg 281 245 range 0 \$1;
#X obj 281 219 - 1;
#X obj 281 267 s \$0-r-samp_sel;
#X obj 235 176 t b a;
#X msg 235 225 0;
#X obj 156 145 + 1;
#X obj 127 145 i 0;
#X msg 245 87 1;
#X msg 134 82 -1;
#X obj 65 65 t b b b, f 10;
#X obj 194 56 t b b b, f 9;
#X obj 65 43 r \$0-s-tgl-samp_l;
#X obj 194 34 r \$0-s-tgl-samp_r;
#X obj 127 210 mod;
#X obj 141 179 r \$0-samp-sel;
#X obj 180 301 s \$0-r-samp_sel;
#X connect 0 0 1 0;
#X connect 1 0 9 0;
#X connect 2 0 5 0;
#X connect 3 0 2 0;
#X connect 4 0 7 0;
#X connect 4 0 19 1;
#X connect 6 0 8 0;
#X connect 7 0 6 0;
#X connect 9 0 10 0;
#X connect 9 1 4 0;
#X connect 9 1 2 1;
#X connect 10 0 8 0;
#X connect 10 0 12 0;
#X connect 11 0 12 1;
#X connect 12 0 11 0;
#X connect 12 0 19 0;
#X connect 13 0 11 1;
#X connect 14 0 11 1;
#X connect 15 0 12 0;
#X connect 15 1 11 0;
#X connect 15 2 14 0;
#X connect 16 0 12 0;
#X connect 16 1 11 0;
#X connect 16 2 13 0;
#X connect 17 0 15 0;
#X connect 18 0 16 0;
#X connect 19 0 3 0;
#X connect 19 0 8 0;
#X connect 19 0 21 0;
#X connect 20 0 19 0;
#X restore 16 59 pd opnepanel-files-list;
#X obj 40 132 t s a;
#X msg 16 34 symbol C:/Users/saulo/Music/Samples;
#X connect 0 0 8 0;
#X connect 0 0 7 0;
#X connect 0 1 2 0;
#X connect 1 0 12 0;
#X connect 1 0 22 0;
#X connect 2 0 3 0;
#X connect 2 1 4 0;
#X connect 2 2 5 0;
#X connect 2 3 6 0;
#X connect 2 4 17 0;
#X connect 9 0 10 0;
#X connect 12 0 0 0;
#X connect 13 0 15 0;
#X connect 14 0 23 0;
#X connect 16 0 11 0;
#X connect 17 0 9 0;
#X connect 17 1 18 0;
#X connect 17 2 16 0;
#X connect 18 0 19 0;
#X connect 21 0 1 0;
#X connect 22 0 20 0;
#X connect 22 1 13 0;
#X connect 23 0 21 0;
#X restore 283 210 pd open-file;
#X obj 12 295 tabread4~ \$0-samp-array;
#X obj 205 318 table \$0-samp-array 44100;
#X obj 12 247 vline~;
#X obj 12 197 pack 0 f f, f 13;
#X obj 64 67 r \$0-num-samps;
#X obj 49 118 t f f b, f 15;
#X obj 49 91 f;
#N canvas 612 348 450 300 pitch 0;
#X obj 43 67 mtof;
#X obj 43 89 / 261.62;
#X obj 43 20 inlet;
#X obj 43 111 outlet;
#X obj 43 45 f 60;
#X obj 90 28 inlet;
#X connect 0 0 1 0;
#X connect 1 0 3 0;
#X connect 2 0 4 0;
#X connect 4 0 0 0;
#X connect 5 0 4 1;
#X restore 136 155 pd pitch;
#X obj 87 172 /;
#X obj 87 146 / 44.1;
#N canvas 79 198 755 538 loadbang 0;
#X obj 17 11 loadbang;
#X obj 17 155 s \$0-samp-display;
#X msg 17 113 width 1;
#X msg 127 114 color \$1;
#X obj 127 90 + 50;
#X obj 127 68 random 49;
#X obj 17 37 t b b b, f 19;
#X obj 228 69 r~ \$0-vline-env;
#X obj 228 117 snapshot~;
#X obj 236 93 bang~;
#X obj 239 141 r \$0-num-samps;
#X msg 239 163 range 0 \$1;
#X obj 228 186 s \$0-rcv-hsld-display;
#X msg 73 114 edit 0;
#X connect 0 0 6 0;
#X connect 2 0 1 0;
#X connect 3 0 1 0;
#X connect 4 0 3 0;
#X connect 5 0 4 0;
#X connect 6 0 2 0;
#X connect 6 1 13 0;
#X connect 6 2 5 0;
#X connect 7 0 8 0;
#X connect 8 0 12 0;
#X connect 9 0 8 0;
#X connect 10 0 11 0;
#X connect 11 0 12 0;
#X connect 13 0 1 0;
#X restore 289 233 pd loadbang;
#X obj 23 271 s~ \$0-vline-env;
#X obj 232 50 hsl 121 25 0 47468 0 0 \$0-snd-hsld-display \$0-rcv-hsld-display
empty -2 -8 0 10 #43434a #ffffff #ffffff 0 1;
#X obj 12 40 t b b f, f 13;
#X obj 181 57 f;
#X obj 12 317 outlet~;
#X obj 12 14 inlet;
#X obj 341 23 bng 14 250 50 0 \$0-snd-bng-load \$0-rcv-bng-load L 5
7 0 9 #606060 #ffffff #faff00;
#N canvas 224 224 783 609 (subpatch) 0;
#X array \$0-samp-display 47468 float 2;
#X coords 0 1 47468 -1 126 25 2 0 0;
#X restore 229 50 graph;
#X obj 228 32 cnv 7 100 17 empty empty empty 2 4 0 9 #282c33 #282c33
0;
#X obj 228 39 cnv 7 70 10 \$0-s-cnv_display \$0-r-cnv_display sfx_menu_select4.wav
2 4 0 8 #282c33 #e6d36b 0;
#X obj 292 23 nbx 2 14 0 9 0 0 \$0-s-samp_sel \$0-r-samp_sel empty
0 -8 0 10 #9f9f9f #faff00 #faff00 0 256;
#X obj 276 24 tgl 12 0 \$0-s-tgl-samp_r \$0-r-tgl-samp_r ▶ 4 5 0
10 #606060 #606060 #fcfcfc 0 1;
#X obj 260 24 tgl 12 0 \$0-s-tgl-samp_l \$0-r-tgl-samp_l ◀ 3 5 0
10 #606060 #606060 #fcfcfc 0 1;
#N canvas 1023 342 670 503 tgl-scale-sel 0;
#X obj 25 41 t b;
#X msg 25 124 color 5 5 0;
#X msg 53 95 color 21 21 0;
#X obj 162 41 t b;
#X msg 162 124 color 5 5 0;
#X msg 190 95 color 21 21 0;
#X obj 25 19 r \$0-s-tgl-samp_l;
#X obj 25 157 s \$0-r-tgl-samp_l;
#X obj 162 19 r \$0-s-tgl-samp_r;
#X obj 162 157 s \$0-r-tgl-samp_r;
#X obj 53 72 del 100;
#X obj 190 72 del 100;
#X connect 0 0 1 0;
#X connect 0 0 10 0;
#X connect 1 0 7 0;
#X connect 2 0 7 0;
#X connect 3 0 4 0;
#X connect 3 0 11 0;
#X connect 4 0 9 0;
#X connect 5 0 9 0;
#X connect 6 0 0 0;
#X connect 8 0 3 0;
#X connect 10 0 2 0;
#X connect 11 0 5 0;
#X restore 259 295 pd tgl-scale-sel;
#N canvas 256 256 532 619 fwrd/rvrs 0;
#X obj 81 36 inlet;
#X msg 37 81 \$1 \, \$2 \$3;
#X msg 114 81 \$2 \, \$1 \$3;
#X obj 37 183 spigot 1;
#X obj 114 183 spigot 0;
#X obj 89 228 outlet;
#X obj 129 108 r \$0-s-tgl-reverse;
#X obj 82 130 == 0;
#X obj 159 145 == 1;
#X connect 0 0 1 0;
#X connect 0 0 2 0;
#X connect 1 0 3 0;
#X connect 2 0 4 0;
#X connect 3 0 5 0;
#X connect 4 0 5 0;
#X connect 6 0 7 0;
#X connect 6 0 8 0;
#X connect 7 0 3 1;
#X connect 8 0 4 1;
#X restore 12 219 pd fwrd/rvrs;
#X obj 324 23 tgl 14 0 \$0-s-tgl-reverse \$0-r-tgl-reverse R 4 7 0
10 #606060 #606060 #e8e828 0 1;
#N canvas 61 73 476 399 tgl-reverse 0;
#X obj 25 19 r \$0-s-tgl-reverse;
#X obj 25 157 s \$0-r-tgl-reverse;
#X obj 25 41 sel 1 0;
#X msg 25 124 color 5 5 23;
#X msg 53 95 color 21 21 15;
#X connect 0 0 2 0;
#X connect 2 0 3 0;
#X connect 2 1 4 0;
#X connect 3 0 1 0;
#X connect 4 0 1 0;
#X restore 261 271 pd tgl-reverse;
#X obj 233 113 inlet;
#X obj 233 135 s \$0-samp-sel;
#X connect 1 0 16 0;
#X connect 3 0 1 0;
#X connect 3 0 12 0;
#X connect 4 0 26 0;
#X connect 5 0 7 1;
#X connect 6 0 4 1;
#X connect 6 1 10 0;
#X connect 6 2 8 0;
#X connect 7 0 6 0;
#X connect 8 0 9 1;
#X connect 9 0 4 2;
#X connect 10 0 9 0;
#X connect 14 0 4 0;
#X connect 14 1 7 0;
#X connect 14 2 15 0;
#X connect 15 0 8 1;
#X connect 17 0 14 0;
#X connect 26 0 3 0;
#X connect 29 0 30 0;
#X coords 0 -1 1 1 134 60 2 225 20;
