#N canvas 934 82 1211 871 10;
#X floatatom 442 319 10 0 0 1 lenght - #0-sample-lenght;
#N canvas 0 50 450 250 (subpatch) 0;
#X array \$0-sample 262400 float 0;
#X coords 0 1 262399 -1 110 90 1 0 0;
#X restore 446 67 graph;
#X obj 36 209 pack f f f;
#X obj 36 120 bng 20 250 50 0 empty empty empty 17 7 0 10 -116512 -4032
-1;
#X obj 36 168 f 0;
#X obj 64 123 r \$0-sample-lenght;
#X obj 51 349 s~ \$0-sample-env;
#X obj 449 67 hsl 105 90 0 262400 0 0 \$0-array-view-send \$0-array-view
empty -2 -8 0 10 -116512 -4032 -1 0 1;
#N canvas 0 50 505 464 sld-sample-playback 0;
#X obj 111 132 s \$0-array-view;
#X obj 111 83 r \$0-sample-lenght;
#X msg 111 105 range 0 \$1;
#X obj 35 115 snapshot~;
#X obj 43 68 tgl 15 0 empty empty empty 17 7 0 10 -262144 -1 -1 1 1
;
#X obj 43 90 metro 5;
#X obj 35 20 r~ \$0-sample-env;
#X obj 43 45 loadbang;
#X connect 1 0 2 0;
#X connect 2 0 0 0;
#X connect 3 0 0 0;
#X connect 4 0 5 0;
#X connect 5 0 3 0;
#X connect 6 0 3 0;
#X connect 7 0 4 0;
#X restore 442 270 pd sld-sample-playback;
#X floatatom 93 148 5 0 0 0 - - -;
#X obj 36 302 vline~;
#X obj 36 63 t b b, f 10;
#X obj 93 179 expr ($f2/48)/$f1;
#X obj 192 157 r \$0-sample-lenght;
#X obj 36 400 delwrite~ \$0-desclick 5;
#X obj 244 278 delread~ \$0-desclick 5;
#X obj 244 377 *~;
#X obj 259 351 vline~;
#X msg 259 328 0 5 \, 1 3.5 6.5;
#N canvas 1330 191 881 687 open-file 0;
#X obj 22 294 soundfiler;
#X obj 22 215 openpanel;
#X obj 22 316 outlet;
#X obj 22 106 sel 0 1 2;
#X obj 22 18 r \$0-file-sel-0;
#X msg 22 40 0;
#X obj 55 42 r \$0-file-sel-1;
#X obj 89 67 r \$0-file-sel-2;
#X msg 55 64 1;
#X msg 89 89 2;
#X obj 22 242 pack s \$0;
#X msg 22 272 read -resize \$1 \$2-sample;
#X msg 22 134 symbol D:/Music/PROJ/Samples;
#X msg 39 160 symbol D:/Music/PROJ/Samples/Drum-Kits/DRUM-MACHINES
;
#X msg 56 187 symbol D:/Music/PROJ/Samples/For-Sonic-Pi/Plunder;
#X connect 0 0 2 0;
#X connect 1 0 10 0;
#X connect 3 0 12 0;
#X connect 3 1 13 0;
#X connect 3 2 14 0;
#X connect 4 0 5 0;
#X connect 5 0 3 0;
#X connect 6 0 8 0;
#X connect 7 0 9 0;
#X connect 8 0 3 0;
#X connect 9 0 3 0;
#X connect 10 0 11 0;
#X connect 11 0 0 0;
#X connect 12 0 1 0;
#X connect 13 0 1 0;
#X connect 14 0 1 0;
#X restore 442 295 pd open-file;
#X obj 506 180 bng 15 250 50 0 \$0-file-sel-0 \$0-file-sel-0-lb S 5
8 0 10 -116512 -4032 -257985;
#X obj 523 180 bng 15 250 50 0 \$0-file-sel-1 \$0-file-sel-1-lb D 5
8 0 10 -116512 -4032 -257985;
#X obj 540 180 bng 15 250 50 0 \$0-file-sel-2 \$0-file-sel-2-lb P 5
8 0 10 -116512 -4032 -257985;
#X obj 485 180 bng 15 250 50 0 \$0-normalize \$0-normalize-lb N 5 8
0 10 -116512 -4032 -262144;
#X obj 442 349 r \$0-normalize;
#X obj 108 209 s \$0-actual-end;
#X obj 446 180 tgl 15 0 \$0-tgl-loop \$0-tgl-loop-lb L 5 7 0 10 -116512
-116512 -262144 0 1;
#N canvas 0 50 792 447 tgl-loop 0;
#X obj 14 15 r \$0-tgl-loop;
#X obj 14 128 s \$0-tgl-loop-lb;
#X obj 14 37 sel 1 0;
#X msg 33 96 color #70707D #70707D 0;
#X msg 14 67 color 6 6 12;
#X obj 196 40 sel 1 0;
#X msg 215 99 color #70707D #70707D 0;
#X msg 196 70 color 6 6 12;
#X obj 196 18 r \$0-reverse;
#X obj 196 131 s \$0-reverse-lb;
#X connect 0 0 2 0;
#X connect 2 0 4 0;
#X connect 2 1 3 0;
#X connect 3 0 1 0;
#X connect 4 0 1 0;
#X connect 5 0 7 0;
#X connect 5 1 6 0;
#X connect 6 0 9 0;
#X connect 7 0 9 0;
#X connect 8 0 5 0;
#X restore 442 244 pd tgl-loop;
#X obj 446 160 nbx 3 15 -1e+37 1e+37 0 0 \$0-pitch \$0-pitch-mod pitch
39 7 0 10 -116512 -4032 -4032 60 256;
#X obj 244 399 outlet~;
#X obj 36 11 inlet;
#X obj 259 306 r \$0-trigger;
#X obj 45 36 r \$0-play;
#X obj 540 160 bng 15 250 50 0 \$0-play \$0-play-lb empty 5 8 0 10
-116512 -4032 -262144;
#X obj 36 374 tabread4~ \$0-sample;
#N canvas 0 50 562 448 reverse 0;
#X obj 51 62 inlet;
#X msg 51 99 \$1 \, \$2 \$3;
#X msg 121 99 \$2 \, \$1 \$3;
#X obj 51 121 spigot 1;
#X obj 121 121 spigot 0;
#X obj 51 165 outlet;
#X obj 138 25 r \$0-reverse;
#X obj 96 64 == 0;
#X obj 166 62 == 1;
#X connect 0 0 1 0;
#X connect 0 0 2 0;
#X connect 1 0 3 0;
#X connect 2 0 4 0;
#X connect 3 0 5 0;
#X connect 4 0 5 0;
#X connect 6 0 7 0;
#X connect 6 0 8 0;
#X connect 7 0 3 1;
#X connect 8 0 4 1;
#X restore 36 256 pd reverse;
#X obj 463 180 tgl 15 0 \$0-reverse \$0-reverse-lb R 5 7 0 10 -116512
-116512 -262144 0 1;
#X obj 442 395 s \$0-sample;
#X msg 442 371 normalize 1;
#N canvas 1313 148 568 404 loop 0;
#X obj 78 75 del;
#X obj 106 75 r \$0-actual-end;
#X obj 78 101 spigot 0;
#X obj 135 101 r \$0-tgl-loop;
#X obj 79 47 s \$0-trigger;
#X obj 30 30 inlet;
#X obj 78 123 outlet;
#X connect 0 0 2 0;
#X connect 1 0 0 1;
#X connect 2 0 6 0;
#X connect 3 0 2 1;
#X connect 5 0 0 0;
#X connect 5 0 4 0;
#X restore 20 91 pd loop;
#N canvas 1258 105 617 554 pitch 0;
#X obj 37 163 mtof;
#X obj 37 185 / 261.62;
#X obj 37 95 f;
#X floatatom 52 70 5 0 0 0 - - -;
#X obj 103 102 loadbang;
#X msg 103 124 60;
#X obj 52 46 r \$0-pitch;
#X obj 103 148 s \$0-pitch-mod;
#X obj 161 81 r \$0-sample-lenght;
#X obj 161 107 t b;
#X obj 37 207 outlet;
#X obj 37 20 inlet;
#X connect 0 0 1 0;
#X connect 1 0 10 0;
#X connect 2 0 0 0;
#X connect 3 0 2 1;
#X connect 4 0 5 0;
#X connect 5 0 7 0;
#X connect 6 0 3 0;
#X connect 8 0 9 0;
#X connect 9 0 5 0;
#X connect 11 0 2 0;
#X restore 93 92 pd pitch;
#X obj 226 84 hsl 128 15 0 262400 0 0 empty empty empty -2 -8 0 10
-116512 -4032 -4032 0 1;
#X msg 223 58 range 0 \$1;
#X obj 223 33 r \$0-sample-lenght;
#X connect 2 0 35 0;
#X connect 3 0 4 0;
#X connect 3 0 39 0;
#X connect 4 0 2 0;
#X connect 5 0 2 1;
#X connect 9 0 12 0;
#X connect 10 0 6 0;
#X connect 10 0 34 0;
#X connect 11 0 3 0;
#X connect 11 1 40 0;
#X connect 12 0 2 2;
#X connect 12 0 25 0;
#X connect 13 0 12 1;
#X connect 15 0 16 0;
#X connect 16 0 29 0;
#X connect 17 0 16 1;
#X connect 18 0 17 0;
#X connect 19 0 0 0;
#X connect 24 0 38 0;
#X connect 30 0 11 0;
#X connect 31 0 18 0;
#X connect 32 0 11 0;
#X connect 34 0 14 0;
#X connect 35 0 10 0;
#X connect 38 0 37 0;
#X connect 39 0 11 0;
#X connect 40 0 9 0;
#X connect 41 0 4 1;
#X connect 42 0 41 0;
#X connect 43 0 42 0;
#X coords 0 -1 1 1 119 150 2 441 50;
