#N canvas 328 40 768 918 10;
#N canvas 518 66 731 889 open-file 0;
#X obj 16 177 soundfiler;
#X obj 16 79 pack s \$0;
#X msg 16 34 symbol C:/Pd/SAMPLES/;
#X obj 16 56 openpanel;
#X obj 73 232 unpack f f f f s;
#X obj 73 391 print sample-rate;
#X obj 96 370 print headersize;
#X obj 120 349 print channels;
#X obj 142 328 print bytes-per-samp;
#X obj 16 413 print samples;
#X obj 23 202 s \$0-num-samps;
#X msg 166 278 SAMPLE-INFO:;
#X obj 166 300 print -n;
#X obj 166 256 t b b, f 16;
#X obj 259 301 s \$0-samp-array;
#X msg 16 152 read -resize \$1 \$2-samp-array;
#X msg 28 102 read -resize \$1 \$2-samp-display;
#X msg 259 280 normalize 1;
#X obj 16 12 r \$0-snd-bng-load;
#X obj 28 127 soundfiler;
#X connect 0 0 9 0;
#X connect 0 0 10 0;
#X connect 0 1 4 0;
#X connect 1 0 15 0;
#X connect 1 0 16 0;
#X connect 2 0 3 0;
#X connect 3 0 1 0;
#X connect 4 0 5 0;
#X connect 4 1 6 0;
#X connect 4 2 7 0;
#X connect 4 3 8 0;
#X connect 4 4 13 0;
#X connect 11 0 12 0;
#X connect 13 0 11 0;
#X connect 13 1 17 0;
#X connect 15 0 0 0;
#X connect 16 0 19 0;
#X connect 17 0 14 0;
#X connect 18 0 2 0;
#X restore 297 374 pd open-file;
#X obj 12 369 tabread4~ \$0-samp-array;
#X obj 219 420 table \$0-samp-array 44100;
#X obj 12 321 vline~;
#N canvas 1228 441 450 300 pitch 0;
#X obj 43 67 mtof;
#X obj 43 89 / 261.62;
#X obj 43 20 inlet;
#X obj 43 111 outlet;
#X obj 43 45 f 60;
#X obj 90 28 inlet;
#X connect 0 0 1 0;
#X connect 1 0 3 0;
#X connect 2 0 4 0;
#X connect 4 0 0 0;
#X connect 5 0 4 1;
#X restore 141 202 pd pitch;
#N canvas 1253 154 1041 712 loadbang 0;
#X obj 17 11 loadbang;
#X obj 17 155 s \$0-samp-display;
#X msg 17 113 width 1;
#X msg 127 114 color \$1;
#X obj 17 37 t b b b, f 19;
#X obj 222 16 r~ \$0-vline-env;
#X obj 222 64 snapshot~;
#X obj 230 40 bang~;
#X obj 233 88 r \$0-num-samps;
#X msg 233 110 range 0 \$1;
#X obj 222 133 s \$0-rcv-hsld-display;
#X msg 74 114 edit 0;
#X obj 127 68 random 99;
#X obj 127 90 + 1;
#X obj 174 32 bng 15 250 50 0 empty empty empty 17 7 0 10 #fcfcfc #000000
#000000;
#X obj 379 65 s \$0-rcv-env-list;
#X obj 379 18 loadbang;
#X msg 379 40 5 50 80 800;
#X obj 87 193 r \$0-snd-tgl-reverse;
#X obj 87 215 sel 1 0;
#X msg 107 238 color #70707d #70707d 0;
#X obj 87 283 s \$0-rcv-tgl-reverse;
#X msg 87 261 color #00e080 #00e080 22;
#X connect 0 0 4 0;
#X connect 2 0 1 0;
#X connect 3 0 1 0;
#X connect 4 0 2 0;
#X connect 4 1 11 0;
#X connect 4 2 12 0;
#X connect 5 0 6 0;
#X connect 6 0 10 0;
#X connect 7 0 6 0;
#X connect 8 0 9 0;
#X connect 9 0 10 0;
#X connect 11 0 1 0;
#X connect 12 0 13 0;
#X connect 13 0 3 0;
#X connect 14 0 12 0;
#X connect 16 0 17 0;
#X connect 17 0 15 0;
#X connect 18 0 19 0;
#X connect 19 0 22 0;
#X connect 19 1 20 0;
#X connect 20 0 21 0;
#X connect 22 0 21 0;
#X restore 303 397 pd loadbang;
#X obj 23 345 s~ \$0-vline-env;
#X obj 256 32 hsl 97 20 0 1.64144e+06 0 0 \$0-snd-hsld-display \$0-rcv-hsld-display
empty -2 -8 0 10 #43434a #ffffff #ffffff 0 1;
#X obj 12 431 outlet~;
#X obj 12 2 inlet;
#X obj 231 34 bng 15 250 50 0 \$0-snd-bng-load \$0-rcv-bng-load load
-3 -6 0 8 #9f9f9f #ffffff #ffffff;
#N canvas 224 224 783 609 (subpatch) 0;
#X array \$0-samp-display 1.64144e+06 float 2;
#X coords 0 1 1.64144e+06 -1 102 20 2 0 0;
#X restore 253 32 graph;
#X obj 250 21 cnv 7 100 10 empty empty empty 20 12 0 14 #282c33 #282c33
0;
#X obj 12 271 pack f f f, f 13;
#X obj 12 204 f;
#X obj 87 200 -, f 5;
#X obj 87 222 / 44.1;
#X obj 87 118 r \$0-num-samps;
#X obj 97 175 t b f;
#X obj 42 135 / 100;
#X obj 27 158 *;
#X obj 87 245 /;
#X obj 141 228 t b f;
#X obj 12 70 t b f, f 22;
#X obj 141 179 t b f, f 8;
#X obj 50 203 t f;
#N canvas 967 134 428 675 env~ 0;
#X obj 19 11 inlet~;
#X obj 19 301 outlet~;
#X obj 19 271 *~;
#X obj 34 243 pow~ 2;
#X obj 34 208 adsr, f 23;
#X obj 88 154 unpack f f f f;
#X obj 34 82 t f f;
#X obj 34 104 > 0;
#X obj 61 103 / 127;
#X obj 34 46 r \$0-velocity;
#X obj 88 131 r \$0-snd-env-list;
#X connect 0 0 2 0;
#X connect 2 0 1 0;
#X connect 3 0 2 1;
#X connect 4 0 3 0;
#X connect 5 0 4 2;
#X connect 5 1 4 3;
#X connect 5 2 4 4;
#X connect 5 3 4 5;
#X connect 6 0 7 0;
#X connect 6 1 8 0;
#X connect 7 0 4 0;
#X connect 8 0 4 1;
#X connect 9 0 6 0;
#X connect 10 0 5 0;
#X restore 12 400 pd env~;
#X obj 12 23 unpack;
#X obj 58 23 s \$0-velocity;
#X obj 12 47 stripnote;
#X listbox 232 59 20 0 5000 0 - \$0-rcv-env-list \$0-snd-env-list 0
;
#X obj 232 80 nbx 3 14 0 100 0 0 \$0-snd-samp-start \$0-rcv-samp-start
start 40 7 0 10 #70707d #ffffff #ffffff 0 256;
#X obj 27 94 r \$0-snd-samp-start;
#N canvas 1058 457 564 408 message 0;
#X obj 37 37 inlet;
#X msg 37 124 \$1 \, \$2 \$3;
#X msg 119 125 \$2 \, \$1 \$3;
#X obj 119 98 spigot 0;
#X obj 37 97 spigot 1;
#X obj 37 166 outlet;
#X obj 128 21 r \$0-snd-tgl-reverse;
#X obj 82 64 == 0;
#X obj 164 60 == 1;
#X connect 0 0 3 0;
#X connect 0 0 4 0;
#X connect 1 0 5 0;
#X connect 2 0 5 0;
#X connect 3 0 2 0;
#X connect 4 0 1 0;
#X connect 6 0 7 0;
#X connect 6 0 8 0;
#X connect 7 0 4 1;
#X connect 8 0 3 1;
#X restore 12 293 pd message;
#X obj 337 81 tgl 15 0 \$0-snd-tgl-reverse \$0-rcv-tgl-reverse R 4
7 0 11 #70707d #70707d #fcfcfc 0 1;
#X connect 1 0 26 0;
#X connect 3 0 1 0;
#X connect 3 0 6 0;
#X connect 4 0 22 0;
#X connect 9 0 27 0;
#X connect 13 0 33 0;
#X connect 14 0 13 0;
#X connect 15 0 16 0;
#X connect 16 0 21 0;
#X connect 17 0 15 0;
#X connect 17 0 19 0;
#X connect 17 0 25 0;
#X connect 18 0 15 0;
#X connect 18 1 15 1;
#X connect 19 0 20 1;
#X connect 20 0 14 1;
#X connect 20 0 18 0;
#X connect 21 0 13 2;
#X connect 22 0 21 0;
#X connect 22 1 21 1;
#X connect 23 0 14 0;
#X connect 23 1 24 0;
#X connect 24 0 4 0;
#X connect 24 1 4 1;
#X connect 25 0 13 1;
#X connect 26 0 8 0;
#X connect 27 0 29 0;
#X connect 27 1 28 0;
#X connect 27 1 29 1;
#X connect 29 0 23 0;
#X connect 32 0 20 0;
#X connect 33 0 3 0;
#X coords 0 -1 1 1 134 81 2 225 20;
