#N canvas 998 162 564 193 10;
#N canvas 255 184 1341 755 scales-list 0;
#X msg 15 109 \; scale.tab 0 0 2 3 5 7 8 10 12 14 15 17 19 20 22 24
26 27 29 31 32 34 36 38 39 41 43 44 46 48 50 51 53 55 56 58 60 62 63
65 67 68 70 72 74 75 77 79 80 82 84 86 87 89 91 92 94, f 105;
#X text 25 91 MINOR SCALE;
#X msg 18 248 \; scale.tab 0 0 2 4 7 9 12 14 16 19 21 24 26 28 31 33
36 38 40 43 45 48 50 52 55 57 60 62 64 67 69 72 74 76 79 81 84 86 88
91 93, f 103;
#X text 31 227 PENTATONIC SCALE;
#X text 31 157 MAJOR SCALE;
#X msg 17 177 \; scale.tab 0 0 2 4 5 7 9 11 12 14 16 17 19 21 23 24
26 28 29 31 33 35 36 38 40 41 43 45 47 48 50 52 53 55 57 59 60 62 64
65 67 69 71 72 74 76 77 79 81 83 84 86 88 89 91 93 95, f 104;
#X obj 83 54 sel minor major pentatonic;
#X obj 83 32 r \$0-scale-sel;
#X connect 6 0 0 0;
#X connect 6 1 5 0;
#X connect 6 2 2 0;
#X connect 7 0 6 0;
#X restore 178 41 pd scales-list;
#X obj 178 18 table scale.tab;
#X symbolatom 20 44 12 0 0 2 scale #0-scale-sel #0-scale-sel-send;
#X obj 78 19 bng 17 250 50 0 \$0-scale-sel-bng \$0-scale-sel-bng-lb
> 5 8 0 15 -116512 -262144 -262144;
#N canvas 457 271 484 607 scale-sel 0;
#X obj 43 257 s \$0-scale-sel;
#X msg 43 165 symbol minor;
#X msg 70 191 symbol major;
#X msg 97 215 symbol pentatonic;
#X obj 43 26 r \$0-scale-sel-bng;
#X obj 43 96 i;
#X obj 69 97 + 1;
#X obj 43 118 mod 3;
#X obj 43 140 sel 0 1 2, f 14;
#X obj 58 49 loadbang;
#X msg 58 71 0;
#X msg 101 114 0;
#X connect 1 0 0 0;
#X connect 2 0 0 0;
#X connect 3 0 0 0;
#X connect 4 0 5 0;
#X connect 5 0 6 0;
#X connect 5 0 7 0;
#X connect 6 0 5 1;
#X connect 7 0 8 0;
#X connect 8 0 1 0;
#X connect 8 1 2 0;
#X connect 8 2 3 0;
#X connect 9 0 10 0;
#X connect 9 0 11 0;
#X connect 10 0 5 1;
#X connect 11 0 8 0;
#X restore 178 65 pd scale-sel;
#X coords 0 -1 1 1 85 50 2 15 15;
