#N canvas 880 269 767 757 10;
#X obj 62 115 t f f, f 6;
#X obj 62 227 mod 16;
#X obj 62 255 sel 0;
#X obj 62 295 f 1234;
#X msg 62 317 seed \$1;
#X obj 62 339 outlet;
#X obj 196 132 mod 256;
#X obj 196 160 sel 0;
#X obj 196 256 random 1e+06;
#X obj 196 278 + 1;
#X obj 95 171 f \$1;
#X obj 62 43 inlet counter;
#X text 15 228 reseed;
#X text 255 131 new seed;
#X obj 95 141 inlet ressed;
#X obj 235 18 loadbang;
#X obj 246 43 inlet new-seed;
#X obj 235 69 f \$2;
#N canvas 1692 271 486 401 route 0;
#X obj 57 40 inlet;
#X obj 57 62 route new-seed;
#X obj 154 62 outlet;
#X obj 57 102 t b;
#X obj 57 132 s \$0-trg-seed;
#X connect 0 0 1 0;
#X connect 1 0 3 0;
#X connect 1 1 2 0;
#X connect 3 0 4 0;
#X restore 62 79 pd route;
#X obj 210 230 r \$0-trg-seed;
#X obj 95 199 * 16;
#X obj 235 101 * 16;
#X connect 0 0 1 0;
#X connect 0 1 6 0;
#X connect 1 0 2 0;
#X connect 2 0 3 0;
#X connect 3 0 4 0;
#X connect 4 0 5 0;
#X connect 6 0 7 0;
#X connect 7 0 8 0;
#X connect 8 0 9 0;
#X connect 9 0 3 1;
#X connect 10 0 20 0;
#X connect 11 0 18 0;
#X connect 14 0 10 0;
#X connect 15 0 17 0;
#X connect 15 0 10 0;
#X connect 16 0 17 0;
#X connect 17 0 21 0;
#X connect 18 0 0 0;
#X connect 19 0 8 0;
#X connect 20 0 1 1;
#X connect 21 0 6 1;
