#N canvas -9 -9 1920 1026 12;
#X obj 22 183 bng 30 250 50 0 empty empty empty 17 7 0 10 -257985 -1
-1;
#X floatatom 118 191 5 0 0 1 decay - -;
#N canvas -37 65 1082 783 snare 0;
#X obj 92 77 noise~;
#X obj 154 180 *~;
#X obj 173 51 f 250;
#N canvas 0 50 748 634 env 0;
#X obj 37 37 inlet;
#X obj 37 90 vline~;
#X obj 37 114 *~;
#X msg 37 64 1 0.5 \, 0 \$1 0.5;
#X obj 37 138 outlet~;
#X connect 0 0 3 0;
#X connect 1 0 2 0;
#X connect 1 0 2 1;
#X connect 2 0 4 0;
#X connect 3 0 1 0;
#X restore 173 75 pd env;
#X obj 92 101 hip~ 100;
#X obj 137 309 vcf~ 3;
#X obj 199 310 vcf~ 5;
#N canvas 0 50 748 634 cutoff_env 0;
#X obj 37 37 inlet;
#X obj 37 90 vline~;
#X obj 37 114 *~;
#X msg 37 64 1 0.5 \, 0 \$1 0.5;
#X obj 37 138 outlet~;
#X connect 0 0 3 0;
#X connect 1 0 2 0;
#X connect 1 0 2 1;
#X connect 2 0 4 0;
#X connect 3 0 1 0;
#X restore 280 169 pd cutoff_env;
#X obj 281 216 *~ 8000;
#X obj 281 240 +~ 100;
#X obj 342 216 *~ 5000;
#X obj 342 240 +~ 200;
#N canvas 0 50 766 807 fm 0;
#X obj 78 219 osc~;
#X obj 78 253 *~;
#X obj 207 157 *~;
#X obj 52 135 sig~ 150;
#X obj 122 135 osc~ 50;
#X obj 122 159 *~ 30;
#X obj 78 190 +~;
#X obj 78 277 outlet~;
#X obj 207 123 inlet~;
#X connect 0 0 1 0;
#X connect 1 0 7 0;
#X connect 2 0 1 1;
#X connect 3 0 6 0;
#X connect 4 0 5 0;
#X connect 5 0 6 1;
#X connect 6 0 0 0;
#X connect 8 0 2 0;
#X connect 8 0 2 1;
#X restore 212 147 pd fm;
#X obj 257 88 * 2;
#X floatatom 351 86 5 0 0 0 - - -;
#X obj 351 109 * 0.6;
#X obj 351 56 inlet;
#X obj 137 348 outlet~;
#X obj 205 22 inlet;
#X obj 145 24 inlet;
#X connect 0 0 4 0;
#X connect 1 0 5 0;
#X connect 1 0 6 0;
#X connect 2 0 3 0;
#X connect 2 0 13 0;
#X connect 3 0 1 1;
#X connect 3 0 12 0;
#X connect 4 0 1 0;
#X connect 5 0 17 0;
#X connect 6 0 17 0;
#X connect 7 0 8 0;
#X connect 7 0 10 0;
#X connect 8 0 9 0;
#X connect 9 0 5 1;
#X connect 10 0 11 0;
#X connect 11 0 6 1;
#X connect 12 0 5 0;
#X connect 12 0 6 0;
#X connect 13 0 7 0;
#X connect 14 0 15 0;
#X connect 14 0 8 1;
#X connect 15 0 10 1;
#X connect 16 0 14 0;
#X connect 18 0 2 1;
#X connect 19 0 2 0;
#X restore 22 231 pd snare;
#X f 28;
#X floatatom 215 191 10 0 0 1 noise - -;
#X obj 215 34 vsl 15 128 50 22000 1 0 empty snare_noise empty 0 -9
0 10 -262144 -1 -1 22870 1;
#X obj 118 36 vsl 15 128 50 2000 1 0 empty snare_decay empty 0 -9 0
10 -262144 -1 -1 4772 1;
#X msg 690 241 \; snare_decay 300 \; snare_noise 6000 \;;
#X msg 766 295 \; snare_decay 800 \; snare_noise 3000 \;;
#X msg 623 351 \; snare_decay 50 \; snare_noise 6000 \;;
#X msg 709 424 \; snare_decay 300 \; snare_noise 6000 \;;
#X msg 545 243 \; snare_decay 200 \; snare_noise 10000 \;;
#X msg 621 297 \; snare_decay 450 \; snare_noise 1500 \;;
#X msg 478 353 \; snare_decay 100 \; snare_noise 12000 \;;
#X msg 564 424 \; snare_decay 1000 \; snare_noise 5000 \;;
#X obj 22 136 inlet;
#X floatatom 357 305 5 50 2000 0 D snare_decay -;
#X floatatom 357 327 5 50 20000 0 N snare_noise -;
#X obj 306 314 bng 25 250 50 0 empty empty S 8 13 0 18 -262144 -1 -99865
;
#X obj 545 125 random 8;
#X obj 545 152 sel 0 1 2 3 4 5 6 7;
#X obj 545 57 loadbang;
#X obj 22 357 outlet~;
#X obj 346 351 hsl 46 15 0 1 0 0 volume_snare empty VOL 0 8 0 10 -262130
-1 -1 4500 0;
#X floatatom 61 257 5 0 0 0 - volume_snare -;
#X obj 304 351 nbx 3 15 0.02 1 0 1 empty volume_snare empty 0 -8 0
10 -262130 -1 -1 0.5 256;
#X obj 212 358 loadbang;
#X msg 212 382 0.5;
#X obj 22 281 *~;
#X obj 290 232 inlet;
#X obj 391 232 inlet;
#X obj 481 228 inlet;
#X obj 290 256 s snare_decay;
#X obj 392 257 s snare_noise;
#X connect 0 0 2 0;
#X connect 1 0 2 1;
#X connect 2 0 27 0;
#X connect 3 0 2 2;
#X connect 4 0 3 0;
#X connect 5 0 1 0;
#X connect 14 0 0 0;
#X connect 14 0 17 0;
#X connect 15 0 1 0;
#X connect 16 0 3 0;
#X connect 18 0 19 0;
#X connect 19 0 10 0;
#X connect 19 1 11 0;
#X connect 19 2 12 0;
#X connect 19 3 13 0;
#X connect 19 4 6 0;
#X connect 19 5 7 0;
#X connect 19 6 8 0;
#X connect 19 7 9 0;
#X connect 20 0 18 0;
#X connect 23 0 27 1;
#X connect 25 0 26 0;
#X connect 26 0 22 0;
#X connect 27 0 21 0;
#X connect 28 0 31 0;
#X connect 29 0 32 0;
#X connect 30 0 22 0;
#X coords 0 -1 1 1 97 72 2 300 300;
