#N canvas 1103 173 676 625 10;
#X obj 182 163 s \$0-gain_meter;
#X obj 125 52 r \$0-gain_adjust;
#X obj 26 286 outlet~ L;
#X obj 154 226 hsl 99 16 -80 0 0 0 \$0-gain_adjust \$0-gain_meter -12db
0 9 0 10 -116512 -262144 -262144 16660 1;
#X obj 26 185 *~;
#X obj 61 196 *~;
#X obj 209 86 loadbang;
#X obj 269 109 route vol;
#N canvas 0 50 586 400 pan-stuff 0;
#X obj 14 42 / 4;
#X obj 14 12 r \$0-panning;
#X msg 14 92 \$1 10;
#X obj 14 117 line~;
#X obj 14 142 cos~;
#X msg 59 92 \$1 10;
#X obj 59 117 line~;
#X obj 59 142 cos~;
#X obj 59 67 + 0.75;
#X obj 115 134 hsl 100 15 0 1 0 0 \$0-panning \$0-pan_meter -50- 0
7 0 10 -116512 -204800 -4032 9900 1;
#X obj 113 101 s \$0-pan_meter;
#X msg 113 77 label -\$1-;
#X obj 113 53 int;
#X obj 113 29 * 100;
#X obj 213 62 loadbang;
#X msg 213 84 0.5;
#X connect 0 0 2 0;
#X connect 0 0 8 0;
#X connect 1 0 0 0;
#X connect 1 0 13 0;
#X connect 2 0 3 0;
#X connect 3 0 4 0;
#X connect 5 0 6 0;
#X connect 6 0 7 0;
#X connect 8 0 5 0;
#X connect 11 0 10 0;
#X connect 12 0 11 0;
#X connect 13 0 12 0;
#X connect 14 0 15 0;
#X connect 15 0 10 0;
#X restore 150 250 pd pan-stuff;
#X msg 125 78 100 \$1;
#X obj 125 100 +;
#X obj 125 168 dbtorms~;
#X msg 182 132 label \$1db;
#X msg 209 108 -12;
#X obj 182 79 int;
#X obj 26 238 *~ 1;
#X obj 125 122 pack 0 50;
#X obj 125 144 line~;
#X obj 61 260 outlet~ R;
#X obj 61 237 *~ 1;
#X obj 61 106 inlet~ R;
#X obj 26 13 inlet~ fwd, f 41;
#X connect 1 0 9 0;
#X connect 1 0 14 0;
#X connect 4 0 15 0;
#X connect 5 0 19 0;
#X connect 6 0 13 0;
#X connect 7 0 0 0;
#X connect 9 0 10 0;
#X connect 10 0 16 0;
#X connect 11 0 4 1;
#X connect 11 0 5 1;
#X connect 12 0 0 0;
#X connect 13 0 0 0;
#X connect 14 0 12 0;
#X connect 15 0 2 0;
#X connect 16 0 17 0;
#X connect 17 0 11 0;
#X connect 19 0 18 0;
#X connect 20 0 5 0;
#X connect 21 0 4 0;
#X connect 21 1 7 0;
#X coords 0 -1 1 1 106 18 2 150 225;
