#N canvas 670 138 837 469 10;
#N canvas 229 70 1718 878 chorus 0;
#X obj 45 142 cos~;
#X obj 45 164 expr~ $v1*0.5+0.5;
#X obj 45 290 *~;
#X obj 45 334 +~;
#X obj 170 147 cos~;
#X obj 170 169 expr~ $v1*0.5+0.5;
#X obj 170 295 *~;
#X obj 296 147 cos~;
#X obj 296 169 expr~ $v1*0.5+0.5;
#X obj 296 295 *~;
#N canvas 0 50 450 394 line 0;
#X obj 37 37 inlet;
#X obj 37 59 pack 0 25;
#X obj 37 81 line~;
#X obj 37 125 outlet~;
#X connect 0 0 1 0;
#X connect 1 0 2 0;
#X connect 2 0 3 0;
#X restore 185 219 pd line;
#X obj 45 386 outlet~;
#X obj 170 116 +~ 0.33;
#X obj 296 116 +~ 0.99;
#X obj 45 356 /~ 3;
#X obj 45 312 delread4~ \$0-chorus;
#X obj 170 317 delread4~ \$0-chorus;
#X obj 296 317 delread4~ \$0-chorus;
#X obj 170 26 r \$0-speed;
#X obj 185 197 r \$0-depth;
#X obj 170 50 phasor~ 1;
#X obj 434 147 cos~;
#X obj 434 169 expr~ $v1*0.5+0.5;
#X obj 434 295 *~;
#X obj 434 339 +~;
#X obj 559 152 cos~;
#X obj 559 174 expr~ $v1*0.5+0.5;
#X obj 559 300 *~;
#X obj 685 152 cos~;
#X obj 685 174 expr~ $v1*0.5+0.5;
#X obj 685 300 *~;
#N canvas 0 50 450 394 line 0;
#X obj 37 37 inlet;
#X obj 37 59 pack 0 25;
#X obj 37 81 line~;
#X obj 37 125 outlet~;
#X connect 0 0 1 0;
#X connect 1 0 2 0;
#X connect 2 0 3 0;
#X restore 574 224 pd line;
#X obj 434 391 outlet~;
#X obj 559 121 +~ 0.33;
#X obj 685 121 +~ 0.99;
#X obj 434 361 /~ 3;
#X obj 434 317 delread4~ \$0-chorus;
#X obj 559 322 delread4~ \$0-chorus;
#X obj 685 322 delread4~ \$0-chorus;
#X obj 559 31 r \$0-speed;
#X obj 574 202 r \$0-depth;
#X obj 559 55 phasor~ 1;
#X connect 0 0 1 0;
#X connect 1 0 2 0;
#X connect 2 0 15 0;
#X connect 3 0 14 0;
#X connect 4 0 5 0;
#X connect 5 0 6 0;
#X connect 6 0 16 0;
#X connect 7 0 8 0;
#X connect 8 0 9 0;
#X connect 9 0 17 0;
#X connect 10 0 9 1;
#X connect 10 0 6 1;
#X connect 10 0 2 1;
#X connect 12 0 4 0;
#X connect 13 0 7 0;
#X connect 14 0 11 0;
#X connect 15 0 3 0;
#X connect 16 0 3 1;
#X connect 17 0 3 1;
#X connect 18 0 20 0;
#X connect 19 0 10 0;
#X connect 20 0 0 0;
#X connect 20 0 12 0;
#X connect 20 0 13 0;
#X connect 21 0 22 0;
#X connect 22 0 23 0;
#X connect 23 0 36 0;
#X connect 24 0 35 0;
#X connect 25 0 26 0;
#X connect 26 0 27 0;
#X connect 27 0 37 0;
#X connect 28 0 29 0;
#X connect 29 0 30 0;
#X connect 30 0 38 0;
#X connect 31 0 30 1;
#X connect 31 0 27 1;
#X connect 31 0 23 1;
#X connect 33 0 25 0;
#X connect 34 0 28 0;
#X connect 35 0 32 0;
#X connect 36 0 24 0;
#X connect 37 0 24 1;
#X connect 38 0 24 1;
#X connect 39 0 41 0;
#X connect 40 0 31 0;
#X connect 41 0 21 0;
#X connect 41 0 33 0;
#X connect 41 0 34 0;
#X restore 12 78 pd chorus voices;
#X obj 12 45 delwrite~ \$0-chorus 10000;
#X obj 12 104 outlet~;
#X obj 105 104 outlet~;
#X obj 12 19 inlet~;
#X obj 195 29 inlet;
#X obj 195 76 f \$1;
#X obj 195 98 s \$0-speed;
#X obj 203 51 loadbang;
#X obj 270 29 inlet;
#X obj 278 51 loadbang;
#X obj 270 76 f \$2;
#X obj 270 98 s \$0-depth;
#X text 223 144 ARGUMENTS:;
#X text 223 167 0.1 - 5 (Speed);
#X text 223 185 0.1 - 50 (Depth);
#X text 339 4 by Conscio;
#X connect 0 0 2 0;
#X connect 0 1 3 0;
#X connect 4 0 1 0;
#X connect 5 0 6 0;
#X connect 6 0 7 0;
#X connect 8 0 6 0;
#X connect 9 0 11 0;
#X connect 10 0 11 0;
#X connect 11 0 12 0;
