#N canvas 145 75 1625 910 10;
#X obj 268 61 inlet~;
#X obj 113 83 delwrite~ \$0-delayA 1000;
#X obj 335 84 delwrite~ \$0-delayB 1000;
#X obj 28 430 outlet~;
#X obj 268 425 outlet~;
#X obj 125 323 s~ \$0-fbdlyA;
#X obj 340 325 s~ \$0-fbdlyB;
#X obj 112 58 r~ \$0-fbdlyA;
#X obj 335 58 r~ \$0-fbdlyB;
#X obj 114 106 r \$0-dlytimeA;
#X obj 330 109 r \$0-dlytimeB;
#X obj 375 231 r \$0-hip;
#X obj 387 183 r \$0-lop;
#X text 566 71 SIMPLE DELAY ABSTRACTION;
#N canvas 96 178 534 563 line 0;
#X obj 37 37 inlet;
#X msg 37 100 \$1 50;
#X obj 37 122 line~;
#X obj 37 144 outlet~;
#X obj 97 44 loadbang;
#X msg 97 66 0.7;
#X connect 0 0 1 0;
#X connect 1 0 2 0;
#X connect 2 0 3 0;
#X connect 4 0 5 0;
#X connect 5 0 1 0;
#X restore 394 281 pd line;
#X obj 114 298 *~;
#X obj 330 298 *~;
#X obj 330 399 *~;
#X obj 114 395 *~;
#N canvas 0 50 474 430 line 0;
#X obj 37 37 inlet;
#X obj 37 81 line~;
#X obj 37 103 outlet~;
#X msg 37 59 \$1 25;
#X obj 104 39 loadbang;
#X msg 104 61 150;
#X connect 0 0 3 0;
#X connect 1 0 2 0;
#X connect 3 0 1 0;
#X connect 4 0 5 0;
#X connect 5 0 3 0;
#X restore 114 128 pd line;
#N canvas 0 50 474 430 line 0;
#X obj 37 37 inlet;
#X obj 37 81 line~;
#X obj 37 103 outlet~;
#X msg 37 59 \$1 25;
#X obj 104 39 loadbang;
#X msg 104 61 170;
#X connect 0 0 3 0;
#X connect 1 0 2 0;
#X connect 3 0 1 0;
#X connect 4 0 5 0;
#X connect 5 0 3 0;
#X restore 330 132 pd line;
#X obj 493 296 s \$0-dlytimeA;
#X text 511 380 feedback: 0 - 1;
#X obj 535 273 s \$0-dlytimeB;
#X obj 618 227 s \$0-lop;
#X obj 659 203 s \$0-hip;
#X obj 330 208 lop~ 5000;
#X obj 114 200 lop~ 5000;
#X obj 114 248 hip~ 350;
#X obj 330 257 hip~ 350;
#X obj 330 155 delread4~ \$0-delayB;
#X obj 114 154 delread4~ \$0-delayA;
#X obj 576 249 s \$0-fb;
#X obj 394 258 r \$0-fb;
#X obj 28 391 *~;
#X obj 701 181 s \$0-dry-wet;
#X obj 200 341 r \$0-dry-wet;
#N canvas 0 50 450 300 dry 0;
#X obj 49 77 pack 0 50;
#X obj 49 99 line~;
#X obj 49 31 - 1;
#X obj 49 53 abs;
#X obj 49 121 outlet~;
#X obj 49 8 inlet;
#X connect 0 0 1 0;
#X connect 1 0 4 0;
#X connect 2 0 3 0;
#X connect 3 0 0 0;
#X connect 5 0 2 0;
#X restore 43 366 pd dry;
#N canvas 0 50 450 300 wet 0;
#X obj 63 44 pack 0 50;
#X obj 63 66 line~;
#X obj 63 88 outlet~;
#X obj 63 19 inlet;
#X connect 0 0 1 0;
#X connect 1 0 2 0;
#X connect 3 0 0 0;
#X restore 129 371 pd wet;
#N canvas 0 50 450 300 wet 0;
#X obj 63 44 pack 0 50;
#X obj 63 66 line~;
#X obj 63 88 outlet~;
#X obj 63 19 inlet;
#X connect 0 0 1 0;
#X connect 1 0 2 0;
#X connect 3 0 0 0;
#X restore 345 366 pd wet;
#X text 511 418 dry/wet: 0 - 1;
#X obj 268 391 *~;
#N canvas 0 50 450 300 dry 0;
#X obj 49 77 pack 0 50;
#X obj 49 99 line~;
#X obj 49 31 - 1;
#X obj 49 53 abs;
#X obj 49 121 outlet~;
#X obj 49 8 inlet;
#X connect 0 0 1 0;
#X connect 1 0 4 0;
#X connect 2 0 3 0;
#X connect 3 0 0 0;
#X connect 5 0 2 0;
#X restore 283 366 pd dry;
#X obj 493 157 route timeL timeR feedback lop hip dry/wet;
#X text 512 344 FLAGS:;
#X text 512 361 timeL / timeR: 0 - 1000 ms;
#X text 510 398 lop / hip: 0 - 15000 Hz;
#X text 707 4 by MisterConscio;
#X text 532 129 Flags inlet;
#X obj 28 20 inlet~ fwd, f 78;
#X obj 715 106 loadbang;
#X msg 715 128 0.5;
#X connect 0 0 2 0;
#X connect 0 0 41 0;
#X connect 7 0 1 0;
#X connect 8 0 2 0;
#X connect 9 0 19 0;
#X connect 10 0 20 0;
#X connect 11 0 28 1;
#X connect 11 0 29 1;
#X connect 12 0 26 1;
#X connect 12 0 27 1;
#X connect 14 0 15 1;
#X connect 14 0 16 1;
#X connect 15 0 5 0;
#X connect 15 0 18 0;
#X connect 16 0 6 0;
#X connect 16 0 17 0;
#X connect 17 0 4 0;
#X connect 18 0 3 0;
#X connect 19 0 31 0;
#X connect 20 0 30 0;
#X connect 26 0 29 0;
#X connect 27 0 28 0;
#X connect 28 0 15 0;
#X connect 29 0 16 0;
#X connect 30 0 26 0;
#X connect 31 0 27 0;
#X connect 33 0 14 0;
#X connect 34 0 3 0;
#X connect 36 0 37 0;
#X connect 36 0 38 0;
#X connect 36 0 42 0;
#X connect 36 0 39 0;
#X connect 37 0 34 1;
#X connect 38 0 18 1;
#X connect 39 0 17 1;
#X connect 41 0 4 0;
#X connect 42 0 41 1;
#X connect 43 0 21 0;
#X connect 43 1 23 0;
#X connect 43 2 32 0;
#X connect 43 3 24 0;
#X connect 43 4 25 0;
#X connect 43 5 35 0;
#X connect 49 0 1 0;
#X connect 49 0 34 0;
#X connect 49 1 43 0;
#X connect 50 0 51 0;
#X connect 51 0 35 0;
#X coords 0 455 1 454 232 100 0;
