#N canvas 924 105 871 631 10;
#X obj 100 100 tgl 18 0 empty empty empty 17 7 0 10 -262144 -262144
-262144 0 1;
#X obj 67 153 spigot;
#X obj 13 136 inlet;
#X obj 67 176 outlet;
#X msg 147 140 color \$1 \$1 0;
#X obj 147 118 * 22;
#X obj 99 217 == 0;
#X obj 66 248 spigot;
#X obj 100 34 loadbang;
#X obj 100 56 0;
#X obj 169 39 inlet;
#X obj 169 61 spigot;
#X obj 280 101 t b f;
#X obj 280 79 r change_toggle_color;
#X msg 66 271 color 0 0 0;
#X msg 169 83 color 17 17 0;
#X connect 0 0 1 1;
#X connect 0 0 5 0;
#X connect 0 0 6 0;
#X connect 1 0 3 0;
#X connect 2 0 1 0;
#X connect 2 0 7 0;
#X connect 4 0 0 0;
#X connect 5 0 4 0;
#X connect 6 0 7 1;
#X connect 6 0 11 1;
#X connect 7 0 14 0;
#X connect 8 0 9 0;
#X connect 9 0 0 0;
#X connect 10 0 11 0;
#X connect 11 0 15 0;
#X connect 12 0 5 0;
#X connect 12 1 5 1;
#X connect 13 0 12 0;
#X connect 14 0 0 0;
#X connect 15 0 0 0;
#X coords 0 -1 1 1 18 18 2 100 100;
