#N canvas 1403 116 758 870 10;
#X obj 28 359 samphold~;
#X obj 149 342 phasor~ 4800;
#X floatatom 149 297 10 0 0 0 - - -;
#X obj 149 318 sig~;
#X obj 28 179 *~ 4;
#X obj 28 230 -~;
#X obj 43 201 wrap~;
#X obj 28 314 /~ 4, f 6;
#X obj 103 107 pow 2;
#X msg 103 82 2;
#X obj 103 57 t b f;
#X floatatom 103 129 10 0 0 0 - - #0-bits;
#X obj 28 381 outlet~;
#X obj 28 94 inlet~;
#X obj 58 225 -~ 0.5;
#X obj 58 247 *~ 65536;
#X obj 58 269 clip~ 0 1;
#X obj 28 286 +~;
#X obj 28 336 -~ 1;
#X obj 61 162 r \$0-bits;
#X obj 61 293 r \$0-bits;
#X obj 28 116 clip~ -1 1;
#X obj 28 138 +~ 1;
#X obj 149 268 /, f 5;
#X obj 149 162 inlet;
#X obj 149 184 f \$2;
#X obj 103 11 inlet;
#X obj 103 33 f \$1;
#X obj 153 16 loadbang;
#X obj 190 159 loadbang;
#X text 274 6 by MisterConscio;
#X obj 149 206 t b f;
#N canvas 0 50 450 300 samprate 0;
#X obj 37 37 inlet;
#X obj 80 57 samplerate~;
#X obj 80 34 loadbang;
#X obj 37 59 f;
#X obj 37 81 outlet;
#X connect 0 0 3 0;
#X connect 1 0 3 1;
#X connect 2 0 1 0;
#X connect 3 0 4 0;
#X restore 149 235 pd samprate;
#X text 188 73 BIT RATE AND DOWNSAMPLE;
#X text 235 252 ARGUMENTS:;
#X text 235 270 1 - 32 (Bit Rate);
#X msg 190 181 2;
#X msg 153 38 16;
#X text 236 287 2 - 127 (Downsample);
#X connect 0 0 12 0;
#X connect 1 0 0 1;
#X connect 2 0 3 0;
#X connect 3 0 1 0;
#X connect 4 0 5 0;
#X connect 4 0 6 0;
#X connect 5 0 17 0;
#X connect 6 0 5 1;
#X connect 6 0 14 0;
#X connect 7 0 18 0;
#X connect 8 0 11 0;
#X connect 9 0 8 0;
#X connect 10 0 9 0;
#X connect 10 1 8 1;
#X connect 13 0 21 0;
#X connect 14 0 15 0;
#X connect 15 0 16 0;
#X connect 16 0 17 1;
#X connect 17 0 7 0;
#X connect 18 0 0 0;
#X connect 19 0 4 1;
#X connect 20 0 7 1;
#X connect 21 0 22 0;
#X connect 22 0 4 0;
#X connect 23 0 2 0;
#X connect 24 0 25 0;
#X connect 25 0 31 0;
#X connect 26 0 27 0;
#X connect 27 0 10 0;
#X connect 28 0 37 0;
#X connect 29 0 36 0;
#X connect 31 0 32 0;
#X connect 31 1 23 1;
#X connect 32 0 23 0;
#X connect 36 0 25 0;
#X connect 37 0 27 0;
#X coords 0 435 1 434 115 63 0;
