#N canvas 896 100 578 870 10;
#X obj 28 359 samphold~;
#X obj 149 342 phasor~ 4800;
#X floatatom 149 297 10 0 0 0 - - -;
#X obj 149 318 sig~;
#X obj 28 179 *~ 4;
#X obj 28 230 -~;
#X obj 43 201 wrap~;
#X obj 28 314 /~ 4, f 6;
#X obj 103 107 pow 2;
#X msg 103 82 2;
#X obj 103 57 t b f;
#X floatatom 103 129 10 0 0 0 - - #0-bits;
#X obj 28 381 outlet~;
#X obj 28 94 inlet~;
#X obj 58 225 -~ 0.5;
#X obj 58 247 *~ 65536;
#X obj 58 269 clip~ 0 1;
#X obj 28 286 +~;
#X obj 28 336 -~ 1;
#X obj 61 162 r \$0-bits;
#X obj 61 293 r \$0-bits;
#X obj 28 116 clip~ -1 1;
#X obj 28 138 +~ 1;
#X msg 149 246 48000 \$1;
#X obj 149 268 /;
#X obj 149 201 inlet;
#X obj 149 223 f \$2;
#X obj 103 11 inlet;
#X obj 103 33 f \$1;
#X obj 153 16 loadbang;
#X obj 190 206 loadbang;
#X floatatom 157 50 5 0 0 0 - - -;
#X floatatom 219 240 5 0 0 0 - - -;
#X connect 0 0 12 0;
#X connect 1 0 0 1;
#X connect 2 0 3 0;
#X connect 3 0 1 0;
#X connect 4 0 5 0;
#X connect 4 0 6 0;
#X connect 5 0 17 0;
#X connect 6 0 5 1;
#X connect 6 0 14 0;
#X connect 7 0 18 0;
#X connect 8 0 11 0;
#X connect 9 0 8 0;
#X connect 10 0 9 0;
#X connect 10 1 8 1;
#X connect 13 0 21 0;
#X connect 14 0 15 0;
#X connect 15 0 16 0;
#X connect 16 0 17 1;
#X connect 17 0 7 0;
#X connect 18 0 0 0;
#X connect 19 0 4 1;
#X connect 20 0 7 1;
#X connect 21 0 22 0;
#X connect 22 0 4 0;
#X connect 23 0 24 0;
#X connect 24 0 2 0;
#X connect 25 0 26 0;
#X connect 26 0 23 0;
#X connect 26 0 32 0;
#X connect 27 0 28 0;
#X connect 28 0 10 0;
#X connect 28 0 31 0;
#X connect 29 0 28 0;
#X connect 30 0 26 0;
#X coords 0 435 1 434 115 63 0;
