#N canvas 336 159 861 704 10;
#X obj 83 94 delwrite~ comb1 1000;
#X obj 183 245 delread4~ comb1;
#X floatatom 183 223 5 0 0 0 - - -;
#X obj 183 180 mtof;
#X obj 183 202 / 1000;
#X obj 83 70 *~ 0.7;
#X obj 26 66 inlet~;
#X obj 26 327 outlet~;
#X obj 26 292 *~;
#X obj 94 262 *~;
#X obj 41 154 - 1;
#X obj 41 176 abs;
#X obj 109 191 pack 0 50;
#X obj 109 213 line~;
#X obj 41 228 pack 0 50;
#X obj 41 250 line~;
#X obj 183 270 s~ \$0-comb1;
#X obj 83 48 r~ \$0-comb1;
#X obj 183 115 inlet;
#X obj 183 159 f \$1;
#X obj 194 136 loadbang;
#X text 270 279 freq: 12 - 127;
#X obj 245 9 inlet;
#X obj 256 30 loadbang;
#X text 269 295 feddback: 0 - 1;
#X obj 245 53 f \$2;
#X text 271 313 dry/wet: 0 - 1;
#X obj 318 81 inlet;
#X obj 329 102 loadbang;
#X obj 318 125 f \$3;
#X obj 318 147 s \$0-dry-wet;
#X obj 67 123 r \$0-dry-wet;
#X floatatom 245 77 5 0 0 0 - - -;
#X floatatom 279 142 5 0 0 0 - - -;
#X floatatom 218 176 5 0 0 0 - - -;
#X connect 1 0 9 0;
#X connect 1 0 16 0;
#X connect 2 0 1 0;
#X connect 3 0 4 0;
#X connect 4 0 2 0;
#X connect 5 0 0 0;
#X connect 6 0 0 0;
#X connect 6 0 8 0;
#X connect 8 0 7 0;
#X connect 9 0 7 0;
#X connect 10 0 11 0;
#X connect 11 0 14 0;
#X connect 12 0 13 0;
#X connect 13 0 9 1;
#X connect 14 0 15 0;
#X connect 15 0 8 1;
#X connect 17 0 5 0;
#X connect 18 0 19 0;
#X connect 19 0 3 0;
#X connect 19 0 34 0;
#X connect 20 0 19 0;
#X connect 22 0 25 0;
#X connect 23 0 25 0;
#X connect 25 0 5 1;
#X connect 25 0 32 0;
#X connect 27 0 29 0;
#X connect 28 0 29 0;
#X connect 29 0 30 0;
#X connect 29 0 33 0;
#X connect 31 0 10 0;
#X connect 31 0 12 0;
#X coords 0 352 1 351 117 102 0;
